<svg xmlns="http://www.w3.org/2000/svg" viewBox="0 0 108.08 66.15"><defs><style>.cls-1{fill:#5b2a15;}.cls-2{fill:#442115;}.cls-3{fill:#6b331f;}.cls-4{fill:#723b1f;}</style></defs><g id="Layer_2" data-name="Layer 2"><g id="Layer_1-2" data-name="Layer 1"><path class="cls-1" d="M79.38,29.44,78.49,34l-.44,4.61-1.19,3.42.3,4.91,1,6.54.44,3.86,1.19,1.34,2.83,1.34,1.19,1.19v1.63l-3.57.6-4.76-.15-3.42-.89-.74-2.38-1.64-.6-.29-1.63-.9-.45-.29-1.48a15.66,15.66,0,0,0-.3-1.94l-2.53-7.28,3.27-11.3,5.95-8.47Z"/><path class="cls-2" d="M70.58,46.35l-2,4.12-.79,3-2.37-6.82,3.27-11.3,5.79-8.25.54,0,4.37,2.33L78.49,34l-.44,4.61-1.19,3.42.3,4.91.57,3.59c-.71-1.29-1.36-2.44-1.36-2.44l-2.34-3Z"/><polygon class="cls-2" points="96.18 11.3 96.41 9.51 95.89 8.18 94.7 7.28 93.58 7.21 91.5 8.1 96.04 11.22 96.18 11.3"/><polygon class="cls-2" points="29.29 40.44 27.06 46.83 24.68 51.14 22.75 54.85 23.04 57.38 25.87 59.17 27.95 60.51 28.69 62.14 26.61 62.88 24.08 62.88 20.96 62.88 16.95 61.54 15.76 57.09 17.84 48.31 23.49 38.5 29.29 40.44"/><path class="cls-3" d="M107.93,23.94l-1.19-.45-4.31-4-2.08-5-3.72-3.57L92.17,7.43l-5.35-1-4.31.45-6-1.64L66.9,0l-4,.15L50.25,3,39.1,3.72l-15-1.19-4.31.59-9.66,7.73L.3,21.85,0,34.64l.59,11.3L4,52.48,5.8,61.25l2.37,3.86,2.53,1h6.84c.3-.59,3.87-.14,3.87-.14l1.63-.3-.89-3-3.72-1.05-.89-2.37.15-3.13L23.49,43l2.82-.74,4.61.74,3.72-2.08,5.8.74,6.39.9,5.5-3.13v4.17L53.07,51l1,1.93-.44,1.19.59.89,1,.45.45,1.49.59,1.78-.44,1.19.59,1.34.74,3.42,4.46.59,5.06.3,3.42-1V62.59l-1.79-1.34L66,60.36l-1.19-2.09.89-5.35,2.53-12,4.9-7.43,1.93-3,4.91.45L81.47,34,85,33.6l5-1.79,2.82-2.37,3.72-.15,5.2.29,1.34-.14.74-1.05,1.94-.59,2.23-2.38Z"/><path class="cls-1" d="M0,34.64.3,21.85l9.81-11,9.66-7.73,4.31-.59,15,1.19L50.25,3,62.88.15l4-.15,9.66,5.2,6,1.64,4.31-.45,5.35,1,4.46,3.42,3.11,3-.28,2.08-3.13,1.34-1.48,1.18-1.19-1,.89-3.12V12.34l-4.16-.6-3.42.9L82.06,11,76,9.66,72.69,7.43,70.32,8,68.24,9.51,66.6,7.58,65,5.2,60.51,3.42,56.34,4.91s-7.13,1.33-7.58,1.33S36.27,7.88,36.27,7.88l-4.46,5.35-3.71-.59-6.69-2.08-4.61-.9L11,13.53,7,19.92l-.9,6.69L6,32,8,37.46l.14,4.91L6.24,47.12,5.5,50.84,7,56.94l.89,3.12.89,2.82L8.5,65.25l-.33-.14L5.8,61.25,4,52.48.59,45.94Z"/><polygon class="cls-4" points="8.04 13.17 10.11 10.85 19.77 3.12 24.08 2.53 39.1 3.72 50.25 2.97 62.88 0.15 66.9 0 76.56 5.2 82.51 6.84 86.82 6.39 92.17 7.43 96.63 10.85 99.36 13.47 98.12 13.38 94.85 10.11 91.72 8.03 88.3 7.43 80.57 7.43 76.71 6.99 74.33 5.2 66.45 1.64 62.59 1.34 52.77 3.42 47.27 4.31 35.53 4.46 26.76 3.87 20.07 4.46 15.91 7.13 9.51 12.34 8.04 13.17"/><polygon class="cls-1" points="71.92 33.19 71.92 29.73 72.03 25.05 72.03 22.15 74.59 21.03 79.39 23.15 82.17 25.83 84.85 23.71 88.31 21.48 91.31 19.7 89.87 22.04 91.43 25.38 94.33 24.83 97.11 23.71 99.9 20.81 101.48 17.17 102.43 19.47 102.97 19.98 99.34 26.5 97.41 29.33 96.63 29.29 92.91 29.43 90.09 31.81 85.03 33.6 81.47 34.04 79.98 30.92 75.07 30.47 73.14 33.45 71.59 35.8 71.92 33.19"/><polygon class="cls-2" points="99.75 17.17 99.83 17.69 99.38 17.91 99.6 18.73 99.75 19.1 99.38 19.25 97.6 17.99 98.19 17.69 99.75 17.17"/><polygon class="cls-4" points="93.5 29.41 94.7 26.91 96.48 25.57 99.01 23.34 100.79 20.52 101.87 18.12 102.43 19.47 106.74 23.49 107.93 23.93 108.08 25.42 105.85 27.8 103.91 28.39 103.17 29.43 101.83 29.58 96.63 29.29 93.5 29.41"/><path class="cls-1" d="M95,13.23c0-.22-.29-1.56-.29-1.56L92.76,10l-1.56.14L89.79,11.3l-.22,2.08L90,14.57l1.34-.15,1.94-.74Z"/><path class="cls-2" d="M91.33,14.42,90,14.57l-.44-1.19.22-2.08,1.41-1.12L92.76,10l1.94,1.63S95,13,95,13.23l-.32.09L94,11.82,92.84,10.7H91.43l-.6,1.19.37,2Z"/><polygon class="cls-1" points="106.37 24.08 106.87 23.54 107.93 23.93 108.08 25.42 107.18 26.38 106.81 25.72 106.89 24.9 106.29 24.75 106.37 24.08"/><polygon class="cls-1" points="100.27 27.2 102.65 27.87 104.85 28.11 103.91 28.39 103.88 28.45 102.88 28.25 101.98 28.1 100.79 27.87 99.53 27.73 98.41 27.8 97.97 27.5 98.41 26.98 100.27 27.2"/><polygon class="cls-1" points="34.64 40.88 30.92 42.96 26.31 42.22 23.49 42.96 19.8 51.38 19.4 50.14 19.29 44.78 19.62 39.88 21.18 33.08 20.74 27.17 21.85 26.5 24.08 28.5 32.67 31.96 40.03 33.41 46.38 32.41 50.17 29.84 55.19 25.72 56.75 26.28 56.53 28.73 58.09 32.85 60.65 35.2 64.22 37.42 66.23 41.44 67.12 46.2 65.71 52.92 64.82 58.27 66.01 60.36 68.38 61.25 70.17 62.59 70.17 64.52 66.75 65.56 61.69 65.26 57.23 64.67 56.49 61.25 55.9 59.91 56.34 58.72 55.75 56.94 55.3 55.45 54.26 55 53.67 54.11 54.11 52.92 53.07 50.99 52.33 43.56 52.33 39.39 46.83 42.52 40.44 41.62 34.64 40.88"/><path class="cls-1" d="M16.83,64.19l.71,2h-.68l-.47-1.3-1.34-1.11C15.27,63.18,16.83,64.19,16.83,64.19Z"/><path class="cls-1" d="M20.4,63.63l.9,1.45-.07.91-.77-.08-.17-1.28L19,63.52l-1-.34C18.06,62.74,20.4,63.63,20.4,63.63Z"/><path class="cls-2" d="M25.31,39.43l.89-2.9,3.23.56,8.37.78,5.35.56,6.35-1,3.91-1.57,1.45,3.24-.56,2.78.11,6,1.11,4.68,2,3.46-.67,3.34-.68,1.16-.28-.64.44-1.19-.59-1.78-.45-1.49-1-.45-.59-.89.44-1.19-1-1.93-.74-7.43V39.39l-5.5,3.13-6.39-.9-5.8-.74L30.92,43l-4.61-.74-2.44.64C24.33,41.74,25.31,39.43,25.31,39.43Z"/><polygon class="cls-2" points="59.14 64.92 57.23 64.67 56.69 62.17 58.2 62.96 59.14 64.92"/><polygon class="cls-2" points="66 65.52 64.88 65.45 64.78 64.3 63.11 62.96 62.77 62.29 65.56 63.4 66 65.52"/><path class="cls-2" d="M65.56,62.4c.11-.45,2.34.45,2.34.45l.89,1,.29,1-.7.21-.26-1.21-1.67-1.23Z"/></g></g></svg>