<svg xmlns="http://www.w3.org/2000/svg" viewBox="0 0 91.82 56.13"><defs><style>.cls-1{isolation:isolate;}.cls-2{fill:#6d574f;}.cls-3{fill:#876e62;}.cls-4{fill:#ad8f80;}.cls-5,.cls-6{fill:#d6c9c3;}.cls-5{mix-blend-mode:multiply;}.cls-7{fill:#6b5951;}.cls-8{fill:#cf867c;}</style></defs><g class="cls-1"><g id="Layer_2" data-name="Layer 2"><g id="Layer_1-2" data-name="Layer 1"><polygon class="cls-2" points="7.6 5.67 7.22 3.27 6.42 1.39 6.85 0.48 9.15 1.87 11.82 4.66 7.6 5.67"/><polygon class="cls-3" points="33.39 35.15 34.78 40.4 35.96 44.78 36.38 48.1 35.85 50.56 33.92 51.1 33.07 52.38 33.07 53.67 35.1 54.09 38.31 53.88 38.74 52.38 39.92 50.03 39.49 48.42 39.06 43.29 38.52 35.05 37.88 29.91 33.82 30.66 33.39 35.15"/><polygon class="cls-2" points="39.31 50.04 38.63 51.24 38.35 52.65 37.99 52.29 38.35 49.72 39.31 50.04"/><polygon class="cls-4" points="38.52 35.05 37.88 29.91 33.82 30.66 33.39 35.15 34.78 40.4 35.7 43.82 35.98 40.69 37.11 36.8 38.61 36.38 38.52 35.05"/><polygon class="cls-2" points="36.46 52.33 36.42 52.09 35.82 52.25 34.94 53.09 34.61 53.99 35 54.07 35.1 53.69 35.46 52.89 36.46 52.33"/><polygon class="cls-2" points="33.53 52.81 33.29 53.71 33.57 53.77 33.7 53.17 34.06 52.45 34.66 51.85 34.14 51.93 33.53 52.81"/><polygon class="cls-5" points="39.06 43.29 38.52 35.05 37.88 29.91 36.51 30.16 37.67 37.72 38.39 42.94 38.71 47.59 39.84 50.18 39.92 50.03 39.49 48.42 39.06 43.29"/><polygon class="cls-4" points="74.05 14.07 77.37 14.18 82.4 17.18 88.61 25.74 91.39 32.27 91.82 36.76 90.53 39.86 88.71 39.86 83.04 34.19 79.94 24.34 77.48 19.1 75.55 17.5 74.05 14.07"/><path class="cls-6" d="M90.24,35.71l-2.41-1.52L85.18,31.7l-1.93-3.77-3-6L78,17.58l-2.86-.93.37.85,1.93,1.6,2.46,5.25L83,34.19l5.67,5.67h1.82l1.29-3.1-.16-1.66-.38-.19Z"/><polygon class="cls-3" points="90.36 29.84 88.61 25.74 82.4 17.18 77.37 14.18 76.83 14.16 80.53 16.69 83.82 21.03 86.22 25.76 88.87 29.29 90.36 29.84"/><polygon class="cls-3" points="57.04 28.52 58.53 34.19 61.42 38.9 63.89 42.22 63.99 43.82 61.85 48.21 60.78 50.03 60.14 50.67 57.89 51.42 56.29 53.56 56.72 53.99 60.46 53.77 62.6 53.24 63.03 50.78 66.03 47.03 68.38 43.82 69.13 42.22 68.92 40.72 67.31 38.69 67.42 31.94 64.1 27.02 57.04 28.52"/><polygon class="cls-4" points="67.31 38.69 67.42 31.94 64.1 27.02 57.04 28.52 58.53 34.19 61.05 38.28 62.55 36.87 65.22 36.33 66.4 38.79 68.33 41.68 67.71 44.74 68.38 43.82 69.13 42.22 68.92 40.72 67.31 38.69"/><path class="cls-5" d="M68.38,43.82l.75-1.6-.21-1.5-1.61-2,.11-6.75L67,31.25c-.71.57-1.41,1.17-1.41,1.17-.05.22.27,5.62.27,5.62l1.07,3.32v2.78l-2,3.16-2,2.89-.49,1.6.43.54L63,50.78,66,47Z"/><polygon class="cls-4" points="0.21 18.35 2.78 15.25 3.96 13.11 4.07 11.29 4.92 8.51 7.17 5.4 9.74 4.23 15.3 4.55 18.73 6.05 20.87 6.69 30.5 7.33 33.6 6.58 35.63 6.37 38.84 7.87 46.98 8.72 56.5 8.29 62.5 7.44 68.27 8.51 75.12 13.22 77.05 19.85 77.91 27.98 76.83 35.37 77.58 38.36 79.4 40.5 80.26 41.25 79.83 45.64 78.12 52.17 77.26 53.13 76.51 55.27 74.05 56.13 72.98 56.02 72.66 55.27 71.06 55.59 70.09 54.84 71.59 52.49 74.27 51.95 75.02 50.67 76.51 43.18 72.88 40.61 70.09 37.62 64.64 32.27 62.07 28.95 59.39 29.38 50.51 30.66 40.66 31.52 35.1 31.84 33.71 36.97 32.64 42.97 32.1 46.92 32.42 48.96 32.42 49.92 30.71 52.27 29.86 54.95 29.21 55.48 24.93 55.48 23.86 55.16 24.29 53.67 26.65 52.06 28.46 47.78 28.57 44.14 26.86 32.59 25.9 30.34 22.26 27.98 18.83 23.81 17.55 23.38 15.94 24.77 14.02 23.38 11.02 19.42 8.88 18.67 5.78 20.49 4.17 21.14 1.82 20.6 0 19.53 0.21 18.35"/><polygon class="cls-6" points="80.22 41.61 78.33 41.47 76.73 40.08 74.48 37.4 71.59 32.91 68.38 30.66 62.92 24.99 61.42 21.46 59.39 20.92 56.93 22.85 53.83 23.38 47.62 24.34 42.8 24.45 37.77 23.81 34.46 23.38 33.17 24.56 34.03 27.98 35.1 30.23 35.25 31.83 40.66 31.52 50.51 30.66 59.39 29.38 62.07 28.95 64.64 32.27 70.09 37.62 72.88 40.61 76.51 43.18 75.02 50.67 74.27 51.95 71.59 52.49 70.09 54.84 71.06 55.59 72.66 55.27 72.98 56.02 74.05 56.13 76.51 55.27 77.26 53.13 78.12 52.17 79.83 45.64 80.22 41.61"/><polygon class="cls-6" points="25.9 30.65 26.05 31.01 26.11 28.45 24.93 25.6 25.25 22.09 23.86 18.8 22.58 18.14 21.94 19.89 20.23 22.97 20.31 25.8 22.26 28.24 25.9 30.65"/><polygon class="cls-6" points="15.2 23.06 14.88 20.49 13.16 18.35 11.77 16.64 12.2 15.46 14.34 13.86 14.34 12.15 10.17 11.93 8.56 14.29 7.17 14.61 4.71 15.89 3.85 15.46 2.64 15.42 0.21 18.35 0 19.53 1.82 20.6 4.17 21.14 5.78 20.49 8.88 18.67 11.02 19.42 14.02 23.38 15.34 24.34 15.2 23.06"/><path class="cls-3" d="M27.18,25.84l-1-2.46s.43-3.32.43-3.64.32-3.21.32-3.21l.1-4.7,1.82-2.68L28,13l1,5,.86,3.21L29,23.6Z"/><path class="cls-3" d="M6.13,11.4l-1,1.44c.24.08,1.37-1,1.37-1Z"/><polygon class="cls-2" points="5.68 11 6.17 11.64 6.33 12.12 6.93 11.64 7.41 10.63 6.57 10.88 5.68 11"/><polygon class="cls-4" points="6.33 11.12 6.49 11.48 6.65 11.32 6.61 11.08 6.33 11.12"/><polygon class="cls-2" points="0 19.53 1.41 20.36 1.23 19.34 1.79 19.02 1.71 18.38 1.07 18.3 0.81 17.63 0.21 18.35 0 19.53"/><polygon class="cls-2" points="6.53 18.94 4.44 20.28 2.91 20.85 3.34 20.95 4.65 20.33 5.72 19.69 7.33 18.73 8.56 18.3 8.72 17.98 8.08 17.93 6.53 18.94"/><polygon class="cls-3" points="5.88 9.52 6.42 7.97 8.56 6.05 9.9 5.83 9.63 7.6 10.86 9.15 13.91 10.06 14.02 11.34 12.79 10.92 10.27 10.17 9.26 10.43 8.29 9.58 5.88 9.52"/><polygon class="cls-3" points="13.19 16.13 13.99 17.66 14.96 17.58 13.91 16.21 13.67 15.49 13.19 16.13"/><polygon class="cls-3" points="14.71 16.29 16.96 17.82 18.49 19.82 19.69 20.23 20.33 19.98 18.89 18.86 17.76 16.37 14.39 14.69 14.71 16.29"/><polygon class="cls-3" points="15.52 19.74 15.92 21.83 17.44 21.75 18.57 22.15 18.97 21.75 17.68 20.95 16.88 18.86 15.6 17.82 14.71 18.14 15.52 19.74"/><polygon class="cls-3" points="19.77 21.43 20.33 20.87 18.57 20.3 18.49 20.71 19.77 21.43"/><path class="cls-3" d="M66.48,9.07l4.82,3,1.6,3.21v4.33l-.24,1.93,3,3.85.16,1.77.48,3.13,1,1.61L77.9,28l-.85-8.13-1.93-6.63L68.27,8.51,62.5,7.44l-6,.85L47,8.72l-8.13-.85-3.22-1.5-2,.21-3.1.75-9.36-.62.4.59a20.94,20.94,0,0,0,2.72.49c.25-.09,4.26.32,4.26.32l3.21,1.28,3.85.56,3.13-.4.4,1.45.08,1.36,1.13.48,2-1.6,2.81-1,7-.56,4.1-.16L60.54,9Z"/><polygon class="cls-7" points="31.65 50.2 30.81 51.21 29.88 51.65 29.8 51.37 30.97 50.28 31.45 49.16 31.65 50.2"/><path class="cls-7" d="M25.71,54.34l1.52-.65-.08-.32L25.47,54,25,55.49h.54C25.6,55.08,25.71,54.34,25.71,54.34Z"/><polygon class="cls-7" points="25.31 53.41 24.43 54.17 24.19 55.27 24.45 55.34 24.59 54.34 25.35 53.57 25.31 53.41"/><polygon class="cls-3" points="31.33 27.05 31.41 30.82 29.72 33.15 28.44 33.63 27.88 32.67 29.4 30.98 30.52 27.77 31.33 27.05"/><polygon class="cls-6" points="36.06 28.65 34.7 28.65 34.06 32.27 32.77 37.8 31.65 43.42 31.57 46.47 32.19 47.48 32.1 46.92 32.64 42.97 33.71 36.97 35.1 31.84 36.96 31.73 37.19 30.66 36.06 28.65"/><polygon class="cls-3" points="78.12 42.06 78.76 43.98 78.68 46.31 79.32 43.66 79.08 42.06 78.12 42.06"/><polygon class="cls-3" points="79.83 45.64 80.22 41.61 79.42 41.55 79.83 42.27 79.4 45.48 78.6 48.48 77.53 51.26 76.41 52.97 76.08 55.42 76.51 55.27 77.26 53.13 78.12 52.17 79.83 45.64"/><path class="cls-3" d="M72.39,53.08l-1.28,1.5-.22.89.17.12.2,0c.12-.4.33-1,.33-1L73,53l.54-.16-.06-.26Z"/><path class="cls-3" d="M74.43,53.29,73.3,54.36l-.58,1L73,56h0c.13-.49.33-1.19.33-1.19l1.12-1.17Z"/><polygon class="cls-3" points="17.6 7.38 18.96 6.12 18.73 6.05 16.23 4.96 16 7.3 15.52 8.91 16.56 9.79 17.6 7.38"/><path class="cls-5" d="M9.74,4.23,7.17,5.4,4.92,8.51l-.85,2.78L4,13.11,2.78,15.25.21,18.35,0,19.53l.25.15.39-1.22.86-1.07,1.87-1.87,1.07-2,0-1.55s.65-2.52.65-2.68S6.53,6.8,6.53,6.8L8,5.51l1.5-.86,1.39-.26.05-.1Z"/><polygon class="cls-8" points="14.66 8.35 12.88 7.83 11.88 7.54 10.92 6.69 10.06 6.63 9.69 5.89 10.65 3 10.97 0.43 11.45 0 13.48 2.57 14.71 5.99 14.66 8.35"/><polygon class="cls-5" points="12.09 3.05 11.29 4.76 10.8 6.68 10.92 6.69 11.88 7.54 12.88 7.83 12.9 7.84 13.43 6.9 13.54 4.92 12.36 2.09 12.09 3.05"/><polygon class="cls-2" points="11.45 0 10.97 0.43 10.65 3 9.69 5.89 10.06 6.63 10.12 6.64 10.33 5.24 10.81 3.69 11.13 1.23 11.61 1.55 12.63 3.53 12.89 5.51 12.41 6.79 11.81 7.48 11.88 7.54 12.88 7.83 14.66 8.35 14.71 5.99 13.48 2.57 11.45 0"/><polygon class="cls-5" points="59.39 29.38 62.07 28.95 64.64 32.27 70.09 37.62 72.5 40.2 70.95 37.29 66.13 31.52 63.56 27.66 60.67 26.49 54.58 28.3 41.31 29.16 36.06 28.95 34.03 29.05 34.46 30.98 34.66 33.48 35.1 31.84 40.66 31.52 50.51 30.66 59.39 29.38"/></g></g></g></svg>