<svg xmlns="http://www.w3.org/2000/svg" viewBox="0 0 121.89 91.67"><defs><style>.cls-1{fill:#7a3e22;}.cls-2{fill:#a55520;}.cls-3{fill:#cc7832;}.cls-4{fill:#c69675;}</style></defs><g id="Layer_2" data-name="Layer 2"><g id="Layer_1-2" data-name="Layer 1"><polygon class="cls-1" points="75.62 40.67 70.65 47.51 69.41 49.5 69.03 53.36 68.78 59.95 68.91 62.44 67.29 65.8 66.17 74.63 66.54 80.35 67.29 81.84 67.29 83.34 70.4 85.08 71.77 86.57 71.77 87.69 70.77 88.06 70.52 88.69 63.68 87.44 61.32 82.84 61.69 66.79 63.56 43.78 75.62 40.67"/><polygon class="cls-2" points="26.87 48.51 26.25 56.47 23.39 63.44 22.64 71.02 22.76 76 24.25 80.47 25.87 81.84 26.49 82.96 29.48 84.21 30.97 86.32 30.72 87.07 28.48 86.94 27.61 87.81 23.01 86.82 21.52 85.08 21.64 83.09 20.9 81.47 19.03 80.85 19.28 77.86 17.66 73.51 16.79 72.02 17.04 70.65 18.29 65.18 17.29 60.7 13.81 54.35 15.42 45.77 20.65 45.52 26.87 48.51"/><polygon class="cls-3" points="7.84 28.98 4.48 30.72 2.98 34.83 1.74 43.53 1.74 52.12 1.74 58.58 2.98 58.58 3.11 45.03 3.61 38.81 4.48 34.08 7.71 32.59 7.96 28.61 7.84 28.98"/><polygon class="cls-2" points="1.12 57.96 3.11 57.96 3.86 58.83 3.23 62.69 2.24 66.3 1.99 69.03 1.87 70.4 1 70.4 0 66.3 0.37 61.07 1.12 57.96"/><polygon class="cls-3" points="120.28 6.34 120.53 6.97 120.53 7.96 121.64 9.33 121.89 10.45 120.28 11.32 119.66 12.44 118.16 13.18 116.05 12.94 114.56 11.94 110.33 13.56 105.97 14.93 104.73 14.68 102.12 21.39 96.77 29.85 89.43 36.2 82.71 39.8 75.13 42.29 70.4 44.53 66.67 48.88 65.55 53.86 65.3 60.7 65.92 63.93 65.42 65.67 63.93 68.04 63.19 75.75 63.68 81.72 64.43 83.58 64.31 85.08 66.79 86.94 68.66 88.31 69.03 89.68 68.16 90.67 67.91 91.67 62.31 91.67 59.08 90.42 57.84 88.43 58.83 86.07 59.08 83.21 59.95 79.61 60.2 68.53 58.33 66.3 58.83 62.81 59.58 58.58 57.96 50.87 56.84 49.26 54.73 50 45.03 52.12 33.09 52.36 26.49 50.13 20.4 47.27 18.16 47.76 17.16 49.13 16.42 53.73 15.18 58.33 12.44 62.31 11.44 66.92 11.19 71.52 11.82 73.88 14.8 81.22 16.05 82.59 16.05 84.33 15.92 85.57 19.28 86.57 20.77 88.56 20.52 89.68 16.05 89.93 13.18 89.3 11.94 87.56 12.07 85.7 10.45 84.83 9.58 83.71 10.2 81.35 8.46 76.25 6.47 71.4 4.85 69.16 4.85 67.66 5.72 62.94 5.22 54.98 4.11 42.66 5.22 32.09 7.96 28.61 10.7 25.5 11.07 25.25 12.56 21.77 14.68 20.77 19.9 18.91 23.88 16.42 28.61 11.82 33.96 6.72 39.43 4.98 44.28 5.85 51.12 8.96 55.35 13.31 58.83 16.17 63.68 17.16 66.92 18.66 70.15 22.64 72.51 26.12 78.61 25.87 83.96 23.39 90.3 18.29 93.16 11.57 97.89 3.48 102.49 0.75 107.34 1.62 111.32 3.73 113.68 4.98 117.79 5.6 120.28 6.34"/><polygon class="cls-3" points="103.36 2.86 102.49 1.87 101.25 0 99.5 0 98.76 1.37 102.12 3.86 103.36 2.86"/><polygon class="cls-2" points="55.35 13.31 53.23 9.21 49.63 5.1 43.16 2.74 37.69 1.99 33.96 3.86 31.84 7.59 27.74 10.45 24.25 13.31 23.01 16.17 21.64 18.41 24.5 16.79 30.47 11.07 33.83 7.71 36.69 6.59 40.67 6.09 45.15 7.09 49.38 8.96 51.74 10.7 55.35 13.31"/><polygon class="cls-4" points="119.82 7.8 119.82 6.88 118.91 6.3 117.83 6.38 119.82 7.8"/><polygon class="cls-1" points="119.36 7.96 119.36 7.01 118.91 6.72 117.79 6.72 118.33 7.34 119.36 7.96"/><polygon class="cls-2" points="120.03 11.07 118.74 10.99 117.42 10.53 117.91 10.07 119.03 10.07 120.86 9.83 121.67 9.46 121.89 10.45 120.34 11.28 120.03 11.07"/><path class="cls-1" d="M116.17,10l1.7.46,1.62.46,1.45-.46.94-.1v.06l-1.62.87v0a8.67,8.67,0,0,1-1.1,0c-.17,0-2.33-.75-2.33-.75l-1.74-.16-.25-.29.17-.33Z"/><polygon class="cls-1" points="109.89 5.22 108.46 5.16 107.53 5.29 108.21 6.03 109.95 6.59 109.95 5.97 110.2 5.41 109.89 5.22"/><polygon class="cls-4" points="110.33 4.73 109.08 4.91 107.71 4.91 107.28 4.42 108.52 4.23 109.77 4.04 110.33 4.73"/><polygon class="cls-2" points="103.21 2.98 102.44 3.6 101.37 2.86 100.19 1.62 100.44 0.62 101.43 0.93 103.21 2.98"/><polygon class="cls-2" points="75.13 42.29 70.4 44.53 66.67 48.88 65.97 51.97 66.17 48.42 67.58 46.27 69.16 43.04 70.15 38.64 70.07 34.83 69.98 32.09 72.47 34.83 74.71 36.48 78.28 37.07 83 35.16 86.65 32.34 93.2 26.12 99.34 18 99.83 15.09 99.34 13.27 99.25 10.03 99.5 8.13 100.5 7.55 101.25 9.04 102.32 11.53 104.64 12.52 108.46 12.69 112.61 11.78 114.93 11.2 116.34 11.94 118 12.52 119.85 12.09 119.66 12.44 118.16 13.18 116.05 12.94 114.56 11.94 110.33 13.56 105.97 14.93 104.73 14.68 102.12 21.39 96.77 29.85 89.43 36.2 82.71 39.8 75.13 42.29"/><polygon class="cls-2" points="66.5 18.91 66.02 18.24 66.92 18.66 70.15 22.64 72.51 26.12 78.61 25.87 83.96 23.39 90.3 18.29 92.63 12.82 92.12 15.59 90.88 19.32 86.98 22.47 82.75 25.21 78.61 26.87 74.46 27.2 72.31 26.87 70.56 24.55 67.99 21.64 66.5 18.91"/><polygon class="cls-2" points="6.47 71.4 4.85 69.16 4.85 67.66 5.72 62.94 5.22 54.98 4.11 42.66 5.22 32.09 7.96 28.61 9.37 27.01 9.58 29.85 13.06 35.57 17.54 35.95 19.53 32.71 21.39 32.09 26.62 34.95 32.34 39.43 41.42 41.92 47.14 39.93 52.49 36.2 53.98 36.32 54.11 40.42 55.97 44.78 59.58 48.14 60.08 52.99 60.57 58.09 60.08 63.06 60.33 65.92 61.57 68.28 61.2 72.02 60.7 79.36 60.45 84.21 60.45 86.44 58.96 87.94 58.26 89.11 57.84 88.43 58.83 86.07 59.08 83.21 59.95 79.61 60.2 68.53 58.33 66.3 58.83 62.81 59.58 58.58 57.96 50.87 56.84 49.26 54.73 50 45.03 52.12 33.09 52.36 26.49 50.13 20.4 47.27 18.16 47.76 17.16 49.13 16.42 53.73 15.18 58.33 12.44 62.31 11.44 66.92 11.19 71.52 11.82 73.88 14.8 81.22 16.05 82.59 16.05 84.33 15.92 85.57 19.28 86.57 20.77 88.56 20.52 89.68 16.05 89.93 13.18 89.3 11.94 87.56 12.07 85.7 10.45 84.83 9.58 83.71 10.2 81.35 8.46 76.25 6.47 71.4"/><polygon class="cls-2" points="65.24 88.62 64.55 87.63 66.17 88.31 68.42 90.38 68.16 90.67 67.91 91.67 67.18 91.67 66.48 89.86 65.24 88.62"/><path class="cls-1" d="M11,60.45l2.65-2.9s1.49-5,1.49-5.31,1.83-8,1.83-8l.33-4.73.83.25.33,2.4L20,43.62l4.9,2,6,1.74,18.4-2.41L52,42.79l.91.66.33,2.82,2.82,2.07.7.95-2,.71L45,52.12l-11.94.24-6.6-2.23L20.4,47.27l-2.24.49-1,1.37-.75,4.6-1.25,4.6-2.73,4-1,4.6-.25,4.6.63,2.36.21.52-1-.93s-1.66-4-1.66-4.23.33-4.48.33-4.48Z"/><polygon class="cls-2" points="62.35 64.51 64.02 62.52 65.48 61.62 65.92 63.93 65.42 65.67 64.35 67.38 62.27 65.84 62.35 64.51"/><path class="cls-1" d="M5.06,43.45l.74,5.06s.42,6.71.42,7,.17,5.89.17,5.89v3.07l-.34,2.82S6,69.65,6.3,69.9s2.24,2.65,2.24,2.65l1.91,7.72L10.53,83l-.17,1.72-.78-1,.62-2.36-1.74-5.1-2-4.85L4.85,69.16v-1.5l.87-4.72-.5-8L4.1,42.66,5.22,32.09v6Z"/><polygon class="cls-1" points="15.84 86.73 17.08 87.07 18.57 88.39 19.38 89.74 17.92 89.82 16.83 88.06 15.51 86.98 15.84 86.73"/></g></g></svg>