<svg xmlns="http://www.w3.org/2000/svg" viewBox="0 0 103.6 104.04"><defs><style>.cls-1{fill:#592b22;}.cls-2{fill:#c18f74;}.cls-3{fill:#b28056;}.cls-4{fill:#824a37;}.cls-5{fill:#68352a;}.cls-6{fill:#d3aa8c;}.cls-7{fill:#9e6e49;}</style></defs><g id="Layer_2" data-name="Layer 2"><g id="Layer_1-2" data-name="Layer 1"><path class="cls-1" d="M33.38,58l-5.65,4-3.44,4.68S21.2,74,21,74.28a17.41,17.41,0,0,0-.53,2.47L23.4,91.32l2.48,2.39.35,1,.8.79,1.32,3.8-.62.44-5.3-.53L19.52,98V96.18l1-1.5-.09-1.59L18.55,91l.62-3.18-2-9.54-3.09-5.56,7.6-17.31L33.3,53.7Z"/><polygon class="cls-2" points="19.52 98.04 22.43 99.18 27.73 99.71 28.35 99.27 27.03 95.47 26.23 94.68 25.88 93.71 23.41 91.32 22.1 84.78 18.9 81.39 18.08 82.44 19.17 87.79 18.55 90.97 20.4 93.09 20.49 94.68 19.52 96.18 19.52 98.04"/><polygon class="cls-3" points="28.35 99.27 27.07 95.61 25.79 96.36 23.58 97.06 19.52 96.99 19.52 98.04 22.43 99.18 27.73 99.71 28.35 99.27"/><polygon class="cls-1" points="62.27 62.97 64.12 67.21 64.3 75.95 63.24 84.44 63.15 93.18 64.03 95.39 64.56 96.71 64.3 98.39 67.83 99.19 69.86 99.01 70.75 97.77 70.48 95.83 67.83 94.15 67.56 91.15 67.74 83.29 69.06 75.78 70.21 64.47 62.27 62.97"/><polygon class="cls-2" points="71.98 98.74 70.48 95.83 67.83 94.15 67.56 91.15 67.62 88.58 66.19 85.63 64.74 83.37 63.94 85.23 63.23 85.59 63.15 93.18 64.03 95.39 64.56 96.71 64.3 98.39 67.83 99.19 69.86 99.01 71.98 98.74"/><polygon class="cls-3" points="69.86 99.01 71.98 98.74 70.48 95.83 69.12 94.97 68.09 95.74 65.44 97.15 64.46 97.33 64.3 98.39 67.83 99.19 69.86 99.01"/><path class="cls-1" d="M11.48,34H5.83L2.56,40,1.06,51.93l.71,8.39-.71,4.6L0,68.36A52.48,52.48,0,0,1,2.91,73c0,.36.71,8.83.71,9.1s-1,3.36-1,3.36l-1,1.06v.79l1.5-.79,1.15,2.2.26,2.74,1.24,2.65.53-.26-.71-2.21.8-3.09,2.38-5.3,1.68-11.66Z"/><polygon class="cls-1" points="90.44 8.04 92.74 6.71 91.32 4.77 89.2 2.65 84.88 2.38 75.42 3.89 71.1 7.95 63.94 20.58 60.59 27.29 60.41 29.68 86.55 8.74 90.44 8.04"/><path class="cls-4" d="M100.86,17.93l1.5,1.32L103.6,21l-.35,4.68-3.36,2.12L97.77,27l-1.86-1.15-5.82-1.59-1.86.18.18,3.09-1.15,11-4,13.69-.36,6.44-5.47,6.19-1,8-1,7.51L75.34,91.5l1,5.74,2.21,2.47.17,3.71L73,104l-1.85-.71.35-2.82L69.86,99,70,95.47,70.3,85V76.58L68.62,67l-3-2.48L58.2,63.41l-6-.53-11.31-1-8.74-3.53-2.39.09-3.18,1.85L18.72,68l-3.26,7.42-2.3,3.62,1.15,7.5,2.38,9.63,2.65,1.68.8,1.23L21.2,103l-1,.53-4.94-1.24L11.66,101l.88-2.3L11.3,95.56l-.79-1.15L9.8,89.12l-.17-6.81L7,71.19l1-3.71L7.68,62,3.44,51.14l1.24-8.57,4.51-8.65,8.39-6.8,7.59-.18,9.63,3.35s5.3,1.24,5.74,1.24l12.36-.09,5-1.94,2.91-1.94,1.24-.8,8-12L75.42,9l3.45-2.83,5.39-1.76,4.5,2,4.33,5.39,3.8,3.35Z"/><path class="cls-5" d="M78.52,99.71l-2.21-2.47-1-5.74.17-11.13,1-7.51,1-8,2.23-2.52c0-.48,0-.8,0-.8l-.8-4.1L76,53l-2.78-6.1-.53-2.78-1.06-.27-.4,1.6-.13,4.9-2.79,6.49-.39,5.56.5,4.43.2.17,1.68,9.54V85L70,95.47,69.86,99l1.59,1.5-.35,2.82L73,104l5.74-.62Z"/><polygon class="cls-5" points="66.19 61.78 54.93 58.73 43.28 56.48 35.46 52.77 31.88 47.74 28.97 41.91 22.87 36.48 17.31 38.2 12.01 41.77 6.45 48 4.21 53.09 7.68 62 7.95 67.48 6.98 71.19 9.63 82.31 9.8 89.11 10.51 94.41 11.3 95.56 12.54 98.65 11.66 100.95 15.28 102.27 20.23 103.51 21.2 102.98 20.14 99.09 19.34 97.86 16.69 96.18 14.31 86.55 13.16 79.05 15.46 75.43 18.72 68.01 26.58 60.32 29.76 58.47 32.15 58.38 40.89 61.91 52.2 62.88 58.2 63.41 65.62 64.56 66.78 65.52 66.19 61.78"/><polygon class="cls-4" points="23.54 45.35 26.98 51.84 25.92 54.76 21.28 57.14 17.58 59.79 14.93 56.35 16.12 48.13 18.9 44.56 23.54 45.35"/><polygon class="cls-6" points="78.52 99.71 76.31 97.24 75.34 91.5 75.44 85.25 74.28 83.5 74.01 81.78 73.48 80.72 72.16 84.04 70.27 86.08 69.95 95.47 69.86 99.01 71.45 100.51 71.1 103.33 72.95 104.04 78.69 103.42 78.52 99.71"/><polygon class="cls-6" points="19.34 97.86 16.69 96.18 14.6 87.75 13.07 87.35 11.08 86.02 9.76 87.35 9.8 89.11 10.51 94.41 11.3 95.56 12.54 98.65 11.66 100.95 15.28 102.27 20.23 103.51 21.2 102.98 20.14 99.09 19.34 97.86"/><polygon class="cls-5" points="100.71 21.64 98.92 19.98 97.33 17.86 94.94 15.48 93.02 14.02 93.42 14.62 95.08 16.14 97.73 19.05 99.18 20.91 100.71 21.64"/><polygon class="cls-5" points="102.65 22.72 103.05 21.79 102.35 20.63 102.13 21.05 101.84 21.47 102.65 22.72"/><polygon class="cls-5" points="101.7 22.17 102.56 22.63 102.56 22.9 101.77 22.5 101.7 22.17"/><polygon class="cls-5" points="101.46 26.83 100.24 25.61 97.33 24.69 94.55 24.29 92.29 24.02 88.45 22.3 83.02 18.99 83.95 21.24 86.33 23.89 88.27 24.46 90.09 24.29 95.92 25.88 97.77 27.03 99.89 27.82 101.46 26.83"/><polygon class="cls-5" points="102.1 25.21 100.64 24.55 99.05 24.42 100.24 25.08 101.7 25.75 102.09 26.43 102.64 26.08 102.1 25.21"/><polygon class="cls-5" points="92.69 13.62 92.43 12.43 91.1 11.7 89.84 11.64 88.32 11.97 88.25 13.09 88.92 14.09 91.23 14.09 92.69 13.62"/><polygon class="cls-1" points="91.76 12.96 91.9 12.3 90.74 12.46 89.91 13.22 89.97 13.56 92.29 13.36 91.76 12.96"/><polygon class="cls-5" points="87.13 23.63 86.33 30.38 82.89 37.67 81.96 46.28 82.36 49.46 83.27 52.43 83.29 52.2 87.26 38.51 88.41 27.56 88.23 24.47 88.89 24.4 87.13 23.63"/><path class="cls-5" d="M88.76,6.45l-4.5-2L78.87,6.18,75.42,9l-5.29,5.74-8,12-1.24.8L57.94,29.5l-5,1.94L43,31.51,45.4,32.9l8.34.79,6.63.27,2.25-4.24,4.5-6.09,5.3-6.5,4.37-6.62L82.58,7.4l3-.6,4,2.25,2.7,1.69Z"/><polygon class="cls-4" points="82.58 7.4 83.29 5.89 83.55 4 87.26 0 87.79 0.38 87.08 3.17 85.58 5.66 85.05 7.09 84.17 7.77 82.58 7.4"/><polygon class="cls-1" points="86.33 2.1 85.27 3.95 84.94 6 85.36 6.26 85.58 5.66 87.08 3.17 87.62 1.05 86.33 2.1"/><polygon class="cls-3" points="14.31 100.42 13.02 101.45 15.28 102.27 20.23 103.51 21.2 102.98 20.14 99.09 19.75 98.5 17.58 98.83 14.31 100.42"/><polygon class="cls-7" points="20.14 99.09 19.75 98.5 17.58 98.83 14.99 100.09 15.54 99.98 19.08 99.63 20.28 99.63 20.14 99.09"/><polygon class="cls-3" points="78.52 99.71 77.93 99.06 75.51 101.04 71.25 102.14 71.1 103.33 72.95 104.04 80.11 103.33 78.52 99.71"/><polygon class="cls-7" points="78.52 99.71 77.93 99.06 75.51 101.04 73.83 101.47 75.25 101.57 77.02 100.6 78.53 99.93 78.52 99.71"/><polygon class="cls-3" points="100.77 17.6 100.71 18.59 99.45 22.23 99.04 23.01 96.4 20.93 92.65 18.15 88.67 14.84 86.39 12.54 87.92 5.61 87.06 5.48 86.16 8.08 85.67 11.13 84.79 10.33 82.84 7.11 81.83 4.81 81.03 5.34 82.36 8.26 85.32 12.89 85.76 15.68 87.13 20.51 88.52 24.62 89.38 24.55 87.92 20.05 87.26 16.82 86.86 15.54 86.51 14.18 90.9 18.06 97.53 23.03 98.62 23.79 98.32 24.36 96.4 26.32 97.13 26.8 99.03 25.11 100.02 23.18 100.82 21.11 101.43 18.33 100.77 17.6"/><polygon class="cls-7" points="98.83 23.67 96.31 21.73 89.51 16.43 85.94 13.07 84.35 10.86 82.27 7.51 81.33 5.15 81.03 5.34 82.36 8.26 85.32 12.89 85.38 13.3 85.89 13.73 86.29 14.71 87.04 17.66 87.66 20.67 87.26 20.9 88.52 24.62 89.38 24.55 87.92 20.05 87.26 16.82 86.86 15.54 86.51 14.18 90.9 18.06 97.53 23.03 98.62 23.79 98.32 24.36 96.4 26.32 97.13 26.8 98.5 25.58 98.08 25.35 98.3 24.69 98.83 23.67"/><polygon class="cls-7" points="86.38 8.96 87.54 5.55 87.06 5.48 86.16 8.08 85.67 11.13 85.63 11.09 85.76 11.61 86.38 8.96"/><polygon class="cls-5" points="66.15 21.11 66.42 20.8 64.55 19.51 64.23 20.07 66.15 21.11"/><polygon class="cls-5" points="65.75 21.77 65.89 21.5 63.97 20.53 63.94 20.58 63.83 20.81 65.75 21.77"/><polygon class="cls-5" points="69.07 16.78 69.2 16.38 67.11 14.98 66.88 15.4 69.07 16.78"/><polygon class="cls-5" points="69.82 15.68 69.82 15.37 67.79 13.79 67.62 14.09 69.82 15.68"/><polygon class="cls-5" points="69.85 10.15 72.03 13.07 72.47 12.45 70.01 9.88 69.85 10.15"/><polygon class="cls-5" points="74.5 10.29 74.76 10.07 72.17 6.94 71.9 7.2 74.5 10.29"/><polygon class="cls-5" points="74.94 9.72 75.2 9.49 72.93 6.23 72.67 6.48 74.94 9.72"/><polygon class="cls-5" points="75.36 3.95 74.84 4.44 75.34 5.61 76.7 8.83 76.97 8.74 75.36 3.95"/><polygon class="cls-5" points="76.79 6.18 77.77 7.64 78.03 7.42 76.3 3.75 75.85 3.82 76.79 6.18"/><polygon class="cls-5" points="78.08 7.02 78.38 6.84 76.95 3.65 76.66 3.69 78.08 7.02"/><polygon class="cls-5" points="80.85 3.02 80.49 3.08 80.42 5.92 80.72 5.92 80.85 3.02"/><polygon class="cls-5" points="82.49 5.17 82.71 5.12 82.37 2.78 82.02 2.84 82.49 5.17"/><polygon class="cls-5" points="90.29 3.73 88.36 6.62 88.54 6.89 90.56 4 90.29 3.73"/></g></g></svg>