<svg xmlns="http://www.w3.org/2000/svg" viewBox="0 0 88.75 71.15"><defs><style>.cls-1{fill:#d1976b;}.cls-2{fill:#e5c2aa;}.cls-3{fill:#172b2a;}.cls-4{fill:#d8a97c;}.cls-5{fill:#f9d9b9;}.cls-6{fill:#261c1b;}.cls-7{fill:#6d5652;}</style></defs><g id="Layer_2" data-name="Layer 2"><g id="Layer_1-2" data-name="Layer 1"><polygon class="cls-1" points="62.3 41.44 65.1 45.32 67.99 48.48 69.88 49.84 71.51 51.73 71.96 55.26 70.42 61.49 69.79 64.01 67.44 65.01 66.36 67.08 66.27 67.81 68.53 67.99 70.78 67.81 71.51 65.91 71.51 65.37 72.95 64.64 73.31 62.75 73.58 58.6 74.76 54.17 73.22 40.18 63.29 37.29 62.3 41.44"/><polygon class="cls-1" points="30.34 36.48 31.39 42.92 32.2 47.48 31.84 49.73 32.68 52.19 33.41 53 34.13 58.05 34.4 61.94 34.22 63.56 32.59 65.19 31.87 65.91 31.6 66.99 33.31 67.63 36.66 67.26 37.56 61.03 37.38 46.14 35.39 38.1 30.34 36.48"/><polygon class="cls-2" points="1.9 21.4 0 19.5 0.18 17.7 3.52 12.64 4.51 11.11 5.14 9.84 6.23 7.58 6.68 6.77 10.47 3.97 15.98 3.61 23.83 7.04 33.13 12.55 36.84 14.27 40.36 15.35 42.98 16.79 51.73 18.15 64.1 17.79 70.51 16.79 75.3 18.87 81.26 24.02 83.15 30.16 83.69 36.3 83.42 44.78 84.69 50.83 83.97 51.28 82.88 46.14 82.07 41.17 82.07 36.12 80.08 41.08 77.83 44.51 77.65 49.3 79 52.91 79.72 54.08 79.45 55.53 77.65 64.01 77.19 67.45 76.02 67.99 75.57 69.25 75.21 70.42 72.68 71.15 70.6 70.52 71.24 68.62 72.5 67.63 73.13 66.72 74.76 62.48 74.67 56.43 73.4 53.36 71.78 47.4 70.15 43.16 68.26 41.44 66.72 41.35 64.64 42.16 63.02 42.89 53.54 43.52 47.22 42.71 42.16 40.27 40.63 40.54 40 41.62 39.36 46.32 39.36 52.46 38.91 53.36 39.19 62.57 39.82 65.73 38.91 66.36 38.01 67.81 37.92 69.52 35.03 70.42 33.41 70.24 33.5 68.71 34.67 67.45 35.84 66.36 36.2 63.56 36.29 59.5 35.75 53.27 34.58 51.28 34.85 48.84 34.13 44.42 32.95 40.99 30.52 39.37 29.16 37.38 27.09 32.32 23.02 30.25 19.59 25.82 15.98 19.5 14.35 16.07 12.28 18.33 9.21 19.5 7.31 20.14 6.23 21.22 5.78 21.94 4.33 22.66 3.52 22.93 2.89 21.94 1.9 21.4"/><polygon class="cls-3" points="85.23 50.29 83.69 51.01 83.24 53 84.33 56.43 85.95 58.69 87.85 59.86 88.75 59.5 87.76 58.69 86.58 56.7 86.4 54.35 86.14 51.55 85.23 50.29"/><polygon class="cls-4" points="68.8 41.26 67.35 40.36 65.82 39.01 65.19 34.85 65.01 32.32 61.3 33.5 54.62 35.3 46.86 34.76 44.96 34.49 43.16 34.85 41.89 35.21 40.51 34.88 40.18 37.29 39.19 39.91 38.37 40.81 36.48 40.54 35.66 37.74 35.6 33.84 34.31 33.59 31.96 29.8 30.06 27.63 26.09 26.09 19.68 20.59 15.32 15.2 14.47 16.32 15.98 19.5 19.59 25.82 23.02 30.25 27.09 32.32 29.16 37.38 30.52 39.37 32.95 40.99 33.04 41.23 33.5 41.35 37.02 42.16 38.01 43.88 37.83 50.47 37.02 53.09 37.74 59.95 38.28 64.83 37.56 67.08 38.06 67.73 38.91 66.36 39.82 65.73 39.19 62.57 38.91 53.36 39.36 52.46 39.36 46.32 40 41.62 40.63 40.54 42.16 40.27 47.22 42.71 53.54 43.52 63.02 42.89 64.64 42.16 66.72 41.35 68.26 41.44 68.86 41.99 68.8 41.26"/><polygon class="cls-5" points="75.3 18.87 70.51 16.79 64.1 17.79 51.73 18.15 42.98 16.79 40.36 15.35 36.84 14.27 33.13 12.55 23.83 7.04 16.82 3.98 17.13 4.97 20.92 6.83 25.43 9.54 29.28 12.73 33.62 14.66 35.78 16.1 39.4 17.36 42.28 18.81 47.34 19.83 55.59 20.19 60.52 20.07 65.82 19.41 69.49 18.93 73.89 19.71 77.38 22.36 80.2 24.95 81.99 26.39 81.26 24.02 75.3 18.87"/><polygon class="cls-4" points="12.07 15.8 9.9 17.49 7.13 18.93 5.33 20.74 2.86 21.92 2.89 21.94 3.52 22.93 4.33 22.66 5.78 21.94 6.23 21.22 7.31 20.14 9.21 19.5 12.28 18.33 13.91 16.55 13.91 16.52 13.99 13.51 13.15 13.51 12.07 15.8"/><polygon class="cls-4" points="82.93 29.44 82.69 28.66 82.52 29.8 80.72 36.12 76.92 42.53 76.38 46.05 76.92 51.19 78.64 54.71 77.56 60.67 76.56 66.81 75.57 67.72 76.26 67.88 77.19 67.45 77.65 64.01 79.45 55.53 79.72 54.08 79 52.91 77.65 49.3 77.83 44.51 80.08 41.08 81.91 36.52 82.88 32.68 82.93 29.44"/><polygon class="cls-4" points="75.75 58.05 75.66 54.71 74.31 51.46 73.67 45.59 71.6 41.44 69.25 37.83 68.17 34.22 67.89 32.14 67.17 32.41 67.53 36.12 68.71 39.01 69.7 41.62 69.7 42.75 70.15 43.16 71.78 47.4 73.4 53.36 74.67 56.43 74.75 62.32 75.21 62.03 75.75 58.05"/><polygon class="cls-4" points="11.92 5.24 13.99 4.88 19.48 5.14 15.98 3.61 10.47 3.97 6.68 6.77 6.23 7.58 5.14 9.84 4.51 11.11 3.52 12.64 0.18 17.7 0 19.5 0.13 19.63 3.25 14.99 5.87 11.83 7.4 11.2 9.12 10.65 10.02 9.48 9.3 7.67 9.84 6.68 11.92 5.24"/><polygon class="cls-3" points="38.98 32.11 38.43 33.98 37.53 36.33 36.99 36.99 37.47 37.17 38.43 36.15 38.79 35.36 40.78 35.6 41.74 36.75 41.98 36.33 41.08 35.06 39.88 34.4 39.76 33.2 39.82 31.51 39.94 28.68 39.45 28.68 38.98 32.11"/><polygon class="cls-3" points="35.06 44.93 36.51 44.75 38.07 45.11 38.79 45.48 38.85 46.02 37.77 45.54 35.66 45.48 35 45.66 35.06 44.93"/><polygon class="cls-3" points="36.14 51.19 38.13 50.95 38.79 51.25 38.79 51.62 37.83 51.49 35.91 51.67 36.14 51.19"/><polygon class="cls-3" points="36.27 52.94 37.47 53 38.61 53 38.61 53.48 36.93 53.48 36.2 53.24 36.27 52.94"/><polygon class="cls-3" points="36.74 55.11 37.71 54.92 38.43 54.63 38.43 54.92 37.53 55.35 36.74 55.47 36.74 55.11"/><polygon class="cls-3" points="36.69 56.67 37.59 56.61 38.13 56.37 38.13 56.79 36.74 56.97 36.69 56.67"/><path class="cls-3" d="M71.06,43.67l.66-1,2.23-1s2-.36,2.28-.36,2.35-.6,2.35-.6L80,40.36l-.3.66-2.1,1.14-2.35.43-2.71,1-.9.72Z"/><path class="cls-3" d="M71.9,45.66l1.68-.25s1.57-.84,1.75-1,1.38-.72,1.38-.72l1-.36-.42.66L75,45.48l-.91.84-1.26-.06L72,46.14Z"/><polygon class="cls-3" points="75.51 55.47 76.41 55.65 77.8 55.35 79.06 54.69 78.94 55.29 78.04 55.95 76.23 56.31 75.63 56.13 75.51 55.47"/><polygon class="cls-3" points="75.51 58.42 76.53 58.18 77.86 57.75 78.7 57.27 78.22 58.12 76.65 58.6 75.27 58.96 75.51 58.42"/><polygon class="cls-3" points="2.8 16.7 4.12 15.2 5.75 13.63 6.47 12.79 7.07 12.01 8.15 12.01 10.14 12.55 11.23 11.89 11.89 10.56 11.77 9.84 12.01 9.24 12.61 8.04 13.21 7.68 13.57 8.22 12.61 8.94 12.13 9.78 12.25 10.74 12.01 11.53 11.28 12.31 10.5 12.67 8.88 12.61 7.67 12.55 6.65 13.15 4.97 14.72 2.92 16.95 2.8 16.7"/><polygon class="cls-3" points="6.77 20.14 5.87 18.93 6.05 17.55 4.78 16.89 4.42 16.7 1.84 16.34 1.56 15.61 0.18 17.7 0 19.5 1.9 21.4 2.89 21.94 3.52 22.93 4.33 22.66 5.78 21.94 6.23 21.22 7.09 20.35 6.77 20.14"/><polygon class="cls-3" points="5.14 9.84 4.51 11.11 3.52 12.64 1.38 15.88 1.53 16.1 3.4 13.63 4.85 11.29 5.99 9.84 6.17 8.7 6.17 7.71 5.14 9.84"/><polygon class="cls-3" points="7.13 7.07 7.61 8.82 7.13 9.96 5.87 11.17 4.72 12.55 3.52 14.12 2.44 15.5 1.59 16.4 1.9 16.58 3.82 14.66 5.14 13.09 6.35 11.83 7.19 11.17 8.04 10.56 8.28 9.18 7.97 7.5 7.31 6.31 6.91 6.6 7.13 7.07"/><polygon class="cls-3" points="9.6 7.92 9.18 6.41 8.52 5.57 8.41 5.5 7.94 5.84 8.4 6.23 8.88 7.68 9.12 9.12 9.6 9.24 9.6 7.92"/><polygon class="cls-3" points="9.8 4.47 9.28 4.85 9.78 5.27 10.2 6.35 10.14 7.86 10.08 8.52 10.38 8.7 10.62 7.37 10.62 5.93 10.14 4.72 9.8 4.47"/><polygon class="cls-3" points="11.83 4.84 11.65 6.53 11.23 7.98 11.16 8.58 11.47 9.12 11.95 7.92 12.25 6.47 12.25 5.63 12.13 4.48 11.91 3.88 11.54 3.9 11.83 4.84"/><polygon class="cls-3" points="6.59 16.52 5.27 17.49 5.57 17.61 6.29 17 7.01 17 7.79 17.43 8.15 18.27 7.85 19.77 7.64 20.03 8.06 19.89 8.28 19.65 8.64 18.57 8.46 17.12 6.59 16.52"/><polygon class="cls-3" points="9.6 15.86 8.04 15.5 5.87 16.16 4.54 17.19 4.78 17.31 6.05 16.34 7.07 16.1 8.28 16.1 9.12 16.4 10.08 17.36 9.9 18.57 9.58 19.36 10.3 19.09 10.62 18.57 10.8 17.25 10.56 16.34 9.6 15.86"/><polygon class="cls-3" points="11.23 13.51 9.72 13.15 7.79 13.69 5.63 15.2 3.82 16.95 4.18 17.12 5.09 16.1 6.29 15.14 8.1 14.18 9.54 13.87 10.62 14.05 11.65 15.02 11.83 16.76 11.45 18.64 12.28 18.33 12.4 18.2 12.61 17.07 12.61 16.22 12.37 14.78 11.23 13.51"/><polygon class="cls-3" points="15.02 8.88 13.57 11.23 12.97 13.51 13.21 15.44 13.34 17.17 13.88 16.58 13.75 15.2 13.81 13.21 14.11 12.07 14.72 10.38 15.44 8.64 15.86 7.37 15.5 7.43 15.02 8.88"/><polygon class="cls-3" points="18.39 4.67 17.85 6.71 16.82 8.34 16.04 10.69 15.38 13.75 14.66 15.8 14.47 16.31 14.68 16.76 15.14 15.8 16.16 12.67 16.7 10.02 17.97 7.98 18.69 6.53 18.96 4.91 18.39 4.67"/><polygon class="cls-3" points="21.02 5.81 19.77 5.27 19.53 6.95 18.21 9.42 18.03 12.07 17.36 14.72 15.27 18 15.55 18.59 16.52 17.73 18.15 14.9 18.99 10.99 19.71 8.64 21.02 5.81"/><polygon class="cls-3" points="22.03 6.25 21.7 7.79 20.37 9.84 19.59 13.51 18.93 17.79 16.98 21.26 18.01 23.06 19.17 21.82 20.43 17.55 20.98 11.41 21.76 9.3 22.48 7.31 22.65 6.53 22.03 6.25"/><polygon class="cls-3" points="25.38 7.96 25.01 9.48 23.99 11.77 23.39 14.42 23.2 17 21.7 21.34 20.62 23.08 18.95 24.7 19.59 25.82 19.92 26.25 21.04 25.67 23.02 22.6 23.93 17.73 24.53 12.31 25.91 8.27 25.38 7.96"/><polygon class="cls-3" points="30.07 21.58 31.75 17.67 33.2 13.51 33.45 12.7 33.13 12.55 32.8 12.35 32.17 14 30.61 17.79 28.92 20.86 28.02 22.18 27.6 21.88 28.68 18.51 29.64 12.43 29.81 10.58 28.88 10.03 28.5 12.97 27.54 17.25 25.61 22.24 24.05 25.31 22.9 27.36 22.78 29.93 23.02 30.25 25.19 31.36 25.61 29.16 27.12 25.91 30.07 21.58"/><polygon class="cls-3" points="29.22 32.71 31.09 29.22 33.14 22 34.58 17.19 35.54 13.66 34.89 13.36 33.86 16.16 31.63 23.21 30.67 26.09 29.82 28.92 28.44 31.63 27.15 32.49 27.64 33.69 29.22 32.71"/><path class="cls-3" d="M38.89,14.9l-1.3-.4-1.14,4.07-1,4.94L34.4,28.14,33.8,32l-1.39,1.57A17.66,17.66,0,0,1,30.91,35l-2.36.9.61,1.48.92,1.34,1.31-1.31,1.86-2.29,1.63-3,.84-6,1-5.17L38,17.42Z"/><polygon class="cls-3" points="41.33 15.89 40.86 15.63 40 17.13 39.27 19.35 38.85 24.47 38.37 27.12 36.74 31.15 35.54 35 33.68 39.03 32.27 40.53 32.65 40.79 33.92 39.52 34.7 38.25 35.84 36.93 36.56 34.4 37.29 31.57 38.43 28.68 39.64 25.73 39.88 21.46 40.72 17.31 41.33 15.89"/><polygon class="cls-3" points="42.52 19.59 43.34 16.85 42.98 16.79 42.44 16.5 41.98 19.11 40.66 24.05 40.72 27.72 41.2 31.03 42.47 34.94 43.31 37.59 43.06 40.7 43.41 40.87 43.91 37.29 42.83 33.86 41.44 27 41.68 23.45 42.52 19.59"/><polygon class="cls-3" points="44.37 17.01 43.73 18.93 43.49 23.39 43.97 27.06 44.81 31.51 45.96 35.42 45.9 38.37 45.24 41.75 45.86 42.05 46.8 37.89 46.62 34.4 45.66 30.43 44.75 25.19 44.57 20.5 45.82 17.23 44.37 17.01"/><polygon class="cls-3" points="48.06 23.08 47.46 19.77 47.85 17.55 47.11 17.43 46.38 20.62 47.28 26.27 49.45 32.17 49.93 35.72 49.63 39.4 48.51 42.87 49.87 43.05 50.83 41.62 51.85 37.17 52.16 33.02 50.17 28.44 48.06 23.08"/><path class="cls-3" d="M56.07,21.82,56.91,20l1.56-2-1,0-.53.59L55.71,21.1l-.79,2.53-1,2.28-1.14-2.28-.6-3-.09-2.48h-.4l-2.66-.41.14,2.45,1.92,4.58,1.63,3.55,1.68,3.13.67,4.09v2.23l-.25,3.31-.59,2.39,1.8-.12c.45-1,1-2.22,1-2.33s.42-4.33.42-4.33l-1-5.36-1.81-3.55L55.16,26Z"/><polygon class="cls-3" points="40.4 40.92 39.76 40.36 38.61 39.88 36.51 39.76 34.52 41.14 33.98 41.68 34.34 42.23 35 41.62 36.63 41.02 38.07 40.78 39.64 41.02 40.12 41.4 40.4 40.92"/><polygon class="cls-3" points="39.27 43.73 38.19 42.95 36.81 42.53 34.82 43.01 34.76 43.49 36.33 43.19 37.83 43.37 38.91 44.15 39.6 44.57 39.66 44.08 39.27 43.73"/><polygon class="cls-3" points="37.59 47.1 36.56 47.04 35.36 47.34 35.48 48.06 35.78 47.76 36.99 47.64 38.67 47.64 39.36 47.64 39.36 47.15 39.27 47.16 37.59 47.1"/><polygon class="cls-3" points="39.36 49.84 39.36 49.2 38.31 48.97 36.69 49.03 35.36 49.57 35.72 50.41 36.93 49.87 38.67 49.69 39.36 49.84"/><polygon class="cls-3" points="66.12 20.25 68.35 18.33 70.75 16.9 70.51 16.79 65.93 17.5 63.83 18.99 61.79 22.36 60.82 27.66 60.28 32.53 59.8 36.69 59.44 39.82 58.19 43.21 59.28 43.13 60.22 40.72 61.06 36.87 62.21 28.44 64.01 23.81 66.12 20.25"/><polygon class="cls-3" points="76.84 20.2 75.3 18.87 74.49 18.52 71.54 19.17 68.41 21.94 66.24 25.37 64.67 29.89 63.89 32.9 63.35 35.84 62.69 38.73 61.73 41.14 60.83 43.03 61.88 42.96 64.01 39.27 65.52 33.5 67.5 27.3 70.15 23.63 72.44 20.92 75.69 20.32 76.84 20.2"/><path class="cls-3" d="M80.05,23l-1.41,1.08-4.4,1.74-2.76,1.69-2.11,2.29L67,35.54S65.22,38.85,65.1,39s-.93,2.21-1.5,3.6l1.05-.47.07,0,.56-1.23,2.1-3.73,2.05-4.52,1.93-2.88,3.19-2s3.67-1.45,3.91-1.45a20,20,0,0,0,2.29-1.2l.71-.46-.2-.65Z"/><path class="cls-3" d="M82.27,27.29l-1.7,1.21L77,30.67l-2.77,1.14L72.38,33,70.45,34.7l-1.86,3.73-1,3,.56,0L70,37.53l1.87-2.77s3.25-1.62,3.43-1.68l3.43-1.27,3.25-1,1.06-.91Z"/><path class="cls-3" d="M82.21,35.29l-2.07,1.28c-.18.12-2.34.66-2.34.66l-2.41.3-3,.72-2.11,1.93-1,2.27.36.32.12-.36,1.21-1.57,1.74-1L76.35,39l3.92-.48,1.19-.85.61-1.52Z"/><polygon class="cls-3" points="76.71 47.82 77.74 46.87 77.76 46.26 76.59 47.16 75.39 48.06 73.94 48.37 72.32 48.12 72.68 48.73 73.89 49.03 75.39 48.97 76.71 47.82"/><polygon class="cls-3" points="77.66 49.05 77.68 48.5 76.53 49.51 75.33 50.17 73.7 50.17 73.83 50.71 74.55 50.83 76.71 49.99 77.66 49.05"/><polygon class="cls-3" points="77.56 52.34 78.37 51.23 78.17 50.68 77.56 51.44 76.96 52.1 75.81 52.7 74.49 52.82 74.73 53.54 76.05 53.48 77.56 52.34"/><polygon class="cls-3" points="60.25 17.9 59.26 19.53 58.66 22.9 58.12 26.09 57.99 28.38 57.27 30.31 57.51 31.45 58.54 29.4 59.32 26.21 60.1 21.46 61.48 18.63 62.18 17.84 60.25 17.9"/><path class="cls-6" d="M55.24,43.41l.83-.06c.45-1,1-2.22,1-2.33s.42-4.33.42-4.33l-.37-2.07-2.09.57.06.35v2.23l-.25,3.31-.59,2.39Z"/><polygon class="cls-7" points="49.19 19.91 52.2 20.05 52.13 18.14 51.73 18.15 49.06 17.74 49.19 19.91"/><polygon class="cls-7" points="57.5 17.98 56.97 18.57 56.17 20.18 56.81 20.16 56.91 19.95 58.47 17.95 57.5 17.98"/><polygon class="cls-7" points="62.18 17.84 60.25 17.9 59.26 19.53 59.16 20.11 60.52 20.07 60.8 20.04 61.48 18.63 62.18 17.84"/><polygon class="cls-7" points="63.83 18.99 63.39 19.72 65.82 19.41 67.32 19.21 68.35 18.33 70.75 16.9 70.51 16.79 65.93 17.5 63.83 18.99"/><polygon class="cls-6" points="61.3 33.5 60.13 33.81 59.8 36.69 59.44 39.82 58.19 43.21 59.1 43.15 59.28 43.13 60.22 40.72 61.06 36.87 61.53 33.42 61.3 33.5"/><polygon class="cls-6" points="65.18 34.79 65.01 32.32 63.95 32.66 63.89 32.9 63.35 35.84 62.69 38.73 61.73 41.14 60.83 43.03 61.88 42.96 64.01 39.27 65.18 34.79"/><polygon class="cls-7" points="71.54 19.17 71.42 19.27 73.89 19.71 74.88 20.47 75.69 20.32 76.84 20.2 75.3 18.87 74.49 18.52 71.54 19.17"/><path class="cls-6" d="M65.28,40.9l.89-1.58L65.82,39l-.16-1c-.29.55-.52,1-.56,1s-.93,2.21-1.5,3.6l1.05-.47.07,0Z"/><path class="cls-7" d="M79,23.81,80.2,25l.36.29.19-.11.71-.46-.2-.65L80.05,23Z"/><polygon class="cls-6" points="68.17 34.22 68.01 33.03 67.38 34.54 67.53 36.12 67.69 36.5 68.39 34.96 68.17 34.22"/><polygon class="cls-6" points="69.11 37.38 68.59 38.43 68.54 38.58 68.71 39.01 68.98 39.72 69.62 38.4 69.25 37.83 69.11 37.38"/><polygon class="cls-6" points="67.84 40.66 67.6 41.4 68.16 41.44 68.37 40.99 67.84 40.66"/><polygon class="cls-6" points="49.83 34.97 49.93 35.72 49.63 39.4 48.51 42.87 49.14 42.95 49.87 43.05 50.83 41.62 51.85 37.17 52 35.12 49.83 34.97"/><polygon class="cls-7" points="47.85 17.55 47.11 17.43 46.59 19.68 47.34 19.83 47.47 19.84 47.46 19.77 47.85 17.55"/><polygon class="cls-6" points="45.24 41.75 45.86 42.05 46.8 37.89 46.63 34.73 45.71 34.6 45.96 35.42 45.9 38.37 45.24 41.75"/><polygon class="cls-7" points="44.72 17.06 44.37 17.01 43.73 18.93 43.72 19.1 45 19.36 45.82 17.23 44.72 17.06"/><polygon class="cls-6" points="43.91 37.29 43.14 34.86 42.49 35.04 43.31 37.59 43.06 40.7 43.16 40.75 43.41 40.87 43.91 37.29"/><polygon class="cls-7" points="42.06 18.7 42.28 18.81 42.73 18.9 43.34 16.85 42.98 16.79 42.44 16.5 42.06 18.7"/><polygon class="cls-7" points="40 17.13 39.85 17.59 40.59 17.96 40.72 17.31 41.33 15.89 40.86 15.63 40 17.13"/><polygon class="cls-6" points="34.7 38.25 35.65 37.15 35.61 34.77 35.54 35 33.68 39.03 32.27 40.53 32.65 40.79 33.92 39.52 34.7 38.25"/><polygon class="cls-7" points="38.14 16.93 38.89 14.9 37.88 14.59 37.59 14.5 37.02 16.53 38.14 16.93"/><path class="cls-6" d="M33.25,35.12l.94-1.73-.67-1.08-1.11,1.25A17.66,17.66,0,0,1,30.91,35l-2.36.9.61,1.48.92,1.34,1.31-1.31Z"/><polygon class="cls-6" points="27.64 33.69 29.22 32.71 31.09 29.22 31.18 28.9 30.17 27.75 29.82 28.92 28.44 31.63 27.15 32.49 27.64 33.69"/><polygon class="cls-7" points="35.54 13.66 35.51 13.65 34.89 13.36 34.26 15.08 35.02 15.59 35.54 13.66"/><polygon class="cls-6" points="40.95 34.99 40.51 34.88 40.42 35.56 40.78 35.6 41.74 36.75 41.98 36.33 41.08 35.06 40.95 34.99"/><polygon class="cls-6" points="40.24 41.21 40.4 40.92 39.76 40.36 39.05 40.06 38.37 40.81 36.48 40.54 36.29 39.91 34.52 41.14 34.16 41.5 34.93 41.68 35 41.62 36.63 41.02 38.07 40.78 39.64 41.02 40.12 41.4 40.24 41.21"/><polygon class="cls-6" points="38.19 42.95 37.32 42.68 37.7 43.35 37.83 43.37 38.91 44.15 39.6 44.57 39.62 44.42 39.66 44.08 39.27 43.73 38.19 42.95"/><polygon class="cls-6" points="38.07 45.11 37.98 45.09 37.96 45.62 38.85 46.02 38.79 45.48 38.07 45.11"/><polygon class="cls-6" points="39.36 47.15 39.27 47.16 37.92 47.11 37.91 47.64 38.67 47.64 39.36 47.64 39.36 47.15"/><polygon class="cls-6" points="39.36 49.2 38.31 48.97 37.87 48.98 37.85 49.77 38.67 49.69 39.36 49.84 39.36 49.2"/><polygon class="cls-6" points="37.66 51.01 37.5 51.52 37.83 51.49 38.79 51.62 38.79 51.25 38.13 50.95 37.66 51.01"/><polygon class="cls-6" points="37.05 52.98 37.02 53.09 37.06 53.48 38.61 53.48 38.61 53 37.47 53 37.05 52.98"/><polygon class="cls-6" points="37.22 55.02 37.26 55.39 37.53 55.35 38.43 54.92 38.43 54.63 37.71 54.92 37.22 55.02"/><polygon class="cls-6" points="38.13 56.79 38.13 56.37 37.59 56.61 37.39 56.62 37.42 56.88 38.13 56.79"/><path class="cls-6" d="M82.18,35.46l0-.17-1.58,1-1.4,2.36,1-.13,1.19-.85.45-1.12Z"/><polygon class="cls-6" points="71.16 40.78 70.61 39.92 70.33 40.18 69.7 41.68 69.7 42.75 69.73 42.77 69.85 42.41 71.06 40.84 71.16 40.78"/><path class="cls-6" d="M77.56,42.16,79.66,41l.3-.66-1.38.42-.75.21-.74,1.26Z"/><polygon class="cls-6" points="72.63 43.5 72.14 42.52 71.72 42.71 71.06 43.67 71.6 44.27 72.5 43.55 72.63 43.5"/><polygon class="cls-6" points="76.63 44.42 77.26 44.03 77.68 43.37 76.74 43.72 76.63 44.42"/><polygon class="cls-6" points="73.67 45.59 73.58 45.41 71.9 45.66 71.96 46.14 72.8 46.26 73.75 46.3 73.67 45.59"/><polygon class="cls-6" points="76.79 49.91 77.66 49.05 77.67 48.59 77.68 48.5 76.73 49.34 76.79 49.91"/><polygon class="cls-6" points="76.5 47.23 76.58 47.94 76.71 47.82 77.74 46.87 77.76 46.26 76.59 47.16 76.5 47.23"/><polygon class="cls-6" points="74.04 49.02 73.97 48.36 73.94 48.37 72.32 48.12 72.68 48.73 73.89 49.03 74.04 49.02"/><polygon class="cls-6" points="74.23 50.78 74.17 50.17 73.7 50.17 73.83 50.71 74.23 50.78"/><polygon class="cls-6" points="77.22 51.8 77.5 52.38 77.56 52.34 78.37 51.23 78.17 50.68 77.56 51.44 77.22 51.8"/><polygon class="cls-6" points="75.16 53.52 74.86 52.78 74.49 52.82 74.73 53.54 75.16 53.52"/><polygon class="cls-6" points="78.47 55.63 78.94 55.29 79.06 54.69 78.6 54.92 78.47 55.63"/><polygon class="cls-6" points="25.61 29.16 26.89 26.4 26.09 26.09 24.39 24.63 24.05 25.31 22.9 27.36 22.78 29.93 23.02 30.25 25.19 31.36 25.61 29.16"/><polygon class="cls-7" points="32.17 14 32.17 14.01 32.91 14.34 33.2 13.51 33.45 12.7 33.13 12.55 32.8 12.35 32.17 14"/><polygon class="cls-7" points="28.88 10.03 28.6 12.17 29.28 12.73 29.58 12.86 29.64 12.43 29.81 10.58 28.88 10.03"/><polygon class="cls-6" points="21.04 25.67 22.67 23.15 21.3 21.98 20.62 23.08 18.95 24.7 19.59 25.82 19.92 26.25 21.04 25.67"/><polygon class="cls-7" points="25.05 9.31 25.43 9.54 25.47 9.57 25.91 8.27 25.38 7.96 25.05 9.31"/><polygon class="cls-6" points="18.31 18.89 16.98 21.26 18.01 23.06 19.17 21.82 19.57 20.45 18.31 18.89"/><polygon class="cls-7" points="22.48 7.31 22.65 6.53 22.03 6.25 21.79 7.36 22.35 7.69 22.48 7.31"/><polygon class="cls-6" points="16.87 17.12 16.29 16.4 15.27 18 15.39 18.25 15.55 18.59 16.52 17.73 16.87 17.12"/><polygon class="cls-7" points="21.02 5.81 20.45 5.57 19.77 5.27 19.64 6.2 20.62 6.69 21.02 5.81"/><polygon class="cls-6" points="15.32 15.2 14.47 16.31 14.68 16.76 15.14 15.8 15.33 15.21 15.32 15.2"/><polygon class="cls-7" points="18.96 4.91 18.39 4.67 18.18 5.48 18.81 5.8 18.96 4.91"/><polygon class="cls-6" points="13.15 13.51 13.01 13.81 13.21 15.44 13.34 17.17 13.72 16.76 13.88 16.58 13.75 15.2 13.8 13.51 13.15 13.51"/><polygon class="cls-6" points="12.61 17.07 12.61 16.22 12.42 15.06 12.07 15.8 11.75 16.05 11.83 16.76 11.45 18.64 12.28 18.33 12.4 18.2 12.61 17.07"/><polygon class="cls-6" points="10.62 18.57 10.8 17.25 10.7 16.86 10.07 17.35 10.08 17.36 9.9 18.57 9.58 19.36 9.69 19.32 10.3 19.09 10.62 18.57"/><polygon class="cls-6" points="8.28 19.65 8.64 18.57 8.59 18.17 8.13 18.41 7.85 19.77 7.64 20.03 8.06 19.89 8.28 19.65"/><polygon class="cls-6" points="11.83 4.84 11.77 5.34 11.92 5.24 12.2 5.19 12.13 4.48 11.91 3.88 11.57 3.9 11.54 3.9 11.83 4.84"/><polygon class="cls-6" points="9.8 4.47 9.42 4.75 9.28 4.85 9.78 5.27 10.2 6.35 10.2 6.43 10.62 6.14 10.62 5.93 10.14 4.72 9.8 4.47"/><polygon class="cls-6" points="9.3 7.67 9.45 7.39 9.18 6.41 8.52 5.57 8.41 5.5 7.94 5.84 8.4 6.23 8.88 7.68 9.12 9.12 9.6 9.24 9.6 8.43 9.3 7.67"/><polygon class="cls-6" points="6.41 19.65 5.33 20.74 2.86 21.92 2.89 21.94 3.52 22.93 4.33 22.66 5.78 21.94 6.23 21.22 7.09 20.35 6.77 20.14 6.41 19.65"/><polygon class="cls-6" points="1.84 16.34 1.56 15.61 0.18 17.7 0 19.5 0.13 19.63 2.3 16.41 1.84 16.34"/><polygon class="cls-2" points="7.22 7.31 5.24 5.69 4.33 5.15 9.21 1.9 14.27 0 20.58 0.9 25.55 1.9 30.52 5.6 36.93 9.93 39.63 12.28 41.8 14.27 43.52 15.26 42.44 16.88 38.64 15.35 35.03 13.99 29.7 11.11 24.65 8.04 19.95 5.87 16.61 4.33 13.54 4.06 10.65 4.51 8.21 6.23 7.22 7.31"/><polygon class="cls-7" points="7.94 5.84 8.27 6.19 8.72 5.88 6.85 3.47 6.04 4.01 7.94 5.84"/><polygon class="cls-7" points="7.34 7.19 7.66 6.83 7.1 5.84 5.5 4.37 4.89 4.77 7.34 7.19"/><polygon class="cls-7" points="9.27 3.37 8.26 2.53 7.71 2.89 8.91 4.25 9.71 5.18 10.19 4.84 9.27 3.37"/><polygon class="cls-7" points="11.07 2.47 11.65 4.36 12.13 4.28 11.77 2.56 11.3 1.11 10.68 1.34 11.07 2.47"/><polygon class="cls-7" points="14.01 4.11 14.18 1.59 13.96 0.12 12.87 0.52 13.36 2.32 13.44 4.08 13.54 4.06 14.01 4.11"/><polygon class="cls-7" points="16.44 4.32 17.24 2.23 17.32 0.44 16.2 0.28 16.04 2.41 15.42 4.23 16.44 4.32"/><polygon class="cls-3" points="19 0.68 18.78 3.58 18.24 5.08 18.89 5.38 19.8 2.74 20.21 0.85 19 0.68"/><polygon class="cls-3" points="21.33 1.05 21.01 2.47 20.5 3.97 19.78 5.79 19.95 5.87 20.79 6.26 21.34 5.12 22.21 2.5 22.4 1.27 21.33 1.05"/><polygon class="cls-3" points="24.82 1.75 23.92 1.57 23.71 2.47 22.57 5.27 21.93 6.78 22.6 7.09 22.93 6.47 23.99 4.24 24.77 2.35 24.82 1.75"/><polygon class="cls-3" points="26.4 2.53 26.21 3.94 25.79 5.36 25.49 7.37 25.26 8.41 25.8 8.73 26.33 7.98 27.03 6.62 27.99 4.97 28.73 4.27 26.4 2.53"/><polygon class="cls-3" points="30.52 5.6 29.94 5.17 29.46 6.8 29.22 9.36 28.93 10.64 29.7 11.11 29.74 11.13 30.85 8.34 31.72 6.41 30.52 5.6"/><polygon class="cls-3" points="33.62 7.7 33.23 10.08 32.59 12.67 33.37 13.09 34.13 11.38 35.47 8.95 33.62 7.7"/><path class="cls-3" d="M36.93,9.93l-1-.65c-.2.86-.61,2.54-.63,2.61s-.46,1.34-.65,1.91L35,14l.42.16.48-1.39,1.62-2.29Z"/><polygon class="cls-3" points="40 12.62 39.63 12.28 38.38 11.19 37.77 13.06 37.44 14.9 38.64 15.35 38.72 15.38 39.6 14.05 40 12.62"/><polygon class="cls-3" points="41.8 14.27 41.42 13.91 41.17 14.9 40.53 16.11 41.09 16.34 41.71 15.26 42.19 14.49 41.8 14.27"/><polygon class="cls-3" points="42.44 16.88 43.52 15.26 43.14 15.04 42.89 15.74 42.32 16.84 42.44 16.88"/><polygon class="cls-7" points="39.63 12.28 36.93 9.93 30.52 5.6 25.55 1.9 20.58 0.9 14.27 0 9.21 1.9 4.33 5.15 5.24 5.69 5.27 5.72 6.74 4.45 9.81 2.56 12.92 1.47 17.52 1.35 23.04 2.47 26.78 3.78 29.22 6.44 31.57 7.75 34.32 9.69 37.66 12.08 39.11 12.9 40.55 14.16 41.45 14.88 42.77 15.56 43.2 15.73 43.52 15.26 41.8 14.27 39.63 12.28"/><polygon class="cls-2" points="12.82 5.87 14.45 4.51 16.25 2.08 17.52 1.35 18.24 2.35 17.43 5.78 14.81 7.4 13.45 7.13 12.64 7.04 12.82 5.87"/><polygon class="cls-4" points="17.52 1.35 16.25 2.08 14.45 4.51 12.82 5.87 12.72 6.53 14.72 5.81 17 3.76 17.73 2.5 18.09 2.96 18.24 2.35 17.52 1.35"/><polygon class="cls-2" points="11.07 9.65 10.13 9.56 9.09 10.05 8.86 10.68 9.04 11.45 9.9 11.86 11.21 11.23 11.48 10.1 11.07 9.65"/><polygon class="cls-4" points="9.72 11.44 9.01 11.32 9.04 11.45 9.9 11.86 11.21 11.23 11.36 10.62 10.65 11.13 9.72 11.44"/><polygon class="cls-6" points="10.72 9.81 9.61 10.15 9.51 10.63 9.74 10.77 9.64 11.11 10.2 11.11 10.79 10.63 10.98 9.88 10.72 9.81"/><polygon class="cls-5" points="11.48 10.1 11.07 9.65 10.13 9.56 9.09 10.05 8.86 10.68 8.89 10.81 9.3 10.38 9.99 10.11 10.74 9.99 11.47 10.15 11.48 10.1"/><polygon class="cls-7" points="1.26 19.74 1.44 18.75 1.99 18.3 2.59 18.45 2.56 18.93 1.93 19.5 1.26 19.74"/><polygon class="cls-6" points="1.59 19.8 1.65 19.11 1.99 18.78 2.35 18.81 2.56 18.93 2.59 19.26 2.26 19.56 1.59 19.8"/></g></g></svg>