<svg xmlns="http://www.w3.org/2000/svg" viewBox="0 0 126.52 80.18"><defs><style>.cls-1{fill:#ceb197;}.cls-2{fill:#dd7772;}.cls-3{fill:#cc6060;}.cls-4{fill:#ddc4ab;}.cls-5{fill:#594b40;}.cls-6{fill:#3f342c;}.cls-7{fill:#bc9a7e;}.cls-8{fill:#efd3b9;}.cls-9{fill:#191411;}.cls-10{fill:#726156;}.cls-11{fill:#b28056;}.cls-12{fill:#e0b882;}</style></defs><g id="Layer_2" data-name="Layer 2"><g id="Layer_1-2" data-name="Layer 1"><polygon class="cls-1" points="98.23 44.91 100.34 56 99.48 65.56 98.91 69.47 95.75 73.11 95.66 74.06 100.15 74.64 101.96 74.16 101.87 71.58 102.63 69.86 103.68 70.14 103.3 66.8 104.45 62.78 106.64 53.23 101.67 45.01 98.23 44.91"/><polygon class="cls-2" points="84.86 49.22 87.34 53.32 89.73 55.14 89.16 57.43 90.02 58.67 91.83 56.48 93.36 57.15 93.55 59.92 95.08 59.82 95.75 56.48 97.57 55.81 98.71 57.81 99.77 57.34 99.38 55.04 105.02 51.98 100.43 44.53 84.86 49.22"/><polygon class="cls-3" points="93.55 59.92 95.08 59.82 95.75 56.48 97.57 55.81 98.71 57.81 99.77 57.34 99.38 55.04 105.02 51.98 104.35 50.9 101.72 51.84 97.71 52.27 92.69 52.41 88.02 48.26 84.86 49.22 87.34 53.32 89.73 55.14 89.16 57.43 90.02 58.67 91.83 56.48 93.36 57.15 93.55 59.92"/><polygon class="cls-1" points="40.9 48.35 42.24 58.1 43.67 61.45 45.1 69.86 45.58 71 43.67 72.05 41.76 75.11 43.58 75.97 45.87 75.78 47.49 75.49 49.21 71.96 48.35 70.14 48.16 62.5 48.26 50.36 40.9 48.35"/><polygon class="cls-1" points="119.45 21.41 120.5 23.22 121.27 46.54 123.37 55.04 126.52 60.59 124.52 69.09 125.85 71.77 125.09 72.53 121.84 69.09 120.69 56.76 121.27 54.95 119.45 46.92 118.88 26.38 119.45 21.41"/><polygon class="cls-4" points="24.27 5.54 19.78 4.3 10.03 10.32 9.84 11.18 2.58 15.86 0 16.82 0 18.16 0.86 21.98 2.2 23.61 4.01 23.51 4.87 24.56 9.75 24.56 15.1 23.51 16.53 24.75 18.73 28.38 23.89 31.73 30.96 36.51 34.97 44.34 38.51 50.17 41.85 51.7 46.44 53.61 46.92 57.43 48.26 59.25 49.12 68.23 48.26 73.87 47.02 74.83 45.68 79.03 46.82 79.22 47.02 80.18 52.65 79.03 52.65 75.02 53.51 74.06 53.9 72.72 54.95 72.34 53.51 62.59 54.28 58.67 55.81 52.56 68.23 52.27 81.42 50.07 87.53 50.74 99.95 46.16 101.1 46.83 105.69 56.95 106.36 58.39 106.55 60.78 107.41 71 105.69 72.34 105.12 73.58 102.73 76.93 103.01 77.69 109.42 77.69 110.66 75.3 111.04 73.58 113.14 71.77 113.05 70.05 112.67 60.97 116.01 56.76 115.53 53.32 114.48 49.41 119.45 27.91 119.73 20.83 112.38 13.28 102.92 9.65 97.85 9.65 93.46 10.8 77.69 9.46 67.47 10.13 63.07 9.27 54.85 6.69 51.89 6.12 44.63 8.12 38.13 9.17 30.96 8.6 29.05 8.22 24.27 5.54"/><polygon class="cls-5" points="1.39 18.44 2.96 18.01 3.96 18.44 3.1 18.73 2.53 19.3 1.39 18.44"/><polygon class="cls-1" points="41.85 51.7 46.29 53.55 46.39 48.83 44.96 40.8 43.67 39.8 43.53 40.38 44.39 41.52 44.67 46.11 42.24 44.96 39.51 38.65 32.06 31.2 28.48 28.76 25.75 24.75 27.19 22.89 28.91 18.73 28.19 18.01 25.04 21.17 19.73 21.88 14.29 20.88 10.64 21.89 10.61 21.79 8.03 21.79 7.07 22.89 5.68 23.32 4.02 23.51 4.87 24.56 9.75 24.56 15.1 23.51 16.53 24.75 18.73 28.38 23.89 31.73 30.96 36.51 34.97 44.34 38.51 50.17 41.85 51.7"/><polygon class="cls-5" points="50.74 42.05 49.4 42.81 49.4 46.25 51.03 48.45 52.08 47.88 53.32 44.44 52.08 42.72 50.74 42.05"/><polygon class="cls-5" points="69.09 19.21 67.37 20.16 67.27 21.98 67.94 22.74 68.23 24.56 69.38 26.28 71.19 25.8 73.01 23.22 71.48 20.45 69.09 19.21"/><polygon class="cls-5" points="87.44 34.02 85.91 34.02 85.14 35.55 86.67 37.84 89.73 35.65 90.11 34.59 87.44 34.02"/><polygon class="cls-1" points="99.95 46.16 100.95 46.74 99.43 45.1 96.71 44.24 87.53 45.54 77.64 46.97 69.76 47.83 62.3 46.25 59.3 45.1 59.44 42.52 59.58 40.23 58.44 39.37 57.86 41.23 57.29 42.38 57.14 46.97 56.28 50.69 55.82 52.56 68.23 52.27 81.42 50.07 87.53 50.74 99.95 46.16"/><path class="cls-1" d="M119.52,26.18h0l-3,8.89-2.73,8.17-1,7,.43,5.44L111,59.58l-.72,3,.15,5.74.57,3.72-.29,2.3-3.29-1-.72.15,3.91,1.83v0l.38-1.72,2.1-1.81-.09-1.72L112.67,61,116,56.76l-.48-3.44-1-3.91,5-21.5Z"/><path class="cls-5" d="M114.58,30.58l-1.82.57-1.43,1.53s.38,1.91.38,2.2a16.25,16.25,0,0,1-.48,3.63,8.58,8.58,0,0,0-.57,2.1L113,42.33l2.89,1.17,2.44-10.56Z"/><polygon class="cls-6" points="113.94 42.73 115.84 43.51 118.28 32.94 117.4 32.38 116.48 35.07 113.94 42.73"/><path class="cls-7" d="M89.83,48.69l-7,.57s-11.9,1.15-12.47,1.29-9.75,0-9.75,0-2.41.27-4.37.46l-.4,1.55,12.42-.29,13.19-2.2,6.11.67,5-1.84Z"/><path class="cls-7" d="M46.39,50.34c-3.14-.39-4.44-.5-4.44-.5l-4.87-4-3.77-4.73L35,44.34l3.54,5.83,3.35,1.53,4.58,1.91Z"/><polygon class="cls-8" points="112.38 13.28 102.92 9.65 97.85 9.65 93.46 10.8 77.69 9.46 67.47 10.13 63.07 9.27 54.85 6.69 51.89 6.12 44.63 8.12 38.13 9.17 32.94 8.76 34.69 9.65 38.8 10.42 47.59 9.36 53.03 8.6 63.07 11.85 76.25 13.76 85.72 13.19 98.33 12.81 107.22 13.66 112.38 14.91 116.68 18.92 118.49 19.55 112.38 13.28"/><path class="cls-5" d="M70.24,43.29c0-.29-1.82-6.4-1.82-6.4L70,33.07a9.14,9.14,0,0,0-1-2c-.28-.19-4.11-3.15-4.11-3.15l-1.33-3.25,1-4.4,4.59-9.08L68.81,10l-1.34.09-4.4-.86L54.85,6.69l-3-.57L47.78,7.25,47.3,8.31l1.53,3.25L51.22,17v1.24l.1,3.25-.58,3.16L49.5,23.61H47.59l-.48-1.06-.86-2-1.53.29-2-3.15-2.1-5.45L38.51,10,38,9.17l-2.94-.24.18.72L35.07,11l-3.34-.57-1.44-.77V8.47l-1.24-.25L24.27,5.54,22,4.92l-2.61,2L16.91,8.12l-2.2,1.15-1.33,1.82L10.89,12,7.74,15.67l-2,1.53.1,1.72,2.39,2.49.34,3.15H9.75l5.35-1,1.43,1.24.87,1.43,3.43-.66,3.54-.86,3.92-3.16,1.81-1.24,1,.38L31.34,23l.86,2.58-.47,2.77-2.49,3.16-2.48,2.13,3,2,2.05-1.39L34.4,36.6l3.73,4.2,2.1,1.82,3.15.67L45,42s2.48-2.67,2.77-3,5.64-1.91,5.64-1.91l3.82,3.44,1.34,3.15,2.19,2.39L65,48l3.54-1.62A28.85,28.85,0,0,0,70.24,43.29Z"/><polygon class="cls-6" points="40.23 42.62 41.33 42.85 39.51 38.65 32.06 31.2 30.4 30.07 29.24 31.54 26.76 33.67 29.77 35.7 31.82 34.31 34.4 36.6 38.13 40.8 40.23 42.62"/><polygon class="cls-6" points="20.83 25.52 24.37 24.66 27.5 22.14 28.91 18.73 28.19 18.01 25.04 21.17 19.73 21.88 14.29 20.88 10.64 21.89 10.61 21.79 8.26 21.79 8.56 24.56 9.75 24.56 15.1 23.51 16.53 24.75 17.4 26.18 20.83 25.52"/><path class="cls-6" d="M45,40.8l-1.29-1-.14.58.86,1.14,0,.9L45,42l.13-.14Z"/><polygon class="cls-6" points="12.32 12.52 13.86 11.85 15.67 9.65 18.06 10.13 19.11 10.8 22.27 9.27 23.41 8.79 23.89 9.65 20.26 11.56 18.25 12.14 16.72 13.09 14.91 13.09 13.19 13.09 11.75 13.09 11.18 12.71 12.32 12.52"/><polygon class="cls-9" points="15.86 10.51 17.96 11.09 17.39 11.85 16.25 12.33 15.19 12.04 15.57 11.28 15.38 10.51 15.86 10.51"/><polygon class="cls-6" points="57.86 41.23 57.69 41.58 58.58 43.67 59.33 44.49 59.44 42.52 59.58 40.23 58.44 39.37 57.86 41.23"/><polygon class="cls-6" points="62.3 46.25 60.22 45.46 60.77 46.06 64.98 47.97 66.7 47.18 62.3 46.25"/><polygon class="cls-10" points="47.3 8.31 47.78 9.34 53.03 8.6 63.07 11.85 68.45 12.63 69.19 11.18 68.81 10.04 67.47 10.13 63.07 9.27 54.85 6.69 51.89 6.12 47.78 7.25 47.3 8.31"/><polygon class="cls-10" points="38.8 10.42 38.87 10.41 38.51 10.03 38.02 9.16 37.03 9.09 35.08 8.93 35.26 9.65 35.25 9.76 38.8 10.42"/><polygon class="cls-5" points="112.38 13.28 102.92 9.65 97.85 9.65 93.46 10.8 85.49 10.12 84.09 10.7 81.32 11.28 80.36 10.99 79.89 11.66 79.22 17.2 80.84 17.49 85.81 19.21 89.44 18.83 92.6 20.16 92.98 22.27 91.07 22.93 87.82 22.27 85.33 23.8 83.81 24.66 84 28.57 85.05 31.15 87.82 30.58 92.21 30.96 93.94 33.92 93.65 35.74 90.02 37.46 90.78 39.56 94.31 39.18 100.43 36.98 103.59 31.15 103.59 27.33 104.16 25.71 107.03 27.62 110.75 23.99 114.58 20.36 112.66 16.82 112.83 13.75 112.38 13.28"/><polygon class="cls-10" points="84.09 10.7 81.32 11.28 80.36 10.99 79.89 11.66 79.66 13.55 85.72 13.19 98.33 12.81 107.22 13.66 112.38 14.91 112.75 15.26 112.83 13.75 112.38 13.28 102.92 9.65 97.85 9.65 93.46 10.8 85.49 10.12 84.09 10.7"/><polygon class="cls-11" points="20.41 6.9 19.21 4.49 17.3 4.11 13.86 4.59 11.75 4.59 10.32 2.29 10.42 0 11.94 1.91 15.29 2.77 19.4 1.53 22.46 2.39 23.7 4.59 23.7 6.4 20.41 6.9"/><polygon class="cls-12" points="23.7 6.28 23.7 4.59 22.46 2.39 19.4 1.53 15.29 2.77 11.94 1.91 10.42 0 10.4 0.36 11.85 2.68 13.95 3.15 19.02 3.35 21.31 5.35 22.12 6.64 23.23 6.47 23.7 6.28"/><polygon class="cls-5" points="20.93 8.22 22.74 6.31 24.27 4.01 28.95 2.39 29.81 3.63 29.91 5.16 25.51 7.74 23.51 9.27 20.93 8.22"/><polygon class="cls-6" points="22.85 7.69 23.7 6.4 25.51 4.68 27.9 3.73 29.24 4.2 28.76 5.26 26.66 6.4 24.79 6.87 22.85 7.69"/></g></g></svg>