<svg xmlns="http://www.w3.org/2000/svg" viewBox="0 0 96.36 62.07"><defs><style>.cls-1{fill:#965427;}.cls-2{fill:#c3773b;}.cls-3{fill:#ad6432;}.cls-4{fill:#dd8b52;}.cls-5{fill:#692300;}.cls-6{fill:#9a3919;}.cls-7{fill:#562d11;}.cls-8{fill:#e8b980;}</style></defs><g id="Layer_2" data-name="Layer 2"><g id="Layer_1-2" data-name="Layer 1"><polygon class="cls-1" points="24.86 59.2 28.13 59.23 29.58 58.35 29.87 56.08 30.87 55.26 31 53.04 30.4 51.48 30.33 46 31.52 41.63 26.81 41.55 22.74 53.7 24.86 59.2"/><polygon class="cls-1" points="75.15 28.48 75.51 32.69 75.48 36.84 78.25 45.39 80.65 49.51 81.42 51.01 81.08 52.5 79.02 54.26 77.2 59.78 74.92 60.93 71.05 60.96 68.67 60.5 69.07 59.01 69.91 57.85 71.13 57.64 72.4 57.59 73.68 57.27 75.64 53.41 74.67 50.3 71.27 45.62 70.29 34.48 73 26.64 75.15 28.48"/><polygon class="cls-2" points="0.06 13.75 0 14.3 0.77 15.36 1.42 16.47 2.36 17.09 2.53 17.59 3.32 19.09 4.15 19.04 7.2 17.7 8.58 19.48 8.56 21.15 8.75 26.08 8.47 27.24 9.13 27.63 10.19 27.2 11.06 29.09 11.27 30.47 12.1 30.98 12.87 31.31 12.48 32.2 12.41 33.36 12.75 32.98 13.3 32.98 13.35 34.25 13.78 35.36 14.18 35.09 15 35.15 15.55 36.76 17.85 40.6 19.11 41.66 20.32 43.83 20.5 48.92 20.63 55.13 19.95 56.51 18.06 57.66 16.16 59.7 16.21 60.47 17.65 60.59 17.93 61.09 23.13 61.13 25.13 60.53 25.32 58.15 26.04 56.77 27.05 55.12 27.45 54.13 26.52 52.18 26.76 48.69 27.46 44.82 28.8 42.67 34.51 42.71 38.21 43.34 40.26 43.08 41.16 41.76 43.26 41.49 47.65 40.31 52.31 38.34 56.04 37.1 59.74 37.95 61.23 39.18 63.02 43.96 64.38 48.4 67.67 52.8 67.72 54.13 63.09 58.52 61.7 58.57 60.87 58.29 59.71 59.05 59.04 59.27 57.98 60.65 57.7 61.37 60.74 61.94 63.28 62.07 66.67 61.15 70.3 57.41 74.15 53.12 73.17 50.4 72.57 41.31 74.22 34.01 74.92 28.81 77.42 36.08 80.25 43.74 84.6 48.04 88.12 50.89 88.52 49.89 82.13 43.98 78.86 36.48 75.88 26.71 71.77 21.09 68.57 18.35 63.33 15.77 61.17 15.53 54.8 16.2 48.15 16.38 36.63 15.8 34.86 14.9 33.38 13.12 31.73 12.06 29.03 9.32 24.79 5.53 20.78 1.18 18.24 0 14.25 0.52 7.86 2.48 7.13 3.8 6.68 5.4 7.5 6.52 6.28 7.78 4.6 9.32 4.21 9.98 0.06 13.75"/><polygon class="cls-3" points="67.27 46.37 65.98 40.93 66.13 35.95 67.04 32.08 67.07 27.2 64.87 25.64 61.65 26.5 59.63 29.25 58.62 31.58 54.07 33.43 46.41 35.7 40.31 35.77 31.46 34.82 23.79 32.24 23.72 32.22 13.78 28.27 8.74 26.15 8.47 27.24 9.13 27.63 10.19 27.2 11.06 29.09 11.27 30.47 12.1 30.98 12.87 31.31 12.48 32.2 12.41 33.36 12.75 32.98 13.3 32.98 13.35 34.25 13.78 35.36 14.18 35.09 15 35.15 15.55 36.76 17.85 40.6 19.11 41.66 20.27 43.75 22.45 40.74 22.41 45.51 23.48 51.83 24 55.26 23.21 58.36 21.21 58.9 19.43 59.99 19.24 61.1 23.13 61.13 25.13 60.53 25.32 58.15 26.04 56.77 27.05 55.12 27.45 54.13 26.52 52.18 26.76 48.69 27.46 44.82 28.8 42.67 34.51 42.71 38.21 43.34 40.26 43.08 41.16 41.76 43.26 41.49 47.65 40.31 52.31 38.34 56.04 37.1 59.74 37.95 61.23 39.18 63.02 43.96 64.38 48.4 67.67 52.8 67.72 54.13 63.69 57.95 64.42 58.2 64.98 57.87 65.75 57.44 68.76 55.57 69.99 53.7 69.45 51.59 67.27 46.37"/><polygon class="cls-3" points="78.08 36.47 76.02 30.25 75.26 28.14 74.15 28.47 73.13 32.34 71.64 40.2 71.94 44.85 72.8 48.29 73.07 48.87 72.57 41.31 74.22 34.01 74.92 28.81 77.42 36.08 78.59 39.24 78.08 36.47"/><polygon class="cls-3" points="74.05 52.85 73.43 52.73 71.31 54.82 67.07 59.22 64.74 60.64 64.33 61.79 66.67 61.15 70.3 57.41 74.15 53.12 74.05 52.85"/><polygon class="cls-3" points="19.22 58.33 18.16 58.94 17.44 59.81 17.36 60.57 17.65 60.59 17.93 61.09 17.88 60.09 19.22 58.33"/><polygon class="cls-3" points="61.53 59.69 60.62 59.6 59.16 59.51 58.83 59.54 58.22 60.33 59.16 59.97 60.86 59.89 61.53 59.69"/><polygon class="cls-4" points="75.88 26.71 71.77 21.09 68.57 18.35 63.33 15.77 61.17 15.53 54.8 16.2 48.15 16.38 36.63 15.8 34.86 14.9 33.38 13.12 33.16 12.98 32.43 14.08 33.66 16.67 39.64 17.46 47.36 18.18 55 18.39 59 17.18 61.91 16.86 64.48 17.79 71.76 22.17 74.97 26.01 76.37 28.93 76.59 29.04 75.88 26.71"/><polygon class="cls-5" points="88.41 49.45 87.79 50.94 89.44 53.28 91.37 53.96 93.98 53.59 96.36 53.49 95.04 51.66 90.63 49.08 88.85 49.12 88.41 49.45"/><polygon class="cls-5" points="52.31 38.34 56.04 37.1 59.74 37.95 61.12 39.09 60.69 37.29 60.46 34.47 60.14 32.72 57.55 33.78 51.97 36.9 48.47 37.96 41.23 38.91 34.27 37.52 31.29 35.51 29.89 32.68 31.24 30.28 31.83 28.7 32.52 25.47 31.71 22.22 31.31 20.47 31.98 19.73 32.74 18.41 33.32 17.58 34.83 16.34 36.16 16.35 36.67 15.8 36.63 15.8 34.86 14.9 33.38 13.12 31.73 12.06 29.03 9.32 24.79 5.53 20.78 1.18 18.24 0 14.25 0.52 7.86 2.48 7.13 3.8 6.68 5.4 7.5 6.52 7.37 6.65 8.39 6.27 9.38 7.03 11.03 9.2 10 13.76 9.14 18.24 8.57 19.8 8.56 21.15 8.75 26.08 8.47 27.24 9.13 27.63 10.19 27.2 11.06 29.09 11.27 30.47 12.1 30.98 12.87 31.31 12.48 32.2 12.41 33.36 12.75 32.98 13.3 32.98 13.35 34.25 13.78 35.36 14.18 35.09 15 35.15 15.55 36.76 17.85 40.6 19.11 41.66 20.32 43.83 20.32 43.99 20.85 43.58 23.02 41.27 24.04 37.79 26.71 37.14 28.86 38.15 29.18 40.23 28.86 42.67 34.51 42.71 38.21 43.34 40.26 43.08 41.16 41.76 43.26 41.49 47.65 40.31 52.31 38.34"/><polygon class="cls-6" points="20.54 15.41 21.65 11.1 19.95 4.77 15.56 3.17 12.56 3.56 10.14 5.46 9.8 7.28 9.74 7.5 11.03 9.2 10 13.76 9.14 18.24 8.57 19.8 8.56 21.15 8.71 25.02 9.51 24.56 10.69 22.91 13.28 20.93 17.86 18.64 20.54 15.41"/><polygon class="cls-6" points="23.43 4.05 25 6.72 28.8 10.48 31.85 13.91 34.66 15.68 35.09 16.34 36.16 16.35 36.67 15.8 36.63 15.8 34.86 14.9 33.38 13.12 31.73 12.06 29.03 9.32 24.79 5.53 23.43 4.05"/><polygon class="cls-6" points="16.49 1.09 18.6 0.17 18.24 0 14.25 0.52 7.86 2.48 7.13 3.8 6.68 5.4 7.5 6.52 7.37 6.65 7.91 6.45 8.32 4.61 12.16 2.31 16.49 1.09"/><polygon class="cls-5" points="14.42 7.73 15.58 7.85 17.01 9.52 17.33 11.73 16.92 14.11 15.8 16.27 15.12 17.87 14.89 18.97 14.74 17.81 15.36 15.88 16.26 13.28 16.17 11.12 15.35 10.06 15 11.05 14.5 12.66 13.88 13.37 13.82 14.37 13.92 15.31 13.64 15.48 13.44 13.48 14 11.82 14.63 9.78 13.91 9.11 14.42 7.73"/><polygon class="cls-5" points="13.36 17.14 13.12 18.96 11.84 19.84 10.5 21.27 9.83 22.54 10.27 22.49 11.78 20.61 12.95 19.79 13.79 19.19 13.96 17.97 13.91 16.81 13.36 17.14"/><polygon class="cls-5" points="12.74 17.85 12.35 18.63 11.63 18.84 10.85 19.17 11.63 18.51 12.47 17.68 12.48 16.35 12.75 16.25 12.74 17.85"/><path class="cls-6" d="M7.71,17.26,6.43,18h0l.77-.34,1.38,1.79v.71h.11s1.29-2,1.35-2.15a7.41,7.41,0,0,0-.38-1.39Z"/><polygon class="cls-4" points="7.16 10.42 7.03 11 6.36 11.2 5.53 11.2 5.03 11.28 5.04 10.9 6 10.41 7.16 10.42"/><polygon class="cls-7" points="6.12 10 7.45 10.09 7.28 10.59 6.45 10.83 5.87 10.58 5.04 10.9 6.12 10"/><polygon class="cls-3" points="6.15 10.11 6.21 9.47 6.6 9.22 7.23 9.67 7.26 10.12 6.15 10.11"/><path class="cls-8" d="M6.13,17.28,5.69,16.2,4.9,15.11s-1.14-.26-1.22-.26l-1.55-.09c-.09,0-.58-.59-.58-.59l-.83.22-.34.44.39.53.65,1.11.94.62.17.5.79,1.5L4.15,19l1.93-.85Z"/><polygon class="cls-5" points="0.02 14.14 0 14.3 0.77 15.36 1.11 15.94 1.19 14.87 1.85 14.29 1.86 13.71 0.44 14.19 0.02 14.14"/><polygon class="cls-4" points="4.29 17.23 4.89 17.24 5.59 17.3 5.91 17.16 6.14 16.48 6.07 15.15 5.53 14.11 4.74 14.39 4.3 14.97 4.48 16.03 4.41 16.8 4.29 17.23"/><path class="cls-7" d="M2,16.86s1.5.26,1.62.26l1.54.06L5.87,17l.08.38-.42.2L5,17.34H4.28l-1-.13-1.12-.05Z"/><polygon class="cls-2" points="11.1 6.82 12.39 8.08 13.21 10.43 14.37 9.24 14.64 7.11 13.77 5.8 12.1 6.16 11.1 6.82"/><polygon class="cls-3" points="11.67 7.37 12.39 8.08 12.83 9.33 13.81 8.02 13.76 7.17 13.07 6.9 11.67 7.37"/><path class="cls-6" d="M20.83,9.21,23,10.56l1,2.22,1.48,2.33.81,2.06.16,1.22S20.79,15.3,20.74,15s-1.47-3.56-1.47-3.56Z"/><path class="cls-6" d="M27.67,17.37l-3-2.68-2-.76-1.56-2.17-.68,2.66-1.26,2.06L16.7,18.71l-.6,1.74s-.76,2.82-.77,3.24a32.9,32.9,0,0,1-1,3.31l-1.43,2.57-1.64.69,0,.21.83.51.77.33-.39.89-.07,1.16.34-.39h.55l0,1.27.43,1.11.4-.27.82.06.55,1.61L16.88,39l.68-1.07L18.24,36a10.9,10.9,0,0,0,1-2,27.44,27.44,0,0,1,.93-2.82l.74,2.16-.68,2.41.66.25,1.51-2.31-.31-3,.19-4.32,1.19-3.06L27,23.1,29.39,22Z"/><polygon class="cls-6" points="21.07 7.3 21.24 8.34 21.78 9.24 22.49 9.83 22.49 9.43 21.96 8.12 21.57 7.17 21.07 7.3"/><polygon class="cls-5" points="20.38 11.37 20.65 11.87 20.14 13.91 19.13 15.79 17.96 16.84 17.01 17.72 16.67 18.27 16.51 18.21 16.9 16.94 18.35 15.56 19.53 13.58 19.93 11.92 20.05 10.7 20.38 11.37"/><path class="cls-5" d="M21.29,15.2l-.79,2,.1,1.66-.07,1.66-.39.88.22.34a5.24,5.24,0,0,0,.56-1c0-.16.52-2.82.52-2.82l.68-2,.45-1.44-.77-.28Z"/><path class="cls-6" d="M24,10.56l.6,1.45.71,1.78,1,1.28,1,1.17.83,1,.32.61.28-.39-1-1.78s-1.59-2.33-1.64-2.5S25,10.85,25,10.85l-.83-1.06-1-1.12L23,10Z"/><polygon class="cls-6" points="14.16 21.46 12.71 22.5 12.48 24.39 11.86 25.77 11.3 26.54 11.41 26.82 12.24 25.94 13.14 23.89 13.98 22.62 14.82 21.8 15.27 20.69 14.16 21.46"/><polygon class="cls-6" points="17.39 3.04 18.28 1.77 19.45 1.61 20.61 2.06 20.44 2.34 19.16 2.39 18.22 3.16 17.39 3.04"/><polygon class="cls-6" points="15.06 2.58 16.12 1.92 17.07 1.49 17.39 1.77 16.62 2.26 16.17 2.7 15.06 2.58"/><polygon class="cls-6" points="28.97 18.24 30.02 19.14 30.67 20.08 30.9 19.86 30.08 18.3 28.97 18.24"/><polygon class="cls-6" points="29.07 19.46 29.18 20.13 30.01 20.35 29.96 19.86 29.07 19.46"/><polygon class="cls-6" points="29.27 23.51 30.25 24.84 30.74 26.51 31.12 27.23 31.51 27.51 31.13 26.23 31.03 24.79 30.54 23.68 29.38 22.79 28.61 23 29.27 23.51"/><polygon class="cls-6" points="28.66 14.64 30.49 15.21 31.31 16.32 31.64 17.15 32.24 17.32 32.52 17.16 32.03 16.71 31.76 15.88 31.04 14.99 30.38 14.37 29.16 14.14 28.39 13.25 27.84 13.97 28.66 14.64"/><polygon class="cls-6" points="24.16 24.3 24.93 25.91 26.03 26.75 27.3 27.48 27.69 27.32 26.2 26.03 26.1 24.98 26.1 24.09 24.16 24.3"/><polygon class="cls-2" points="2.16 15.27 2.08 15.37 2.16 15.45 2.26 15.37 2.16 15.27"/><polygon class="cls-2" points="2.58 15.33 2.47 15.5 2.62 15.6 2.8 15.52 2.72 15.35 2.58 15.33"/><polygon class="cls-2" points="3.16 15.42 3.09 15.58 3.24 15.71 3.4 15.63 3.36 15.42 3.16 15.42"/><polygon class="cls-2" points="3.9 15.47 3.82 15.65 3.94 15.76 4.13 15.73 4.15 15.51 3.9 15.47"/><polygon class="cls-2" points="4.69 15.43 4.65 15.57 4.82 15.6 4.88 15.45 4.84 15.32 4.69 15.43"/><polygon class="cls-2" points="2.38 15.87 2.36 15.97 2.47 15.99 2.57 15.85 2.49 15.72 2.38 15.87"/><polygon class="cls-2" points="3.09 15.9 3.03 16.04 3.15 16.12 3.26 16.08 3.26 15.92 3.09 15.9"/><polygon class="cls-2" points="3.88 16.07 3.84 16.21 4 16.23 4.11 16.09 4.02 16.03 3.88 16.07"/><polygon class="cls-2" points="4.67 16.01 4.56 16.18 4.77 16.3 4.9 16.16 4.81 15.99 4.67 16.01"/><polygon class="cls-2" points="2.61 16.39 2.59 16.49 2.65 16.54 2.73 16.41 2.71 16.31 2.61 16.39"/><polygon class="cls-2" points="3.35 16.46 3.34 16.58 3.38 16.66 3.56 16.65 3.54 16.46 3.48 16.4 3.35 16.46"/><polygon class="cls-2" points="4.33 16.57 4.35 16.73 4.54 16.72 4.52 16.53 4.44 16.48 4.33 16.57"/></g></g></svg>