<svg xmlns="http://www.w3.org/2000/svg" viewBox="0 0 30.56 29.82"><defs><style>.cls-1{isolation:isolate;}.cls-2{fill:#d15d1e;}.cls-3{fill:#c1bcb9;mix-blend-mode:multiply;}.cls-4{fill:#ea773d;}.cls-5{fill:#c1501f;}.cls-6{fill:#a84a20;}.cls-7{fill:#605252;}.cls-8{fill:#332929;}</style></defs><g class="cls-1"><g id="Layer_2" data-name="Layer 2"><g id="Layer_1-2" data-name="Layer 1"><polygon class="cls-2" points="4.93 6.04 4.79 4.71 4.56 3.6 5.02 2.91 5.53 2.82 6.63 4.39 6.35 5.95 4.93 6.04"/><polygon class="cls-2" points="4.38 13.8 5.32 14.61 5.05 15.69 3.9 16.29 2.49 15.35 1.41 14.07 0.81 14 0.81 14.34 0.4 14.27 0 14.61 0.27 15.55 0.54 16.63 1.41 16.96 1.75 17.43 2.69 18.65 6.06 20.46 7.14 20.4 7.41 23.83 8.95 26.32 10.7 27.33 15.89 29.08 18.51 29.22 19.99 28.48 21.61 23.96 22.01 20.26 18.98 15.28 16.43 12.12 14.61 11.78 13.4 11.58 12.45 10.64 10.57 9.63 10.03 8.08 9.02 6.33 7.88 5.59 5.32 5.52 2.29 7.2 0.88 10.1 0.74 10.64 0.4 11.24 1.41 13.19 1.95 13.39 2.22 13.93 2.83 13.87 4.38 13.8"/><polygon class="cls-2" points="12.05 19.12 9.83 19.72 8.75 20.94 8.21 23.02 8.28 24.77 9.02 26.79 9.76 27.87 8.55 27.67 6.46 27.67 5.66 27.87 5.32 29.08 5.79 29.35 5.92 29.82 8.41 29.82 12.52 29.62 15.08 29.55 15.48 28.48 16.43 28.07 17.03 25.78 15.82 23.22 14.2 20.4 12.05 19.12"/><polygon class="cls-3" points="17.03 25.78 16.31 24.25 16.09 24.44 15.82 26.25 14.54 27.53 12.45 27.8 10.43 27.26 9.15 25.18 8.75 22.62 9.3 20.31 8.75 20.94 8.21 23.02 8.28 24.77 9.02 26.79 9.76 27.87 9.01 27.74 9.42 28.14 10.57 28.34 13.19 28.68 13.6 29.42 13.78 29.59 15.08 29.55 15.48 28.48 16.43 28.07 17.03 25.78"/><path class="cls-3" d="M5.6,29.24l.19.11.13.47h.17L6.26,29s.74-.27.81-.47l-1,.13S5.8,29,5.6,29.24Z"/><polygon class="cls-4" points="11.58 19.66 10.03 20.46 9.49 22.55 9.83 24.77 10.77 24.5 10.9 21.34 11.85 20.13 12.25 19.79 11.58 19.66"/><polygon class="cls-3" points="10.64 15.82 9.49 17.17 7.94 18.51 6.06 18.85 3.97 18.38 2.09 16.96 1.75 16.36 0.88 16.16 0.22 15.39 0.27 15.55 0.54 16.63 1.41 16.96 1.75 17.43 2.69 18.65 6.06 20.46 7.14 20.4 7.14 20.49 7.74 20.2 9.02 19.39 9.83 18.11 10.84 16.16 10.64 15.82"/><polygon class="cls-5" points="5.59 14.2 5 14.33 5.32 14.61 5.05 15.69 3.9 16.29 2.93 15.64 3.23 16.22 4.64 16.9 6.66 16.96 6.8 15.95 5.99 14.74 5.59 14.2"/><path class="cls-3" d="M16.43,12.12l-1.82-.34-1.21-.2-.91-.9a2.32,2.32,0,0,1,0,.29c0,.27,1.15,1,1.35,1.08s1.41.81,1.41.81l1.68,2,2.7,3.9,1,4.18L18.92,27.8l-2.08,1.33,1.67.09L20,28.48,21.61,24l.4-3.7-3-5Z"/><polygon class="cls-5" points="5.18 13.33 6.8 12.18 7.74 10.77 8.08 7.47 7.88 6.6 8.41 6.66 8.62 10.91 8.21 12.65 6.66 13.19 5.18 13.33"/><polygon class="cls-4" points="1.41 13.19 1.95 13.39 2.22 13.93 2.83 13.87 4.16 13.81 3.97 12.92 2.83 12.25 2.02 11.11 1.34 9.96 0.91 10.03 0.88 10.1 0.74 10.64 0.4 11.24 1.41 13.19"/><polygon class="cls-4" points="1.41 14.07 1.34 14.06 1.77 14.5 1.41 14.07"/><polygon class="cls-6" points="19.93 28.21 20.87 28.88 22.35 28.74 24.03 25.98 25.98 20.94 24.97 17.03 23.43 13.33 23.7 10.9 24.57 10.57 25.24 12.18 26.99 13.26 29.75 12.32 30.56 7.34 26.52 1.61 21.41 0 17.64 1.14 14.74 5.72 14.4 8.41 15.14 11.51 16.83 13.6 19.79 17.77 21.34 21.27 20.87 25.18 19.93 28.21"/><path class="cls-3" d="M24.57,10.57l.67,1.61L27,13.26l1-.35-.69-.26-1.14-.8-.34-1.75.87-1.95L25.11,5.92l-3-.2s-1.21,2.56-1.28,2.9a40.94,40.94,0,0,0,.87,4s2.09,3.57,2.16,3.84,1.48,4,1.48,4-.15,1.65-.25,2.62L26,20.94,25,17l-1.54-3.7.27-2.43Z"/><path class="cls-3" d="M19.93,28.21l.34.24,1.34-1.93S22.69,24,22.75,23.7s.47-4.38.47-4.38l-1-2.76-3-3.91L16.43,10.1,15.35,7.54s.54-2.83.67-3.1S17.7,1.75,17.7,1.75l.9-.9-1,.29-2.9,4.58L14.4,8.41l.75,3.1,1.68,2.09,3,4.17,1.55,3.5-.47,3.91Z"/><polygon class="cls-2" points="21.41 0 19.79 0.49 21.68 0.88 24.77 1.95 26.86 3.57 28.61 6.8 28.75 8.68 29.75 10.3 29.34 12.46 29.75 12.32 30.56 7.34 26.52 1.61 21.41 0"/><polygon class="cls-4" points="3.03 8.52 3.47 7.64 4.11 7.37 5.12 7.64 5.01 8.38 4.51 8.99 3.74 9.09 3.13 8.72 3.03 8.52"/><polygon class="cls-7" points="4 7.56 3.58 7.78 3.35 8.19 3.22 8.49 3.27 8.64 3.85 8.89 4.41 8.84 4.81 8.46 4.96 8.09 4.99 7.78 4.41 7.53 4 7.56"/><polygon class="cls-8" points="4.29 7.62 3.96 7.67 3.7 7.83 3.6 8.03 3.6 8.33 3.75 8.65 4.02 8.75 4.41 8.7 4.7 8.45 4.75 8.03 4.61 7.74 4.29 7.62"/><polygon class="cls-7" points="4.04 7.91 4 8.11 4.16 8.13 4.27 7.93 4.04 7.91"/><polygon class="cls-6" points="0.4 11.24 0.7 11.82 0.97 11.48 0.94 11.17 1.34 11.07 1.34 10.77 1.11 10.74 0.68 10.74 0.4 11.24"/><polygon class="cls-6" points="1.41 13.19 1.41 13.19 1.83 13.35 2.83 13.33 3.67 13.03 3.8 12.82 3.63 12.72 3.03 13.03 2.12 13.26 1.41 13.19"/><polygon class="cls-4" points="7.99 6.14 9.07 6.42 9.02 6.33 7.88 5.59 5.32 5.52 2.29 7.2 1.62 8.57 2.84 7.3 4.66 6.55 6.53 5.94 7.99 6.14"/><polygon class="cls-2" points="5.72 5.89 6.04 6.3 6.64 6.34 7.78 6.16 8.14 5.25 8.1 3.78 7.92 2.69 7.18 2.64 5.81 3.88 5.86 4.93 5.72 5.89"/><polygon class="cls-4" points="6.54 3.56 6.13 4.1 6.13 5.48 5.92 6.15 6.04 6.3 6.64 6.34 7.04 6.28 7.23 5.16 7.14 4.38 6.54 3.56"/><path class="cls-6" d="M7.66,6.18l.12,0,.36-.91,0-1.47L7.92,2.69l-.74,0L5.81,3.88l.05,1-.14,1L6,6.3H6.1a6.28,6.28,0,0,0,.26-1V4.1L7,3.19l.54-.32.32.41.1,1.24,0,.77Z"/></g></g></g></svg>