<svg xmlns="http://www.w3.org/2000/svg" viewBox="0 0 87.6 64.92"><defs><style>.cls-1{fill:#d77105;}.cls-2{fill:#dba871;}.cls-3{fill:#ee9908;}.cls-4{fill:#e2cd9c;}.cls-5{fill:#f2d9a7;}.cls-6{fill:#563823;}.cls-7{fill:#514339;}.cls-8{fill:#da8640;}.cls-9{fill:#635042;}</style></defs><g id="Layer_2" data-name="Layer 2"><g id="Layer_1-2" data-name="Layer 1"><polygon class="cls-1" points="74.01 3.18 74.39 1.52 75.6 0 76.06 0.45 76.29 3.56 74.01 3.18"/><polygon class="cls-2" points="62.65 41.13 63.86 45.53 64.17 54.01 64.17 58.33 63.94 59.31 65.53 60.38 65.53 61.51 65.83 62.65 67.95 62.95 71.82 62.88 70.07 53.18 67.19 39.92 62.65 41.13"/><polygon class="cls-2" points="23.71 50.07 24.47 51.59 25.98 52.88 27.95 57.2 28.26 59.77 29.02 60.91 29.02 61.89 30.68 62.8 34.32 62.95 35.45 62.19 36.21 62.12 35.83 60.15 34.47 59.47 32.73 58.94 30.53 53.56 30.98 51.97 33.11 49.24 35.61 45.38 36.36 39.85 31.21 40.38 23.71 50.07"/><polygon class="cls-3" points="86.99 12.3 87.6 11.54 87.3 10.4 83.86 7.95 82.58 6.97 82.12 6.06 79.39 4.92 76.59 3.03 73.86 2.73 70.15 5.15 67.12 9.7 63.41 17.27 60.98 18.56 55.15 19.24 50.83 20.45 42.12 20.76 33.03 20.98 27.05 20.53 22.05 21.06 18.11 22.88 15.76 29.24 14.02 36.74 12.12 42.95 10.53 45.45 7.2 46.74 4.4 46.06 2.27 44.24 2.12 41.36 2.04 40.3 0.91 40 0 40.76 0.15 43.48 1.21 46.81 3.87 48.56 7.5 49.09 11.82 48.26 13.94 45.53 15.3 42.73 16.67 37.8 17.2 36.89 18.33 41.06 18.41 45.22 18.11 48.71 15.98 51.44 16.29 53.41 18.18 55.76 20 61.36 21.74 62.19 22.35 63.94 26.82 64.92 28.64 64.39 28.71 63.86 29.47 63.71 29.02 61.89 27.8 60.68 24.7 60.15 23.48 57.65 22.35 53.86 23.64 51.51 27.73 48.94 31.67 45 34.02 42.04 36.44 40.98 39.02 41.29 46.74 43.48 54.85 43.48 61.59 42.27 64.09 41.82 65.45 43.94 66.89 48.56 67.27 56.29 67.04 60.15 68.18 61.36 68.41 63.03 69.62 64.16 73.18 64.39 73.71 63.86 75.3 63.94 76.59 63.48 76.36 61.89 75.22 61.13 73.18 60.07 72.19 56.29 72.27 47.27 73.64 41.44 76.21 34.24 76.97 28.18 76.74 25.98 77.57 21.14 79.39 15.98 80.91 15.83 83.33 17.04 84.77 16.89 85.91 15.83 85.98 14.62 86.99 12.3"/><polygon class="cls-3" points="74.84 4.32 75.6 2.8 77.57 1.21 78.03 1.52 77.12 6.52 76.14 6.14 74.84 4.32"/><polygon class="cls-4" points="20.53 47.4 22.45 40.43 22.95 35.28 19.52 33.05 18 31.54 17 33.46 14.88 40.93 12.85 45.88 10.53 47.5 7.9 47.9 5.08 47.8 1.74 46.19 0.83 43.76 0.83 41.74 0.96 40.01 0.91 40 0 40.76 0.15 43.48 1.21 46.81 3.87 48.56 7.5 49.09 11.82 48.26 13.94 45.53 15.3 42.73 16.67 37.8 17.2 36.89 18.33 41.06 18.41 45.22 18.11 48.71 15.98 51.44 16.29 53.41 16.92 54.19 17 52.24 18.81 49.92 20.53 47.4"/><polygon class="cls-1" points="70.53 55.68 69.52 47.8 69.42 41.34 68.61 37.9 68.41 32.25 67.6 29.01 66.99 27.9 65.68 31.23 64.17 34.27 56.49 36.49 48.41 37.5 38.81 36.59 37.2 35.48 38.41 33.56 41.03 32.35 42.05 30.83 39.12 29.22 32.85 29.62 29.52 31.74 25.88 39.42 25.08 45.07 22.15 49.42 20.53 53.15 21.64 56.49 23.75 58.2 23.48 57.65 22.35 53.86 23.64 51.51 27.73 48.94 31.67 45 34.02 42.04 36.44 40.98 39.02 41.29 46.74 43.48 54.85 43.48 61.59 42.27 64.09 41.82 65.45 43.94 66.89 48.56 67.27 56.29 67.04 60.15 68.18 61.36 68.41 63.03 69.62 64.16 73.15 64.39 73.15 62.45 70.63 60.43 70.53 55.68"/><polygon class="cls-5" points="84.77 16.89 85.91 15.83 85.97 14.8 84.57 14.87 83.46 13.15 81.44 10.73 79.62 11.34 75.78 13.96 75.78 16.99 74.77 25.98 72.85 34.06 72.14 38.61 72.45 42.25 73.1 43.73 73.64 41.44 76.21 34.24 76.97 28.18 76.74 25.98 77.57 21.14 79.39 15.98 80.91 15.83 83.33 17.04 84.77 16.89"/><polygon class="cls-4" points="68.08 61.25 68.31 58.1 68.51 54.97 68.21 48.71 67.09 44.57 64.77 40.53 64.47 38.71 63.86 37.19 62.04 38.41 55.88 39.62 46.19 39.82 39.42 39.22 36.39 37.5 34.98 37.9 32.85 40.73 29.62 44.57 25.48 48.61 22.35 50.53 21.44 53.66 23.16 59.41 24.67 60.43 24.71 60.15 24.7 60.15 23.48 57.65 22.35 53.86 23.64 51.51 27.73 48.94 31.67 45 34.02 42.04 36.44 40.98 39.02 41.29 46.74 43.48 54.85 43.48 61.59 42.27 64.09 41.82 65.45 43.94 66.89 48.56 67.27 56.29 67.04 60.15 68.08 61.25"/><polygon class="cls-1" points="74.47 61.84 73.15 61.44 73.86 62.14 74.57 63.46 74.57 63.9 75.3 63.94 75.33 63.93 75.07 62.75 74.47 61.84"/><polygon class="cls-1" points="28.71 63.05 27 62.04 27.1 62.55 27.91 63.36 28.28 64.49 28.64 64.39 28.71 63.86 28.89 63.83 28.71 63.05"/><polygon class="cls-4" points="34.47 60.53 33.46 60.43 33.46 60.83 34.57 61.34 34.93 62.55 35.45 62.19 35.28 60.93 34.47 60.53"/><polygon class="cls-5" points="80.59 7.8 80.7 8.33 81.31 8.52 82.07 8.52 82.52 8.6 82.52 8.26 81.65 7.8 80.59 7.8"/><polygon class="cls-6" points="81.54 7.42 80.33 7.5 80.48 7.95 81.23 8.18 81.77 7.95 82.52 8.26 81.54 7.42"/><polygon class="cls-1" points="81.51 7.53 81.46 6.94 81.11 6.72 80.53 7.12 80.5 7.53 81.51 7.53"/><polygon class="cls-6" points="87.6 11.54 87.52 11.24 86.73 11.21 86.08 10.91 85.82 11.17 86.42 11.7 86.84 12.08 86.91 12.48 86.99 12.3 87.6 11.54"/><polygon class="cls-7" points="85.02 15.04 85.96 14.96 85.98 14.63 85.36 14.73 84.45 14.77 83.28 14.66 82.26 14.47 81.73 14.7 81.69 14.96 82.64 14.96 83.77 14.92 85.02 15.04"/><polygon class="cls-1" points="77.99 1.72 77.5 2.3 76.79 3.96 77.04 5.53 77.22 5.98 77.99 1.72"/><polygon class="cls-8" points="46.77 30.93 45.91 31.21 45.34 32.11 45.44 33.23 46.2 33.87 47.24 33.8 47.71 32.4 47.67 31.54 46.77 30.93"/><polygon class="cls-7" points="46.27 30.35 46.49 31.32 45.8 32.18 45.34 32.58 44.8 32.15 44.87 31.11 45.62 30.49 46.27 30.35"/><polygon class="cls-7" points="47.46 30.89 46.99 31.32 47.1 32 47.46 32.29 48.03 32.4 48.18 31.61 47.85 30.93 47.46 30.89"/><polygon class="cls-7" points="45.84 33.01 45.19 33.01 44.65 33.41 44.58 34.02 45.41 33.98 45.88 33.66 45.84 33.01"/><path class="cls-7" d="M47.28,33.23l-.54.39-.07.8.64.1s.62-.1.62-.21-.26-.94-.26-.94Z"/><polygon class="cls-8" points="50.12 28.16 49.22 28.55 48.9 29.81 49.47 30.75 50.73 30.28 50.73 28.81 50.12 28.16"/><path class="cls-7" d="M49.76,27.44c0,.11-.11.79-.11.79l.68.5.44-.43-.44-.79Z"/><polygon class="cls-7" points="48.86 28.45 49.44 29.02 49.4 29.81 49.47 30.75 48.79 30.82 48.35 30.21 48.07 28.88 48.86 28.45"/><path class="cls-7" d="M51.16,29.63s-.65,0-.65.15-.1.71-.1.82,0,.58,0,.58l.54-.11a3.2,3.2,0,0,0,.39-.79A3.74,3.74,0,0,0,51.16,29.63Z"/><polygon class="cls-8" points="43.44 26.38 42.75 26.96 42.55 28.01 43.06 29.01 44 29.33 44.94 28.88 44.86 27.4 44.5 26.61 43.44 26.38"/><polygon class="cls-7" points="42.76 26.03 43.32 26.85 43.01 27.91 42.72 28.45 42.06 28.25 41.74 27.25 42.21 26.4 42.76 26.03"/><polygon class="cls-7" points="44.06 26.09 43.79 26.67 44.14 27.26 44.58 27.39 45.16 27.28 45 26.49 44.45 25.98 44.06 26.09"/><polygon class="cls-7" points="43.35 28.66 42.74 28.9 42.39 29.47 42.55 30.06 43.31 29.72 43.62 29.25 43.35 28.66"/><path class="cls-7" d="M44.76,28.33l-.35.57.22.76.65-.14s.52-.33.48-.43-.58-.77-.58-.77Z"/><polygon class="cls-8" points="47.9 25.48 47.01 25.54 46.34 26.5 46.54 27.48 47.76 27.47 48.21 26.22 47.9 25.48"/><path class="cls-7" d="M47.81,24.75c0,.1-.33.64-.33.64l.42.65.5-.24L48.28,25Z"/><polygon class="cls-7" points="46.73 25.33 47.05 26 46.77 26.66 46.54 27.48 45.93 27.33 45.76 26.67 45.93 25.45 46.73 25.33"/><path class="cls-7" d="M48.32,27.06s-.55-.2-.59-.08-.32.58-.35.67l-.21.48.49.07s.53-.39.58-.55A2.9,2.9,0,0,0,48.32,27.06Z"/><polygon class="cls-8" points="52.03 24.65 51.32 24.22 50.35 24.35 49.64 25.09 49.64 26 50.31 26.68 51.56 26.17 52.14 25.64 52.03 24.65"/><polygon class="cls-7" points="52.13 23.96 51.59 24.68 50.58 24.72 50.03 24.63 50.01 24 50.78 23.43 51.65 23.6 52.13 23.96"/><polygon class="cls-7" points="52.46 25.1 51.88 25.04 51.47 25.51 51.49 25.93 51.75 26.4 52.39 26.03 52.67 25.4 52.46 25.1"/><polygon class="cls-7" points="50.03 25.23 49.64 24.79 49.05 24.65 48.59 24.96 49.1 25.51 49.6 25.64 50.03 25.23"/><path class="cls-7" d="M50.73,26.36l-.59-.14-.6.42.31.51s.44.36.51.3a8.08,8.08,0,0,0,.5-.73Z"/><polygon class="cls-8" points="54.16 21.36 53.34 21.73 53.04 22.87 53.57 23.73 54.72 23.3 54.72 21.95 54.16 21.36"/><path class="cls-7" d="M53.83,20.71c0,.09-.09.72-.09.72l.62.46.39-.39-.39-.73Z"/><polygon class="cls-7" points="53.01 21.63 53.54 22.15 53.51 22.87 53.57 23.73 52.95 23.79 52.55 23.23 52.29 22.02 53.01 21.63"/><path class="cls-7" d="M55.11,22.71s-.59,0-.59.13-.1.66-.1.76,0,.52,0,.52l.49-.1a3,3,0,0,0,.36-.72A3.41,3.41,0,0,0,55.11,22.71Z"/><polygon class="cls-8" points="63.18 20.93 62.36 21.29 62.06 22.43 62.59 23.29 63.74 22.86 63.74 21.52 63.18 20.93"/><path class="cls-7" d="M62.85,20.27c0,.1-.1.72-.1.72l.63.46.39-.39-.39-.73Z"/><polygon class="cls-7" points="62.03 21.19 62.56 21.71 62.52 22.43 62.59 23.29 61.97 23.35 61.57 22.8 61.31 21.58 62.03 21.19"/><path class="cls-7" d="M64.13,22.27s-.59,0-.59.13-.1.66-.1.76,0,.52,0,.52l.49-.1a2.8,2.8,0,0,0,.36-.72A3.41,3.41,0,0,0,64.13,22.27Z"/><polygon class="cls-8" points="57.09 19.3 56.45 19.84 56.27 20.79 56.74 21.7 57.6 22 58.45 21.58 58.38 20.23 58.05 19.52 57.09 19.3"/><polygon class="cls-7" points="57.65 19.04 57.4 19.56 57.73 20.11 58.13 20.23 58.65 20.13 58.51 19.41 58 18.93 57.65 19.04"/><polygon class="cls-7" points="57 21.39 56.45 21.61 56.13 22.12 56.27 22.66 56.96 22.35 57.25 21.92 57 21.39"/><path class="cls-7" d="M58.29,21.08,58,21.6l.2.69.59-.12s.48-.3.45-.39-.54-.71-.54-.71Z"/><polygon class="cls-8" points="54.46 30.28 53.67 30.55 53.14 31.36 53.24 32.38 53.93 32.98 54.88 32.91 55.31 31.63 55.28 30.84 54.46 30.28"/><polygon class="cls-7" points="54 29.76 54.19 30.64 53.57 31.43 53.14 31.79 52.65 31.4 52.72 30.45 53.41 29.89 54 29.76"/><polygon class="cls-7" points="55.08 30.25 54.66 30.64 54.75 31.27 55.08 31.53 55.61 31.63 55.74 30.91 55.44 30.28 55.08 30.25"/><polygon class="cls-7" points="53.6 32.19 53.01 32.19 52.52 32.55 52.45 33.1 53.21 33.07 53.64 32.78 53.6 32.19"/><path class="cls-7" d="M54.92,32.38l-.5.37-.06.72.59.09s.56-.09.56-.19-.23-.85-.23-.85Z"/><polygon class="cls-8" points="55.04 25.59 54.41 26.12 54.22 27.08 54.69 27.99 55.55 28.28 56.41 27.87 56.33 26.52 56.01 25.8 55.04 25.59"/><polygon class="cls-7" points="54.42 25.27 54.93 26.02 54.65 26.98 54.38 27.48 53.78 27.29 53.48 26.39 53.92 25.61 54.42 25.27"/><polygon class="cls-7" points="55.61 25.33 55.36 25.85 55.68 26.39 56.08 26.52 56.61 26.41 56.46 25.69 55.96 25.22 55.61 25.33"/><polygon class="cls-7" points="54.95 27.67 54.41 27.89 54.08 28.41 54.23 28.95 54.92 28.64 55.2 28.21 54.95 27.67"/><path class="cls-7" d="M56.25,27.37l-.33.52.21.69.58-.13s.49-.29.45-.38-.53-.71-.53-.71Z"/><polygon class="cls-8" points="59.59 24.14 58.78 24.2 58.17 25.08 58.35 25.97 59.46 25.96 59.88 24.82 59.59 24.14"/><path class="cls-7" d="M59.51,23.48c0,.09-.31.59-.31.59l.39.58.46-.21-.11-.74Z"/><polygon class="cls-7" points="58.53 24.01 58.81 24.62 58.56 25.23 58.35 25.97 57.8 25.83 57.64 25.23 57.79 24.12 58.53 24.01"/><path class="cls-7" d="M60,25.58s-.5-.18-.54-.07-.29.53-.32.61-.2.44-.2.44l.45.07s.49-.36.54-.5A3.09,3.09,0,0,0,60,25.58Z"/><polygon class="cls-8" points="50.53 35.19 49.65 35.49 49.06 36.41 49.17 37.55 49.94 38.21 51.01 38.13 51.49 36.7 51.45 35.82 50.53 35.19"/><polygon class="cls-7" points="50.02 34.6 50.23 35.6 49.54 36.48 49.06 36.88 48.51 36.44 48.58 35.38 49.35 34.75 50.02 34.6"/><polygon class="cls-7" points="51.23 35.16 50.75 35.6 50.86 36.3 51.23 36.59 51.81 36.7 51.96 35.89 51.63 35.19 51.23 35.16"/><polygon class="cls-7" points="49.57 37.33 48.91 37.33 48.36 37.73 48.29 38.35 49.13 38.32 49.61 37.99 49.57 37.33"/><path class="cls-7" d="M51,37.55l-.55.4-.07.81.66.11s.63-.11.63-.22-.26-1-.26-1Z"/><polygon class="cls-8" points="60.57 29.52 59.76 29.57 59.15 30.46 59.33 31.35 60.45 31.34 60.86 30.2 60.57 29.52"/><path class="cls-7" d="M60.5,28.86c0,.08-.31.59-.31.59l.39.58.46-.21-.12-.74Z"/><polygon class="cls-7" points="59.51 29.39 59.8 30 59.54 30.6 59.33 31.35 58.78 31.21 58.62 30.61 58.77 29.5 59.51 29.39"/><path class="cls-7" d="M61,31s-.5-.18-.54-.07-.29.53-.32.61-.19.44-.19.44l.45.07s.48-.36.53-.5A3.09,3.09,0,0,0,61,31Z"/><polygon class="cls-8" points="39.92 24.77 39.1 25.13 38.8 26.28 39.33 27.14 40.48 26.71 40.48 25.36 39.92 24.77"/><path class="cls-7" d="M39.59,24.12c0,.09-.1.72-.1.72l.62.46.4-.4-.4-.72Z"/><polygon class="cls-7" points="38.77 25.04 39.3 25.56 39.26 26.28 39.33 27.14 38.7 27.2 38.31 26.64 38.05 25.43 38.77 25.04"/><path class="cls-7" d="M40.87,26.12s-.59,0-.59.13-.1.66-.1.75,0,.53,0,.53l.49-.1a3,3,0,0,0,.36-.72A3.19,3.19,0,0,0,40.87,26.12Z"/><polygon class="cls-8" points="43.98 21.88 43.35 22.41 43.16 23.37 43.63 24.28 44.49 24.57 45.35 24.16 45.27 22.81 44.95 22.09 43.98 21.88"/><polygon class="cls-7" points="43.36 21.56 43.87 22.31 43.58 23.27 43.32 23.77 42.72 23.58 42.43 22.68 42.86 21.9 43.36 21.56"/><polygon class="cls-7" points="44.55 21.61 44.3 22.14 44.62 22.68 45.02 22.8 45.55 22.7 45.4 21.98 44.9 21.51 44.55 21.61"/><polygon class="cls-7" points="43.89 23.96 43.34 24.18 43.02 24.7 43.17 25.24 43.86 24.93 44.14 24.5 43.89 23.96"/><path class="cls-7" d="M45.19,23.66l-.33.51.21.7.58-.13s.49-.3.45-.39-.53-.7-.53-.7Z"/><polygon class="cls-8" points="36.71 22.47 35.98 22.79 35.72 23.81 36.19 24.57 37.21 24.19 37.21 22.99 36.71 22.47"/><path class="cls-7" d="M36.42,21.89c0,.08-.09.64-.09.64l.56.4.35-.35-.35-.64Z"/><polygon class="cls-7" points="35.69 22.7 36.16 23.17 36.13 23.81 36.19 24.57 35.64 24.62 35.29 24.13 35.05 23.05 35.69 22.7"/><path class="cls-7" d="M37.56,23.66s-.53,0-.53.12-.08.58-.08.67,0,.46,0,.46l.43-.08a2.69,2.69,0,0,0,.32-.64A3.08,3.08,0,0,0,37.56,23.66Z"/><polygon class="cls-8" points="31.31 21.03 30.74 21.5 30.58 22.35 31 23.16 31.76 23.42 32.52 23.05 32.45 21.86 32.16 21.22 31.31 21.03"/><polygon class="cls-7" points="31.23 22.88 30.74 23.07 30.46 23.53 30.59 24.01 31.2 23.73 31.45 23.35 31.23 22.88"/><path class="cls-7" d="M32.37,22.61l-.28.46.18.61.52-.11s.43-.27.4-.35-.47-.62-.47-.62Z"/><polygon class="cls-8" points="33.52 25.32 32.81 25.37 32.27 26.16 32.43 26.94 33.41 26.94 33.78 25.93 33.52 25.32"/><path class="cls-7" d="M33.46,24.74c0,.07-.27.52-.27.52l.34.52.4-.19-.09-.66Z"/><polygon class="cls-7" points="32.59 25.2 32.84 25.75 32.61 26.28 32.43 26.94 31.94 26.82 31.79 26.29 31.93 25.3 32.59 25.2"/><path class="cls-7" d="M33.87,26.6s-.44-.16-.48-.06-.26.47-.28.54-.17.39-.17.39l.39.06s.43-.32.48-.45A3,3,0,0,0,33.87,26.6Z"/><polygon class="cls-8" points="35.98 27.67 35.16 28.03 34.87 29.18 35.4 30.03 36.54 29.6 36.54 28.26 35.98 27.67"/><path class="cls-7" d="M35.66,27c0,.1-.1.72-.1.72l.62.46.4-.39-.4-.72Z"/><polygon class="cls-7" points="34.84 27.93 35.36 28.45 35.33 29.18 35.4 30.03 34.77 30.1 34.38 29.54 34.11 28.32 34.84 27.93"/><path class="cls-7" d="M36.94,29s-.59,0-.59.14-.1.65-.1.75,0,.52,0,.52l.5-.09a2.89,2.89,0,0,0,.36-.73A3.41,3.41,0,0,0,36.94,29Z"/><polygon class="cls-8" points="32.39 30.89 31.58 30.94 30.97 31.82 31.15 32.71 32.26 32.71 32.68 31.56 32.39 30.89"/><path class="cls-7" d="M32.32,30.22c0,.09-.31.59-.31.59l.39.58.45-.21-.11-.74Z"/><polygon class="cls-7" points="31.33 30.75 31.62 31.36 31.36 31.97 31.15 32.71 30.6 32.57 30.44 31.98 30.6 30.86 31.33 30.75"/><path class="cls-7" d="M32.78,32.33s-.5-.19-.54-.08-.29.53-.32.62-.19.43-.19.43l.45.07s.48-.36.53-.5A3,3,0,0,0,32.78,32.33Z"/><polygon class="cls-8" points="38.48 32.07 37.79 32.37 37.54 33.34 37.98 34.06 38.95 33.7 38.95 32.57 38.48 32.07"/><path class="cls-7" d="M38.21,31.52c0,.08-.09.6-.09.6l.53.39.33-.33-.33-.61Z"/><polygon class="cls-7" points="37.51 32.29 37.96 32.73 37.93 33.34 37.98 34.06 37.46 34.12 37.13 33.65 36.9 32.62 37.51 32.29"/><path class="cls-7" d="M39.29,33.2s-.5,0-.5.12-.08.55-.08.63,0,.45,0,.45l.41-.09a2.43,2.43,0,0,0,.31-.61A3,3,0,0,0,39.29,33.2Z"/><polygon class="cls-8" points="40.76 35.7 40.06 36.01 39.81 36.98 40.26 37.7 41.23 37.34 41.23 36.2 40.76 35.7"/><path class="cls-7" d="M40.48,35.15c0,.08-.09.61-.09.61l.53.39.33-.33-.33-.61Z"/><polygon class="cls-7" points="39.78 35.93 40.23 36.37 40.2 36.98 40.26 37.7 39.73 37.76 39.4 37.28 39.17 36.26 39.78 35.93"/><path class="cls-7" d="M41.56,36.84s-.5,0-.5.11-.08.56-.08.64S41,38,41,38l.42-.08a2.46,2.46,0,0,0,.3-.61A2.79,2.79,0,0,0,41.56,36.84Z"/><polygon class="cls-8" points="27.49 23.46 26.89 23.1 26.08 23.21 25.48 23.82 25.48 24.59 26.04 25.17 27.1 24.74 27.59 24.29 27.49 23.46"/><polygon class="cls-7" points="27.58 22.88 27.12 23.49 26.27 23.52 25.81 23.44 25.79 22.91 26.44 22.43 27.17 22.57 27.58 22.88"/><polygon class="cls-7" points="27.86 23.84 27.37 23.78 27.02 24.18 27.04 24.54 27.26 24.93 27.79 24.62 28.03 24.09 27.86 23.84"/><polygon class="cls-7" points="25.81 23.95 25.48 23.57 24.98 23.45 24.59 23.72 25.02 24.18 25.45 24.3 25.81 23.95"/><path class="cls-7" d="M26.4,24.9l-.5-.12-.5.36.26.43s.37.3.43.25.42-.62.42-.62Z"/><path class="cls-9" d="M22,22.62c0,.1-.1.72-.1.72l.63.46.39-.39-.39-.73Z"/><polygon class="cls-9" points="21.2 23.54 21.73 24.06 21.69 24.78 21.76 25.64 21.14 25.7 20.74 25.14 20.48 23.93 21.2 23.54"/><path class="cls-9" d="M23.3,24.62s-.59,0-.59.13-.1.66-.1.76,0,.52,0,.52l.49-.1a3,3,0,0,0,.36-.72A3.41,3.41,0,0,0,23.3,24.62Z"/><path class="cls-9" d="M30.14,26.74c-.08.06-.65.33-.65.33l0,.77L30,28l.37-.74Z"/><polygon class="cls-9" points="28.92 26.59 28.78 27.32 28.17 27.7 27.51 28.24 27.1 27.77 27.33 27.12 28.18 26.22 28.92 26.59"/><path class="cls-9" d="M29.22,28.93s-.34-.48-.45-.41-.59.29-.67.35l-.45.27.36.35a3.05,3.05,0,0,0,.8-.11A4.13,4.13,0,0,0,29.22,28.93Z"/><path class="cls-9" d="M25.08,26.69c0,.09-.48.63-.48.63l.35.77.58-.16,0-.9Z"/><polygon class="cls-9" points="23.81 27.12 24.03 27.9 23.61 28.57 23.22 29.41 22.6 29.14 22.52 28.4 22.92 27.11 23.81 27.12"/><path class="cls-9" d="M25.23,29.27s-.56-.32-.63-.19-.45.57-.5.66-.31.48-.31.48l.52.17A3.42,3.42,0,0,0,25,29.9,4.56,4.56,0,0,0,25.23,29.27Z"/><polygon class="cls-9" points="20.21 26.7 19.5 26.89 18.97 27.61 19.53 28.1 20.48 28.18 20.59 27.12 20.21 26.7"/><path class="cls-9" d="M20.94,30.49l-.27.38.57.64a3.52,3.52,0,0,0,.38-.49,4.75,4.75,0,0,0,0-.72Z"/><path class="cls-9" d="M25.67,34.09l-.53.79s.49.57.6.57a1.43,1.43,0,0,0,.57-.6c0-.12,0-.65,0-.65Z"/><path class="cls-9" d="M21.35,33.63l-.49.61.6.64s.76-.3.76-.41v-.76Z"/><polygon class="cls-9" points="18.47 31.82 17.15 32.61 16.84 32.01 16.92 30.79 17.87 30.49 18.36 30.87 18.47 31.82"/><path class="cls-9" d="M20,32.31l-.11.49s.94.38,1,.27a5.82,5.82,0,0,0,0-.84L20.37,32Z"/><polygon class="cls-9" points="17.98 33.94 17.19 34.39 17.64 34.88 18.28 34.62 18.43 34.09 17.98 33.94"/><path class="cls-9" d="M15.52,35.07s-.38.5-.19.65a4.68,4.68,0,0,0,.83.38s.23-.84.23-1a1.75,1.75,0,0,0-.15-.42Z"/><polygon class="cls-9" points="24.91 38.9 24.95 39.7 25.71 39.92 26.24 39.24 25.9 38.71 24.91 38.9"/><path class="cls-9" d="M30,37.23s-.8.91-.72,1,.79.8.79.8l.57-.45.19-.84-.45-.45Z"/><path class="cls-9" d="M27.94,40.42l-.79-.31-.31.68.57.84s.84,0,.84-.15,0-1,0-1Z"/><path class="cls-9" d="M27.79,39.43l.15.42s.68.22.72.07a8.7,8.7,0,0,1,.38-.79l-.53-.53Z"/><path class="cls-9" d="M26.77,37.88l.45.49s.46-.3.46-.42.07-.79.07-.79l-.64,0Z"/><path class="cls-9" d="M31.05,41.21l-.61.45.65.46s1.06.19,1.06.07a11.46,11.46,0,0,0-.42-1.09Z"/><path class="cls-9" d="M27.83,43.26l-.3.71.34.42s.83-.19.83-.34a4.93,4.93,0,0,0-.31-.83Z"/><polygon class="cls-9" points="33.66 35.57 33.4 36.4 34.15 36.93 34.53 36.48 34.61 35.76 33.66 35.57"/><path class="cls-9" d="M26.62,31.51l.11.72s.68.08.76,0a3.27,3.27,0,0,0,.15-.61l-.3-.57-.53.08Z"/><path class="cls-9" d="M20.52,39.47l-.68.79s.3.49.41.53,1.25.42,1.33.19.3-1.32.3-1.32Z"/><path class="cls-9" d="M21.69,37.8l.19.68s.46-.19.49-.3.19-.68.19-.68L22,37.12Z"/><path class="cls-9" d="M19.27,37s-.42.53-.3.53l.94,0,.15-.65-.38-.18Z"/><polygon class="cls-9" points="63.36 26.24 62.7 26.84 63.21 27.55 63.96 27.2 63.91 26.29 63.36 26.24"/><path class="cls-9" d="M65.43,23.91,65,25.07l.86.51a5.31,5.31,0,0,0,.66-1c0-.15-.2-1.36-.2-1.36Z"/><path class="cls-9" d="M65.83,28.41l-1.21.86.3,1.16,1.62.55a4,4,0,0,0,.6-.86c0-.15-.15-1.36-.15-1.36Z"/><path class="cls-9" d="M67.8,27.2v.9l.76,0s.45-.35.45-.5a7.49,7.49,0,0,0-.45-1.06Z"/><polygon class="cls-9" points="65.73 26.49 65.68 27.3 66.59 27.35 66.64 26.59 66.34 26.24 65.73 26.49"/><path class="cls-9" d="M63,31.39l0,.86,1,.4a1.73,1.73,0,0,0,.36-.71,4.46,4.46,0,0,0-.36-1Z"/><path class="cls-9" d="M69.32,34l-.46,1.37.61.25s.55.05.55-.15,0-1.36,0-1.36Z"/><path class="cls-9" d="M67,33.36s-.2.45-.05.6,1,.66,1,.41.16-.86.16-.86l-.36-.76Z"/><path class="cls-9" d="M69.57,32.14s-.36.61-.15.66l1,.25.25-.85-.51-.76Z"/><path class="cls-9" d="M68.46,30.43l-.61.61.56.5s.76,0,.76-.3.1-1.07.1-1.07Z"/><polygon class="cls-9" points="72.7 29.32 72.35 30.28 73.05 30.58 73.56 30.17 73.46 29.42 72.7 29.32"/><path class="cls-9" d="M73.91,33.25a14.23,14.23,0,0,0-1.36.46l0,1a2.2,2.2,0,0,0,.71.35c.2,0,1.06-.15,1.06-.4v-.86Z"/><path class="cls-9" d="M71.74,36l.4.51s.71.2.71,0v-.86l-.76-.4Z"/><path class="cls-9" d="M67.09,39c-.15.1-.7,1.27-.55,1.32a3.59,3.59,0,0,1,.55.35l.81-.2.1-1.27Z"/><path class="cls-9" d="M70.07,39.62s-.35.76-.25.91a6.76,6.76,0,0,0,.81.66s.35-.16.4-.36a8.07,8.07,0,0,0,0-1.11Z"/><polygon class="cls-9" points="56.54 34.82 56.74 35.78 58 36.13 58.26 35.12 57.7 34.37 56.54 34.82"/><polygon class="cls-9" points="59.87 34.01 59.57 34.67 60.13 34.77 60.48 34.16 60.33 33.76 59.87 34.01"/><path class="cls-9" d="M61.34,34.92s0,.46.15.61,1.06.81,1.11.5a4.38,4.38,0,0,0,.15-1.31c-.1-.15-1-.91-1.16-.81S61.34,34.92,61.34,34.92Z"/><path class="cls-9" d="M63.81,34.62l-.2.55a1.8,1.8,0,0,0,.71.16c.2,0,.81-.51.75-.66a2.41,2.41,0,0,0-.3-.46Z"/><path class="cls-9" d="M59.06,36.74l-.05.61s.36.2.56,0,.81-.71.81-.71l-.31-.4Z"/><path class="cls-9" d="M55.53,37.5s-.2.55,0,.55,1,.46,1.11.15.25-.85.25-.85l-.76-.51Z"/><path class="cls-9" d="M13.81,38.46s.26,1.11.41,1a4.8,4.8,0,0,0,.45-.76l-.3-.76Z"/><path class="cls-9" d="M15,39.72l-.6.61.46.55s.45,0,.45-.1a6.75,6.75,0,0,1,.15-.76Z"/><path class="cls-9" d="M14.37,42.6s-.86.2-.86.35a2.49,2.49,0,0,0,.25.61s.31.2.51.1.35-.66.35-.66Z"/><path class="cls-9" d="M12.15,44.06s-.2.46,0,.66.86.35.91.1.1-.91.1-.91l-.36-.5Z"/><path class="cls-9" d="M9.72,46.24,9.67,47l.61.21.5-.91s-.15-.46-.3-.46A3.46,3.46,0,0,0,9.72,46.24Z"/><path class="cls-9" d="M5.33,46.94s-.81.76-.3,1,1.46.66,1.46.46.15-1.16.15-1.16l-.45-.41Z"/><path class="cls-9" d="M.68,41.29S.79,42,1,42a2,2,0,0,0,.5-.1l.3-.45v-1a2.74,2.74,0,0,0-.65,0,.44.44,0,0,0-.31.4A.84.84,0,0,1,.68,41.29Z"/><path class="cls-9" d="M22.6,44.42s-.1,1,0,1a4.52,4.52,0,0,0,.56.1l.4-.71-.5-.7Z"/><path class="cls-9" d="M19.72,44.26s-.7,1.07-.3,1.22a2.32,2.32,0,0,0,1,.25c.4,0,1-.25,1-.45s-.05-1.16-.2-1.16S19.72,44.26,19.72,44.26Z"/><path class="cls-9" d="M21.94,42.7s.16.91.36.86.66-.15.7-.3.51-.66.26-.76-.46-.46-.76-.41S21.94,42.7,21.94,42.7Z"/><path class="cls-9" d="M20.48,49s.46.61.6.56a.59.59,0,0,0,.31-.51c0-.2-.05-.76-.2-.76h-.41Z"/><path class="cls-9" d="M23.86,46.74s-.15.81,0,.81a3.86,3.86,0,0,0,.46,0l.4-.36-.25-.55Z"/><path class="cls-9" d="M27.35,46.08s-.1.81,0,.86.4.26.56.2.45-.55.45-.55l-.2-.86Z"/><path class="cls-9" d="M44.17,39.37l-.31,1.11,1,.4s.81-.55.81-.81S44.92,39,44.92,39Z"/><path class="cls-9" d="M41.89,39.11s-.5.41-.2.51.91.25.91.25l-.05-.81-.25-.3Z"/><path class="cls-9" d="M42.4,33.16s-.46.55-.1.65a6.81,6.81,0,0,0,1,.15l.2-1.11-.71-.3Z"/><path class="cls-9" d="M48,41.24s-.2.7.41.6,1.16-.35,1.06-.55-.1-.81-.46-.81S48,41.24,48,41.24Z"/><path class="cls-9" d="M44.17,35.23s.1.9.3,1,1.06.25,1.06.1S45.38,35,45.38,35l-.2-.2Z"/><path class="cls-9" d="M70.28,25.33s-.36,1.06-.06,1.11.86.35,1.07.2.25-.71.25-.86-.2-.71-.41-.66S70.28,25.33,70.28,25.33Z"/><path class="cls-9" d="M82.45,10.58l-.2.5s.3.41.45.26A1.49,1.49,0,0,0,83,11l-.1-.4Z"/><path class="cls-9" d="M79.82,11.69l-.45.51s.45.2.6.15a2.83,2.83,0,0,0,.51-.35l0-.56Z"/><path class="cls-9" d="M81.08,12.85s-.5.1-.45.25.1.21.35.21a.54.54,0,0,0,.41-.21Z"/><polygon class="cls-9" points="78.91 13.86 79.06 14.22 79.42 14.06 79.42 13.51 78.91 13.86"/><path class="cls-9" d="M76.08,15.73s0,.86.21.81A1.3,1.3,0,0,0,77,16a5.25,5.25,0,0,0,.1-.65Z"/><path class="cls-9" d="M76.79,17.45s.15.45.4.5.41-.4.41-.4l-.2-.81Z"/><polygon class="cls-9" points="75.98 13.41 76.19 13.96 76.74 13.71 76.54 13 75.98 13.41"/><path class="cls-9" d="M73.51,11.84l-.76,1,.61.76s.55-.35.6-.56A9.87,9.87,0,0,0,74,11.89Z"/><path class="cls-9" d="M71.89,14.77s-.4.76,0,.76.91,0,.91-.25-.15-1-.15-1Z"/><path class="cls-9" d="M69.82,12.5s-.4.71-.1.71a2,2,0,0,0,.66-.16l.15-.65-.25-.25Z"/><path class="cls-9" d="M73.51,22.4s.1.86.3.86.81-.21.86-.41.3-.81.1-.91a6.92,6.92,0,0,0-.66-.25Z"/><path class="cls-9" d="M72.5,19.27c0,.2.6.35.6.35l.26-.56-.31-.75s-.55-.36-.65,0A2.39,2.39,0,0,0,72.5,19.27Z"/><path class="cls-9" d="M74.62,15.48S74,15.83,74,16s.46.7.46.7a.63.63,0,0,0,.4-.15,3.9,3.9,0,0,0,.4-.81Z"/><path class="cls-9" d="M70,37.35s-.1.75,0,.75a2.2,2.2,0,0,0,.46-.1l.4-.55-.3-.51Z"/><path class="cls-9" d="M66.19,36.59l.4.6s.45-.15.5-.3a5.87,5.87,0,0,0-.1-1.06,1.34,1.34,0,0,0-.55-.1C66.29,35.78,66.19,36.59,66.19,36.59Z"/><path class="cls-9" d="M69.62,42.9l-.61.66s.66.81.91.76.51-.26.51-.46-.1-.91-.1-.91Z"/><path class="cls-9" d="M66.64,42.8s-.35.46-.25.66.45.35.55.2a2.16,2.16,0,0,0,0-.81Z"/><path class="cls-9" d="M55,40.88s-.45.91-.15.91.61.05.76-.1a1.36,1.36,0,0,0,.3-.81c0-.15-.2-.45-.2-.45Z"/><path class="cls-9" d="M54,35.33s-.55.75-.4.91a5,5,0,0,0,1.31.25l.31-.91-.31-.71Z"/><path class="cls-9" d="M71.29,43.21s.1,1,.3.85.5-.3.5-.45a4.7,4.7,0,0,0-.4-.86Z"/><path class="cls-9" d="M71.08,46s.36.66.46.41a3.48,3.48,0,0,1,.3-.56l-.35-.55Z"/><path class="cls-9" d="M68.41,47.6s-.81.3-.81.5.05.66.3.66a1.7,1.7,0,0,0,.66-.25Z"/><path class="cls-9" d="M67.55,45.68s-.15.61,0,.61.35.15.45,0a4,4,0,0,0,.26-.51L68,45.33Z"/><polygon class="cls-9" points="70.53 51.74 70.02 52.5 70.63 52.75 70.98 52.35 70.93 51.79 70.53 51.74"/><polygon class="cls-9" points="70.13 49.72 70.33 50.28 70.68 50.13 70.88 49.52 70.48 49.16 70.13 49.72"/><path class="cls-9" d="M68.46,55.33s-.66.5-.66.65a.46.46,0,0,0,.56.41c.4,0,1-.26,1-.41a2.87,2.87,0,0,0-.41-.7Z"/><path class="cls-9" d="M68.26,23.11s-1.06,1.21-.81,1.26.71.4.91.35a7,7,0,0,0,1.06-1L68.91,23Z"/><path class="cls-9" d="M60.93,27.3s.1,1.21.36,1.11.5-.15.55-.41.46-1,.1-1A2.38,2.38,0,0,0,60.93,27.3Z"/><path class="cls-9" d="M65.43,20.38s0,1.06.25,1,.81-.31.81-.31.25-.8.1-.85a6.54,6.54,0,0,1-.76-.51Z"/><path class="cls-9" d="M69.42,21s-.15.66,0,.71a6.85,6.85,0,0,0,.8.1l.16-1L70,20.38Z"/><polygon class="cls-9" points="68.31 19.57 68.36 20.02 68.86 19.87 68.96 19.27 68.66 19.02 68.31 19.57"/><path class="cls-9" d="M70.33,18.26l.45.75s.66-.05.66-.25-.1-1.06-.1-1.06l-.66-.35Z"/><path class="cls-9" d="M65.53,17.7l.35.5s.46,0,.46-.2-.26-1.11-.26-1.11l-.65-.1Z"/><path class="cls-9" d="M67.5,16.64s-.25.66,0,.66a7.23,7.23,0,0,1,.76.1l.1-.41-.1-.55Z"/><path class="cls-9" d="M63.81,18.41a1.61,1.61,0,0,0,.1.6c.1.16.31.66.56.36a3.41,3.41,0,0,0,.45-1c0-.16-.5-.86-.5-.86Z"/><path class="cls-9" d="M74.22,26.44l.5.45s.86-.2.71-.45a13.11,13.11,0,0,0-1.11-1.16Z"/><polygon class="cls-9" points="76.03 23.61 75.98 24.01 76.54 24.06 76.64 23.56 76.49 23.31 76.03 23.61"/><path class="cls-9" d="M76.24,20.48s-.36.45-.16.5a2.33,2.33,0,0,0,.46.05l.2-.85-.1-.16Z"/><polygon class="cls-9" points="67.35 13.36 67.5 14.12 67.9 13.86 68 13.1 67.35 13.36"/><polygon class="cls-9" points="69.11 14.52 68.76 15.07 69.37 15.38 69.67 14.77 69.57 14.17 69.11 14.52"/><path class="cls-9" d="M65.83,14.37s-.55.5-.2.6,1,.36,1.06.15a6.78,6.78,0,0,0,0-.9Z"/><path class="cls-9" d="M70,9.77s-.15.61,0,.66.81.3.91,0,.36-.86.26-1a6.45,6.45,0,0,0-1-.61Z"/><path class="cls-9" d="M79,6.44l.46.4s.35-.35.3-.5-.6-.56-.6-.56Z"/><path class="cls-9" d="M77.8,6.34s0,.35.2.35.36-.2.36-.2l0-.3Z"/><path class="cls-9" d="M78.46,8.36s.4.6.5.45a4.26,4.26,0,0,0,.26-.6s-.16-.31-.31-.31S78.46,8.36,78.46,8.36Z"/><path class="cls-9" d="M75,8.21s-.2.75,0,.7a1.3,1.3,0,0,0,.46-.35s.35-.71.15-.71S75,8.21,75,8.21Z"/><path class="cls-9" d="M73.51,7.85s-.56.36-.15.46.91.3,1,.15.15-.71.15-.71Z"/><polygon class="cls-9" points="73.61 9.37 73.66 10.02 74.22 10.07 74.42 9.11 73.61 9.37"/><path class="cls-9" d="M76.19,10.88v.51s.55,0,.55-.15v-.76Z"/><path class="cls-9" d="M71.49,5.83s0,.76.2.76.66,0,.66-.3-.1-1.21-.26-1.21-.75,0-.75.3A.83.83,0,0,0,71.49,5.83Z"/><path class="cls-9" d="M69.92,7.25s-.5,0-.5.2.3.5.3.5l.45-.2.11-.5Z"/><path class="cls-9" d="M68.21,9.77s-.86.46-.86.61a1,1,0,0,0,.55.65,6.74,6.74,0,0,0,.86.05l.15-.95Z"/><path class="cls-9" d="M15.48,42.1l-.4.3a1.43,1.43,0,0,0,.1.57l.12-.25Z"/><path class="cls-9" d="M16,38.36s-.46.6-.21.86.25.33.37.47l.39-1.41Z"/><path class="cls-9" d="M12.65,42.8a2.11,2.11,0,0,1,.46-.35c.15-.05,0-.71,0-.71l-.48-.47-.44,1.48A1.07,1.07,0,0,0,12.65,42.8Z"/><path class="cls-9" d="M4.72,46.14l-.32-.08-1.1-.94-.19.1a1.24,1.24,0,0,0-.36.71c0,.2,1,.56,1.17.71S4.52,46.34,4.72,46.14Z"/><path class="cls-9" d="M2.27,44.24V44c-.13.06-.23.13-.22.23a1,1,0,0,0,.31.46l.44,0Z"/><path class="cls-9" d="M8,46.59l-.17-.1-.64.25-.08,0L7,46.94s-.16.46,0,.51a1.94,1.94,0,0,0,.56,0Z"/><polygon class="cls-8" points="35.16 20.93 33.77 20.96 33.65 21.13 33.81 21.92 34.8 21.92 35.16 20.93"/><polygon class="cls-7" points="33.22 20.98 33.18 21.27 33.33 21.8 33.81 21.92 34 21.26 34.13 20.96 33.22 20.98"/><polygon class="cls-7" points="32.23 21.85 32.69 21.76 32.56 21.12 32.36 20.93 31.77 20.89 31.59 21.26 31.87 21.74 32.23 21.85"/><path class="cls-7" d="M35.26,21.58s-.45-.16-.48-.07-.26.47-.29.55-.16.38-.16.38l.39.07a2.67,2.67,0,0,0,.48-.45A3,3,0,0,0,35.26,21.58Z"/><polygon class="cls-7" points="30.31 21.05 29.93 21.73 30.19 22.54 30.72 22.7 30.95 22.27 31.21 21.41 30.8 20.81 30.67 20.8 30.31 21.05"/><polygon class="cls-8" points="39.75 23.02 40.7 22.96 41.13 21.68 41.1 20.89 40.94 20.79 39.34 20.82 38.96 21.41 39.06 22.43 39.75 23.02"/><polygon class="cls-7" points="40.57 21.31 40.9 21.58 41.42 21.68 41.56 20.95 41.47 20.77 40.49 20.8 40.57 21.31"/><polygon class="cls-7" points="39.92 20.81 38.51 20.85 38.47 21.45 38.96 21.84 39.39 21.48 39.92 20.81"/><polygon class="cls-7" points="39.42 22.23 38.83 22.23 38.34 22.6 38.27 23.15 39.03 23.12 39.46 22.82 39.42 22.23"/><path class="cls-7" d="M40.74,22.43l-.5.36-.06.72.59.1s.56-.1.56-.19-.23-.86-.23-.86Z"/><polygon class="cls-8" points="48.58 22.43 49.44 22.02 49.36 20.67 49.28 20.51 47.38 20.57 47.25 21.23 47.72 22.14 48.58 22.43"/><polygon class="cls-7" points="48.71 20.54 49.11 20.67 49.63 20.56 49.62 20.5 48.7 20.53 48.71 20.54"/><polygon class="cls-7" points="47.84 20.56 46.53 20.6 46.8 21.45 47.41 21.63 47.67 21.14 47.84 20.56"/><polygon class="cls-7" points="47.98 21.82 47.43 22.04 47.11 22.56 47.25 23.1 47.94 22.79 48.23 22.36 47.98 21.82"/><path class="cls-7" d="M49.27,21.52,49,22l.21.69.58-.13s.48-.29.45-.39-.53-.7-.53-.7Z"/><polygon class="cls-8" points="50.83 20.45 50.89 20.75 52 20.74 52.25 20.05 50.83 20.45"/><polygon class="cls-7" points="50.83 20.45 50.3 20.47 50.34 20.61 50.89 20.75 50.99 20.41 50.83 20.45"/><path class="cls-7" d="M52.52,20.36s-.5-.18-.54-.07-.29.53-.32.61-.19.44-.19.44l.45.07s.48-.37.53-.51A2.91,2.91,0,0,0,52.52,20.36Z"/><polygon class="cls-7" points="56.43 21.19 56.69 20.7 56.98 19.73 56.53 19.08 56.28 19.11 55.96 19.33 55.53 20.1 55.82 21.01 56.43 21.19"/><polygon class="cls-8" points="60.26 18.64 59.73 19.42 59.91 20.31 61.02 20.3 61.44 19.16 61.15 18.48 61.13 18.48 60.98 18.56 60.26 18.64"/><polygon class="cls-7" points="60.88 18.57 61.16 18.99 61.61 18.77 61.54 18.27 60.98 18.56 60.88 18.57"/><polygon class="cls-7" points="59.91 20.31 60.12 19.56 60.38 18.95 60.23 18.65 59.31 18.75 59.2 19.57 59.36 20.17 59.91 20.31"/><path class="cls-7" d="M61.54,19.92s-.5-.18-.54-.07-.29.53-.32.61-.19.44-.19.44l.45.07s.48-.37.53-.51A2.91,2.91,0,0,0,61.54,19.92Z"/></g></g></svg>