<svg xmlns="http://www.w3.org/2000/svg" viewBox="0 0 126.76 98.4"><defs><style>.cls-1{fill:#aa8984;}.cls-2{fill:#6d5b5d;}.cls-3{fill:#5e4d4f;}.cls-4{fill:#47383b;}.cls-5{fill:#f9d9b9;}.cls-6{fill:#d8a97c;}</style></defs><g id="Layer_2" data-name="Layer 2"><g id="Layer_1-2" data-name="Layer 1"><polygon class="cls-1" points="34.93 54.65 34.14 64.07 32.87 75.74 31.89 85.26 29.53 90.16 29.73 93.11 34.34 93.69 42.38 93.5 43.07 89.97 38.75 61.81 40.81 50.97 34.93 54.65"/><polygon class="cls-2" points="103.41 71.52 100.86 74.76 98.99 82.12 98.89 86.34 100.66 92.52 100.47 94.09 89.57 94.48 85.36 93.79 84.47 91.53 85.45 89.28 86.63 85.36 87.71 75.35 88.59 62.4 96.25 62.3 103.41 71.52"/><polygon class="cls-2" points="18.84 12.8 19.57 10.89 21.48 9.03 23.74 7.26 37.23 3.98 40.62 3.24 46.21 5.74 52.69 9.86 63.72 13.98 69.31 14.13 85.36 12.21 96.83 11.92 107.87 17.66 116.41 24.87 123.47 33.85 124.65 47.98 125.24 64.16 125.24 67.69 124.21 67.84 123.47 60.19 122 42.09 121.56 43.41 118.76 53.13 118.32 59.01 119.35 69.61 117.73 74.02 116.41 76.38 116.85 82.71 118.17 91.24 119.94 94.63 119.5 96.69 115.23 97.86 105.37 98.16 103.31 97.86 102.72 95.81 105.22 93.3 106.55 90.06 105.96 82.41 102.43 72.7 97.57 67.25 94.19 64.16 90.36 64.9 75.79 66.37 64.46 63.87 51.07 58.57 49.89 63.13 49.74 67.25 48.71 75.79 49.45 88 50.92 92.27 51.22 97.23 39.83 98.4 35.03 97.81 34.53 94.09 35.57 91.29 36.45 90.85 37.53 89.03 38.26 85.65 36.94 69.31 33.85 51.51 32.08 42.83 30.17 36.35 28.4 37.09 24.58 40.32 22.52 40.77 18.84 40.18 17.36 44.88 16.78 50.33 16.63 56.22 18.98 59.45 21.19 59.16 22.08 55.19 20.9 54.6 19.72 56.66 20.02 57.69 19.28 57.98 17.22 54.74 17.07 51.95 19.43 51.95 22.66 51.66 25.31 55.19 25.75 60.04 23.4 64.46 16.78 65.93 11.77 59.75 10.15 52.1 11.33 41.5 13.39 31.49 15.6 24.87 16.33 18.54 17.51 14.86 18.84 12.8"/><polygon class="cls-2" points="125.58 67.3 123.62 67.5 123.03 72.4 124.01 76.72 123.52 79.27 122.64 80.35 125.09 78.68 126.46 75.54 126.76 70.15 125.58 67.3"/><polygon class="cls-3" points="30.17 36.35 28.4 37.09 24.58 40.32 22.52 40.77 20.11 40.38 19.87 37.23 20.9 36.65 22.08 37.09 22.81 39 23.99 38.56 27.96 35.91 30.61 33.41 34.14 32.23 35.17 34.14 32.38 35.61 33.55 39.15 34.88 46.36 35.91 54.74 34.76 56.74 33.85 51.51 32.08 42.83 30.17 36.35"/><polygon class="cls-3" points="52.24 12.21 54.16 15.01 55.48 19.57 54.89 22.52 50.92 29.29 49.59 33.85 50.92 37.23 61.22 43.12 74.47 47.98 83.3 48.27 100.81 39.44 104.19 39.44 109.2 39.44 111.55 33.26 109.34 23.99 105.74 16.55 107.87 17.66 116.41 24.87 123.47 33.85 124.65 47.98 125.24 64.16 125.24 67.69 124.21 67.84 123.47 60.19 122 42.09 121.56 43.41 118.76 53.13 118.32 59.01 119.35 69.61 117.73 74.02 116.41 76.38 116.85 82.71 118.17 91.24 119.94 94.63 119.5 96.69 115.23 97.86 105.37 98.16 103.31 97.86 102.72 95.81 105.22 93.3 106.55 90.06 105.96 82.41 102.43 72.7 97.57 67.25 94.19 64.16 90.36 64.9 75.79 66.37 64.46 63.87 51.07 58.57 49.89 63.13 49.74 67.25 48.71 75.79 49.45 88 50.92 92.27 51.22 97.23 41.18 98.26 41.5 94.48 43.71 91.53 44.74 88.15 43.85 80.79 42.09 70.94 44.15 62.69 42.97 55.63 41.65 51.8 39.29 44.3 36.2 41.8 35.91 37.67 44.88 17.22 52.24 12.21"/><path class="cls-4" d="M113.48,97.92l-.75-1.68.73-3.38-2.79-.74-.44-1.32.29-4.27.59-6.77.15-5.15,2.2-3.24.15-6.47s1.18-9.27,1.18-9.71,2.5-9,2.5-9l2.8-6.33,1.76-4.71.3,5.15L122,42.11l-.43,1.3-2.8,9.72L118.32,59l1,10.6L117.73,74l-1.32,2.36.44,6.33,1.32,8.53,1.77,3.39-.44,2.06-4.27,1.17Z"/><polygon class="cls-4" points="51.07 58.57 50.78 59.67 51.22 56.66 52.69 50.77 54.01 50.33 54.3 52.24 54.74 54.6 57.25 55.92 65.93 58.42 78.88 60.19 87.27 57.98 91.54 55.48 95.36 52.98 97.86 49.74 100.66 46.36 101.69 46.8 99.04 51.36 96.83 58.42 95.51 61.81 95.51 65.37 94.19 64.16 90.36 64.9 75.79 66.37 64.46 63.87 51.07 58.57"/><polygon class="cls-3" points="15.21 49.45 16.29 42.48 18.54 39.34 20.7 38.95 20.84 40.5 18.84 40.18 17.36 44.88 16.78 50.33 16.63 56.22 18.98 59.45 21.19 59.16 22.08 55.19 20.9 54.6 19.72 56.66 20.02 57.69 19.28 57.98 17.22 54.74 17.07 51.95 19.43 51.95 21.52 51.76 21.68 53.08 22.86 54.06 22.76 56.31 22.76 59.75 21.09 61.42 18.54 61.42 16.88 59.65 15.6 56.02 15.21 49.45"/><polygon class="cls-4" points="19.03 56.12 19.72 54.55 18.15 52.98 18.05 54.16 19.03 56.12"/><polygon class="cls-1" points="56.51 15.8 48.47 10.3 48.3 7.07 52.69 9.86 63.72 13.98 69.31 14.13 85.36 12.21 96.83 11.92 100.97 14.07 97.13 13.83 88.5 15.01 77.11 18.54 66.13 17.95 56.51 15.8"/><polygon class="cls-1" points="13.39 31.49 15.6 24.87 16.33 18.54 17.51 14.86 18.84 12.8 19.57 10.89 21.48 9.03 23.74 7.26 37.23 3.98 40.62 3.24 40.91 3.37 36.69 5.1 30.22 7.16 23.15 9.32 21.19 11.28 19.62 13.64 17.66 17.17 16.68 21.68 16.68 25.41 14.32 31.89 13.34 35.61 12.16 37.47 13.39 31.49"/><path class="cls-2" d="M18.84,20.11,19.62,18l1.28-1,3.14.3L26.29,20l-.09,2.25a22,22,0,0,0-2.56,2.06c-.09.3-2.35.59-2.64.59a14.41,14.41,0,0,1-2.16-1.08Z"/><polygon class="cls-4" points="23.64 19.92 24.14 21.49 22.37 21.88 20.31 22.17 20.31 20.9 21.09 19.52 23.64 19.92"/><path class="cls-1" d="M19.53,19.72,19.25,19l.37-1,1.28-1,3.14.3L26.29,20l-.09,2.25-.08.05-.22-.44-1.67-1-2.94-.49Z"/><path class="cls-3" d="M18.87,23.86l1.24.18,2.75-.3,1.68-.23a5,5,0,0,0-.9.82c-.09.3-2.35.59-2.64.59A13.21,13.21,0,0,1,18.87,23.86Z"/><polygon class="cls-3" points="35.48 97.87 35.81 94.58 36.4 93.6 36.99 94.28 36.79 96.15 36.79 98.03 35.48 97.87"/><polygon class="cls-1" points="39.83 98.4 37.76 98.15 37.58 95.36 38.66 94.48 39.73 94.78 40.86 98.3 39.83 98.4"/><polygon class="cls-2" points="106.45 94.97 107.46 98.1 105.37 98.16 103.98 97.96 103.9 96.73 105.17 94.97 106.45 94.97"/><polygon class="cls-2" points="108.33 98.07 108.41 95.95 109.39 95.07 110.86 96.15 110.99 97.99 108.33 98.07"/><polygon class="cls-3" points="88.4 90.56 89.18 93.11 89.18 94.42 85.51 93.82 85.36 92.12 86.92 89.97 88.4 90.56"/><polygon class="cls-2" points="36.69 5.1 39.34 4.22 42.09 2.06 43.95 0 47.39 2.16 51.8 7.65 53.66 17.17 52.49 20.21 44.94 31.98 40.62 38.46 39.93 40.23 37.09 40.52 34.73 36.99 32.57 30.61 34.14 23.94 34.24 19.33 32.67 16.39 31.1 16.19 32.96 11.19 35.03 8.34 36.69 5.1"/><polygon class="cls-1" points="32.96 11.19 35.03 8.34 36.69 5.1 39.34 4.22 40.18 3.56 41.65 4.27 45.47 7.51 49.15 13.98 44.3 27.23 40.32 31.79 37.09 32.23 35.17 29.58 33.44 26.93 34.14 23.94 34.24 19.33 32.67 16.39 31.1 16.19 32.96 11.19"/><polygon class="cls-5" points="20.6 37.38 21.34 37.97 22.08 39.59 21.49 40.62 19.43 41.8 14.42 43.71 6.62 44.88 1.47 44.59 0 43.56 0 42.53 1.91 43.12 7.5 42.38 13.54 40.91 18.1 39.15 20.6 37.38"/><polygon class="cls-6" points="0 43.56 0 43.48 1.25 43.78 7.14 43.78 13.69 42.75 20.09 40.03 21.56 38.45 22.08 39.59 21.49 40.62 19.43 41.8 14.42 43.71 6.62 44.88 1.47 44.59 0 43.56"/></g></g></svg>