<svg xmlns="http://www.w3.org/2000/svg" viewBox="0 0 122.1 116.39"><defs><style>.cls-1{isolation:isolate;}.cls-2{fill:#4c2e25;}.cls-3{fill:#81715f;}.cls-4{fill:#726354;}.cls-5{fill:#663526;}.cls-6{fill:#c0b198;}.cls-7{fill:#bcb4aa;mix-blend-mode:multiply;}.cls-8{fill:#894b3d;}.cls-9{fill:#3a221a;}.cls-10{fill:#9f621f;}</style></defs><g class="cls-1"><g id="Layer_2" data-name="Layer 2"><g id="Layer_1-2" data-name="Layer 1"><polygon class="cls-2" points="3.54 52.61 4.43 61.65 6.2 71.22 6.91 76.71 5.85 79.19 3.9 81.67 2.66 83.09 2.83 85.21 4.61 93.18 7.09 105.76 6.73 108.95 7.8 109.66 8.68 109.13 9.74 110.01 10.1 111.96 16.65 112.85 17.89 112.49 17.71 111.43 13.82 108.24 12.4 105.41 10.27 102.39 9.04 88.4 11.52 83.97 14.35 77.77 12.4 66.25 7.44 53.85 3.54 52.61"/><polygon class="cls-3" points="7.8 109.66 8.68 109.13 9.74 110.01 10.1 111.96 16.65 112.85 17.89 112.49 17.71 111.43 13.82 108.24 12.4 105.41 10.27 102.39 9.04 88.4 11.52 83.97 13.07 80.57 12.58 79.54 10.1 73.34 6.55 70.15 5.66 68.29 6.2 71.22 6.91 76.71 5.85 79.19 3.9 81.67 2.66 83.09 2.83 85.21 4.61 93.18 7.09 105.76 6.73 108.95 7.8 109.66"/><polygon class="cls-4" points="16.65 112.85 17.89 112.49 17.71 111.43 15.03 109.23 13.46 110.01 9.74 110.01 10.1 111.96 16.65 112.85"/><polygon class="cls-4" points="8.68 107.89 7.06 105.65 7.09 105.76 6.73 108.95 7.8 109.66 8.68 109.13 8.75 109.18 8.68 107.89"/><path class="cls-5" d="M100.62,31.36l6.56,5,1.24,1.94L108.24,40l3.37,3.36,3.89,5.67v2.84l-.17,2.83-.89,1.06-2.66-.53h-1.41l-1.24.89-1.6-.18-2.48-2.3-1.59-.89L100.8,54,99,57l-.36,5L96.9,63.42,96.2,65l-1.42-2.49-2.13-3.36-.18-4.43-3.72,3.9-3.18,3.54L81,65l-.71,4.25L78.12,72.1l-1.94,1.42.35,3.54-1.42,7.09-.35,4.25.18,2.13-.71,1.94-.36,2.31-.71,10.63.36,3L75.11,110l2.31,1.42.53,1.06,3,3.19-1.06.53-6,.18-.53-1.06L71,111.25H70l-.88,1.07c-.71-.71.53-5,.53-5V98.14l-.71-6.37L67.67,88.4l-.88-10.28-.18-5-2.48-1.77L62,71.22l-3.36.88-9.21-.18-9.75-.7-6.55-2.31-4.61,1.6L27.1,72.1l-1.41,6.38-2.48,5-1.07,4.07.54,4.08,6.37,12.22,3.55,5.32,1.77,1.06.18,1.24,1.59.71,3.19,3.19-6.91-.18v-1.42l-2.13-2.48L28.7,112l-1.42-1.06-.71-2.48L18.78,95.49l-3.37-3.37-3.19-2,.89-3.72.18-4.78-1.24-8.86s-3.37-7.44-3.72-8-3-8.68-3-8.68L4.08,54.21,2.13,55.63,0,53.15l2.13-7.27,7.61-7.26,10.1-6,6.2.88,4.61,2,11.87.18,17.89-1.42,5.85-3.9,4.07-1.41,9,.53L90,29.94Z"/><path class="cls-5" d="M63.07,69.8,61.65,82.38v5.13l.71,2.13L62,94.42l-.7,7.8-.71,2.48-1.07,3.36.89.18,1.06-.18.71,1.42-.35,3,.53,1.24,8-.17c-.18-.89-3.72-4.61-3.72-4.61l-1.06-2.66-1.42-2.12,1.24-5.32,1.77-7.44,1.77-8L69.44,70Z"/><path class="cls-3" d="M66.61,109l-1.06-2.66-1.42-2.12,1.24-5.32,1.77-7.44L68,87.53l-.86-.73L64,85.39s-1.1-2.48-2.1-4.76l-.2,1.75v5.13l.71,2.13L62,94.42l-.7,7.8-.71,2.48-1.07,3.36.89.18,1.06-.18.71,1.42-.35,3,.53,1.24,8-.17C70.15,112.67,66.61,109,66.61,109Z"/><path class="cls-6" d="M71,111.25l2.3,4.08.53,1.06,6-.18,1.06-.53-3-3.19-.53-1.06L75.11,110l-1.59-1.59-.36-3,.71-10.63.36-2.31.71-1.94-.18-2.13.06-.71-2,.18L68.91,85,67.1,81.8l.57,6.6,1.24,3.37.71,6.37v9.21s-1.24,4.26-.53,5l.88-1.07Z"/><path class="cls-6" d="M39.33,115.33l-3.19-3.19-1.59-.71-.18-1.24-1.77-1.06-3.55-5.32L22.68,91.59l-.54-4.08,1.07-4.07L24.92,80l-1-1-.71-3.19L19.13,76l-5-1.42-2.34-2.24.22.47,1.24,8.86-.18,4.78-.89,3.72,3.19,2,3.37,3.37,7.79,12.93.71,2.48L28.7,112l1.59-.71,2.13,2.48v1.42Z"/><polygon class="cls-7" points="109.13 53.68 105.58 51.37 99.74 51.02 94.78 51.37 92.47 48.19 92.3 44.82 89.82 44.64 86.98 47.12 82.02 51.73 72.81 58.99 62.36 62.89 48.01 64.66 41.1 63.07 35.08 59.17 35.25 53.5 31.53 50.31 23.39 53.5 23.56 58.28 25.51 65.9 22.85 72.81 22.5 78.3 20.73 84.32 19.31 88.04 22.14 94.24 26.93 102.04 29.76 104.88 29.05 103.81 22.68 91.59 22.14 87.51 23.21 83.44 25.69 78.48 27.1 72.1 28.52 70.51 33.13 68.91 39.68 71.22 49.43 71.92 58.64 72.1 62 71.22 64.13 71.39 66.61 73.16 66.79 78.12 66.89 79.39 67.67 75.82 69.27 70.86 74.58 70.51 77.92 72.25 78.13 72.1 80.25 69.27 80.96 65.02 85.57 62.18 88.75 58.64 92.47 54.74 92.65 59.17 94.78 62.53 96.19 65.02 96.9 63.42 98.67 62 99.03 57.04 100.8 54.03 103.46 52.79 105.05 53.68 107.53 55.98 109.13 56.16 110.35 55.28 109.13 53.68"/><polygon class="cls-7" points="55.63 69.62 41.1 68.73 33.84 65.9 29.05 65.02 28.17 66.79 27.1 72.1 28.52 70.51 33.13 68.91 39.68 71.22 49.43 71.92 58.64 72.1 62 71.22 64.13 71.39 66.24 72.9 66.43 70.86 63.95 66.96 55.63 69.62"/><path class="cls-4" d="M69.62,107.35s-1.24,4.26-.53,5l.88-1.07h.9Z"/><polygon class="cls-4" points="76.88 113.2 73.34 115.33 73.34 115.33 73.87 116.39 79.89 116.21 80.96 115.68 78.16 112.72 76.88 113.2"/><polygon class="cls-4" points="61.83 106.11 60.78 104.02 60.59 104.7 59.52 108.06 60.41 108.24 61.44 108.07 61.83 106.11"/><path class="cls-4" d="M68.33,110.83l-2.43.78-4.07.89.53,1.23,8-.17A11.33,11.33,0,0,0,68.33,110.83Z"/><polygon class="cls-4" points="28.7 111.96 29.5 111.61 29.05 109.83 26.73 108.98 27.28 110.9 28.7 111.96"/><polygon class="cls-4" points="36.14 112.14 35.26 111.75 32.42 113.84 32.42 115.15 39.33 115.33 36.14 112.14"/><path class="cls-8" d="M91.23,33.3c.54,0,8.51,1.24,8.51,1.24l4.6,1.25,3.37,4.42.64-.07-.11-.1.18-1.78-1.24-1.94-6.56-5L90,29.94l-10.62-.53-9-.53-4.07,1.41-5.85,3.9L42.52,35.61l-11.87-.18-4.61-2-6.2-.88-10.1,6-4.29,4.1c3.17-1.2,9.61-3,9.61-3l8.68-2.3,5,3.72L32.24,45h5.67l5.14-2.84,8.33,2s8.14.53,8.85.35,8.86-4.78,8.86-4.78l12.22-5.84S90.7,33.3,91.23,33.3Z"/><polygon class="cls-7" points="106.47 39.33 109.22 42.43 109.04 42.87 104.79 39.68 106.47 39.33"/><polygon class="cls-9" points="106.91 38.44 106.69 39.77 106.91 40.13 104.12 39.99 103.99 39.59 105.63 38.62 106.6 37.95 106.91 38.44"/><polygon class="cls-9" points="108.33 53.59 110.05 55.5 110.37 55.27 110.57 55.27 110.37 54.87 109.35 53.59 108.46 52.97 106.87 51.82 105.72 50.89 104.43 50.98 104.56 51.64 106.03 51.99 108.33 53.59"/><polygon class="cls-9" points="113.2 50.22 112.94 51.64 113.11 53.32 114 53.41 114.44 52.61 113.73 52.08 113.64 50.31 113.2 50.22"/><path class="cls-10" d="M100.18,32.15l1.59.67-.93-4.12,2.79-2.13,4.92-.53,5.71-2.92,5.32-5.32,1.86-3.05.66-2.39-1.19-.14-1.46,3.32-.8-.13.13-4.12-.66.67-1.73,4.78-3.32,3.46-2.92.66v-1.6l1.72-3.72.14-2.12-1.07.4L109.22,17l-3.46,2.53-1.86-.27-.27-4.65.94-3.85L104,8.9,103,9.57l-1.73,8-.66,3.72-1.33-.4-1.33-4.92L96.2,6.24l1.32-3.72L98.59.4,97.12,0,94.73,3.72,93.4,8.9l.14,1.33H92.47L91,6.64s-.53-3.19-.53-3.58-.93-.4-.93-.4l-.66,3.85-.53.93-1.47-1.2-.79-4-.67-.67L84.1,3.06V7L82.51,5.85,81.05,2.79l-.53.66.93,3.06-.67.93-.93-.8-.4-2.79-.79.4-.54,3.06-1.59.53a5,5,0,0,1-1.06-1.2,14.93,14.93,0,0,1,0-2.52l.66-1.73-1.06-.26-1.2,3.32-.93,6.64,4,6,5.31,3.85,4.92,3.32L93,28.83l5,1.2.4,1.72Z"/><polygon class="cls-7" points="78.92 7.97 79.45 10.23 81.31 11.82 83.31 12.62 83.04 11.29 80.91 7.97 78.92 7.97"/><polygon class="cls-7" points="82.51 7.84 83.04 9.17 83.97 8.9 84.37 7.84 82.51 7.84"/><polygon class="cls-7" points="86.63 10.63 87.29 12.62 88.62 13.29 89.42 12.62 88.49 9.7 88.62 8.1 86.63 6.91 85.96 5.18 86.63 10.63"/><polygon class="cls-7" points="93.4 10.89 92.34 11.56 92.87 13.29 93.94 13.82 94.07 12.09 93.4 10.89"/><path class="cls-7" d="M97.79,29.36l-.4-4.78-2-1.73-3.86-3.72s-3.05-.8-3.45-.8-7.71-1.59-8.24-1.59S75.47,13,75.47,13s-1.14-3-1.92-5.23l-.61,4.3,4,6,5.31,3.85,4.92,3.32L93,28.83l4.54,1.08Z"/><polygon class="cls-7" points="120.3 16.62 117.05 18.87 112.01 22.19 107.89 22.32 105.1 22.59 102.31 23.52 101.38 24.71 102.44 25.24 106.03 25.38 110.28 24.98 110.9 24.84 114.26 23.12 119.58 17.8 120.3 16.62"/><polygon class="cls-5" points="99.52 31.75 97.26 28.96 91.54 26.84 88.36 23.78 85.83 24.32 85.17 27.24 89.55 31.09 95.4 31.75 98.06 32.69 99.52 31.75"/><polygon class="cls-8" points="95.8 29.76 91.94 28.57 89.82 26.7 88.09 25.38 87.42 26.7 88.62 28.96 91.41 30.29 95.4 30.96 97.13 32.36 98.06 32.69 98.73 32.26 95.8 29.76"/></g></g></g></svg>