<svg xmlns="http://www.w3.org/2000/svg" viewBox="0 0 72.87 33.96"><defs><style>.cls-1{fill:#6d574f;}.cls-2{fill:#56423c;}.cls-3{fill:#87736d;}.cls-4{fill:#562b21;}.cls-5{fill:#7f4934;}.cls-6{fill:#663729;}.cls-7{fill:#995843;}</style></defs><g id="Layer_2" data-name="Layer 2"><g id="Layer_1-2" data-name="Layer 1"><polygon class="cls-1" points="24.08 25.58 19.35 26.33 11.93 26.87 3.76 27.3 0.97 28.05 0 30.42 1.07 31.81 8.38 33.96 16.77 33.43 23.97 31.17 26.55 29.56 24.08 25.58"/><path class="cls-2" d="M16.77,33.43,24,31.17l2.58-1.61-.8-1.29L21.6,30.52l-4.51,1.19-3.65.43H8.6l-4-.76-3-.64s-1.07-.65-1.18-1l-.09-.18L0,30.42l1.08,1.39L8.38,34Z"/><polygon class="cls-3" points="2.04 28.48 1.83 29.34 8.38 30.09 18.92 28.37 19.24 27.52 10.75 27.19 5.91 27.73 2.04 28.48"/><polygon class="cls-4" points="62.88 18.92 65.99 20.42 67.5 21.17 68.25 23.64 69.22 25.36 69 26.23 67.72 26.01 66.1 24.5 65.56 23 61.8 22.03 62.88 18.92"/><polygon class="cls-5" points="72.01 3.98 68.14 1.72 63.95 0.97 61.59 0.65 60.51 1.29 56.97 2.79 55.25 3.22 51.48 1.61 45.9 0 42.56 0.54 33.53 3.98 30.85 7.42 26.66 20.53 25.9 23.43 23.75 25.26 24.51 28.7 25.58 30.31 28.91 30.42 31.82 30.63 34.18 30.42 39.55 30.31 47.83 28.91 50.84 27.41 52.99 24.83 54.6 25.15 55.57 25.04 56.64 26.66 58.79 29.77 58.47 30.85 59.01 31.28 63.52 31.71 64.7 30.63 64.6 29.77 62.45 29.45 62.13 28.16 61.91 23.97 63.52 20.53 64.6 16.23 65.24 13.22 68.04 11.5 70.51 10.53 70.94 9.46 71.58 9.03 72.87 6.02 72.66 4.84 72.01 3.98"/><polygon class="cls-6" points="58.58 14.19 58.58 13.33 57.72 13.44 56.21 15.48 54.17 18.27 51.81 20.1 48.58 21.6 44.71 22.25 39.55 22.03 38.26 23.86 34.72 25.15 31.39 24.08 31.6 18.38 30.52 15.69 28.18 15.76 26.66 20.53 25.9 23.43 23.75 25.26 24.51 28.7 25.58 30.31 28.91 30.42 31.82 30.63 34.18 30.42 39.55 30.31 47.83 28.91 50.84 27.41 52.99 24.83 54.6 25.15 55.47 25.05 55.03 22.79 55.78 19.56 57.18 16.12 58.58 14.19"/><polygon class="cls-4" points="51.16 24.18 46.54 26.44 41.38 26.55 32.89 27.95 28.16 28.59 24.27 27.59 24.51 28.7 25.58 30.31 28.91 30.42 31.82 30.63 34.18 30.42 39.55 30.31 47.83 28.91 50.84 27.41 52.99 24.83 54.6 25.15 55.57 25.04 55.89 25.53 56 24.72 53.53 22.25 51.16 24.18"/><polygon class="cls-5" points="30.1 18.27 29.13 24.61 30.95 27.95 32.35 29.45 31.92 31.06 32.68 31.71 39.23 32.14 44.28 32.67 46.33 32.03 47.08 30.52 45.14 29.66 42.35 29.56 39.12 29.23 37.4 29.02 36.76 27.95 38.8 26.44 40.63 23.43 40.63 20.1 37.51 16.12 33.21 15.48 30.1 18.27"/><polygon class="cls-6" points="35.04 31.17 37.4 29.56 38.18 29.12 37.4 29.02 36.76 27.95 38.8 26.44 39.72 24.92 37.62 26.01 35.26 27.52 33.21 26.44 31.06 23.64 30.77 17.67 30.1 18.27 29.13 24.61 30.95 27.95 32.35 29.45 31.92 31.06 32.68 31.71 34.53 31.83 35.04 31.17"/><polygon class="cls-4" points="44.19 32.66 44.22 32.23 43.81 31.3 43.05 30.5 42.78 30.63 43.53 31.6 43.53 32.59 44.19 32.66"/><polygon class="cls-4" points="46.38 31.93 45.99 30.98 44.98 30.22 44.78 30.38 45.51 30.98 45.94 32.15 46.33 32.03 46.38 31.93"/><polygon class="cls-6" points="60.78 30.5 60.06 29.77 58.85 28.64 57.15 25.9 55.78 23.48 55.78 24.45 55.48 25.05 55.57 25.04 56.64 26.66 58.79 29.77 58.47 30.85 59.01 31.28 60.57 31.43 60.78 30.5"/><polygon class="cls-6" points="61.75 29.61 62.43 29.4 62.13 28.16 62.1 27.7 61.59 28.64 61.75 29.61"/><path class="cls-7" d="M69.18,2.33l-1-.61L64,1,61.59.64l-1.08.65L57,2.79l-1.72.43L51.48,1.61,45.9,0,42.56.54,33.54,4,30.85,7.42l-1.4,4.36.62-.39,2.42-4.91,4.59-2.67L44.9,2l4.52,1,4.75,1.61,2.42,1s.48-1.45.73-1.53,3.54-1.86,3.54-1.86l3.47-.56,3,.4Z"/><polygon class="cls-6" points="61.75 3.17 64.09 2.52 66.34 2.77 68.76 3.25 71.26 4.46 71.02 5.18 68.04 4.06 65.06 4.14 62.96 4.22 61.99 4.22 61.75 3.17"/><polygon class="cls-7" points="72.87 6.02 72.66 4.84 72.01 3.98 70.84 3.29 70.13 5.03 69.25 6.23 69.25 8.17 69.25 9.86 68.86 11.18 70.51 10.53 70.94 9.46 71.58 9.03 72.87 6.02"/><polygon class="cls-4" points="72.1 4.09 71.62 3.98 71.26 4.46 70.98 4.94 71.38 5.43 71.7 5.06 72.11 5.55 72.59 5.83 72.86 6.05 72.87 6.02 72.66 4.84 72.1 4.09"/><polygon class="cls-4" points="67.51 3.17 67.47 3.69 67.88 3.94 66.79 4.3 66.39 4.58 66.26 4.26 66.83 3.29 67.51 3.17"/><polygon class="cls-4" points="70.93 9.48 70.03 9.67 68.58 9.73 68.14 9.99 68.73 10.1 70.24 9.89 70.81 9.77 70.93 9.48"/><polygon class="cls-6" points="64.7 12.04 62.12 9.99 61.05 9.56 62.02 12.36 63.41 15.48 64.6 16.22 65.24 13.22 66.83 12.24 64.7 12.04"/><polygon class="cls-7" points="62.77 3.33 62.45 4.78 62.13 5.11 60.46 4.78 59.17 4.3 59.17 3.12 59.87 2.58 61.91 2.58 62.77 3.33"/><polygon class="cls-6" points="59.87 2.58 59.17 3.12 59.17 4.3 60.46 4.78 62.13 5.11 62.45 4.78 62.47 4.7 60.03 4.03 59.71 3.6 60.3 3.12 61.59 3.01 62.68 3.73 62.77 3.33 61.91 2.58 59.87 2.58"/></g></g></svg>