<svg xmlns="http://www.w3.org/2000/svg" viewBox="0 0 57.93 49.29"><defs><style>.cls-1{fill:#d8b28d;}.cls-2{fill:#ad7e5a;}.cls-3{fill:#774c40;}.cls-4{fill:#a87752;}.cls-5{fill:#8c5835;}.cls-6{fill:#774828;}</style></defs><g id="Layer_2" data-name="Layer 2"><g id="Layer_1-2" data-name="Layer 1"><path class="cls-1" d="M13.64,1.91l-1.31-.23-1.15-1L10.32,0,6.83,1.06,4.69,3.18,3.65,5l1,1.08L1.05,9.91l-1,.81-.09.8.23,1.05,0,1,.82.46.85,1.08,1.53-.43L5.08,13.5l1.25.13,1.61.07.53,2.76,1.28,1,.08,2,1.07.63L11.59,22h1.86L14,25.4l1.57.55.56,1.78s1,3,1,3.17,2.87,4,2.87,4l2.29,1.52.23,1.22.51.48.25,3.33-.4,2.43L22,45.31l-1.56,1.3,0,1.23,1.8.12,1.55-.12.55-1.57,0-.74,1.77-.68-.28-.92.14-1.12.48-5.34,2.86-1.22.06-1.55.4-.94,3.84.16,6.58.8,3.67-1.07,2.39,1,3,1.81,1.07,2.06,1,1.51-.11,2.17-.65,2.37-1,.47-.71.89-.79.22-1.33,2.4.31.17.81,0-.17.5,1.24.14,3-.42.44-1.32L52.19,47l1.34-.42-.13-1.73.54-2.18,1.15-3.94-.35-1,1.4-3.7L57,27.4l.88-6.16-.29-4.31.34-2.55-.59-2.33-2.28-1.52L53.63,8.85l-6.16-1-5.09-.54-7.3-.1L29.5,6.93l-5.67.47L21.37,6.13,20.08,4.57l-3.7-1.28,1.12-1.4L17.62.28l-1,.16Z"/><polygon class="cls-2" points="55.01 38.98 53.99 39.26 52.66 43.33 52.44 45.51 52.65 46.85 53.53 46.58 53.4 44.85 53.94 42.66 55.01 38.98"/><polygon class="cls-2" points="26.41 37.48 27.33 37.08 26.55 36.23 25.71 37.07 24.92 40.69 25.26 42.96 25.13 44.39 24.78 44.95 24.77 45.35 26.07 44.85 25.79 43.93 25.93 42.81 26.41 37.48"/><polygon class="cls-2" points="51.59 47.58 50 46.4 48.85 45.76 48.74 45.9 47.95 46.11 46.62 48.51 46.93 48.69 47.73 48.65 47.57 49.15 48.81 49.29 51.83 48.87 52.15 47.91 51.59 47.58"/><polygon class="cls-2" points="22.91 46.14 21.58 45.67 20.45 46.6 20.43 47.84 22.23 47.96 23.77 47.84 24.27 46.45 22.91 46.14"/><polygon class="cls-3" points="51.95 48.5 50.16 48.47 48.26 48.49 49.15 46.51 49.05 46.38 47.77 48 46.91 47.98 46.62 48.51 46.93 48.69 47.73 48.65 47.57 49.15 48.81 49.29 51.83 48.87 51.95 48.5"/><polygon class="cls-3" points="23.77 47.84 23.88 47.55 23.08 47.56 21.64 47.47 22.58 46.02 22.07 45.84 21.24 46.7 20.99 47.36 20.44 47.4 20.43 47.84 22.23 47.96 23.77 47.84"/><path class="cls-4" d="M57.93,14.38l-.59-2.33-2.28-1.52L53.63,8.85l-6.16-1-5.09-.54-7.3-.1L29.5,6.93l-5.67.47L21.37,6.13,20.08,4.57l-3.7-1.28,1.12-1.4L17.62.28l-1,.16-3,1.47-1.31-.23-1.15-1L10.32,0,6.83,1.06,4.69,3.18l-.37.63h0L3.65,5l.65.73.57-1,.24-.25L6.72,3,9.55,1.79l1.32.6,1.06,1,.43,1.47L11.7,6.9A24.81,24.81,0,0,0,11,9.71c0,.37,0,1.77,0,1.77l-2.38.83-1,1.37.33,0,.53,2.76,1.28,1,.08,2,1.07.63L11.59,22h1.86L14,25.4l1.57.55.56,1.78s1,3,1,3.17,2.87,4,2.87,4l2.29,1.52.23,1.22.48.45h1.76l1.61-.21,0-.44,2.86-1.22.06-1.55.4-.94,3.84.16,6.58.8,3.67-1.07,2.39,1,3,1.81,1.07,2.06.94,1.43,2.49,0,1.19-.43.22-.73-.35-1,1.4-3.7L57,27.4l.88-6.16-.29-4.31Z"/><path class="cls-5" d="M57.8,20l-.62,2.43-1,3.44-1.27,2.52L53,30.46H49.76l-2.14-.85-.87-1.76.34-2.48-.84-.9-2.19.76-1.41,2-1.88,2.48-4.71,1.48-4.87.43s-.9-.89-.9-1.08-.51-2-.51-2l-1.06-1.75-.29-1.1-.4.76.37,1.65a15.66,15.66,0,0,1,.89,2.26c-.05.18-.61,1.88-.61,1.88l-.57,1.07-3.86.89-1.44-.38-1.12-1.62L21.11,30l-1-3.49-.95-2.25-.33-2.28.92-1.58-1.42.06-.66.52-2.11-2-1.21-2.61.26-1.07L14,14.58H12.55l-.23-1.11,0-1.79.17-2.17.72-3.62L13.12,3.6,11.27,2.19,10,1.31l-1.34.48L7,2.54l-.7.9L6.72,3,9.55,1.79l1.32.6,1.06,1,.43,1.47L11.7,6.9A24.81,24.81,0,0,0,11,9.71c0,.37,0,1.77,0,1.77l-2.38.83-1,1.37.33,0,.53,2.76,1.28,1,.08,2,1.07.63L11.59,22h1.86L14,25.4l1.57.55.56,1.78s1,3,1,3.17,2.87,4,2.87,4l2.29,1.52.23,1.22.48.45h1.76l1.61-.21,0-.44,2.86-1.22.06-1.55.4-.94,3.84.16,6.58.8,3.67-1.07,2.39,1,3,1.81,1.07,2.06.94,1.43,2.49,0,1.19-.43.22-.73-.35-1,1.4-3.7L57,27.4l.88-6.16Z"/><polygon class="cls-3" points="0.61 11.72 0.94 10.69 1.75 10.05 1.76 10.38 2.01 10.74 1.29 11.23 0.61 11.72"/><polygon class="cls-2" points="4.52 8.48 5.81 6.94 6.04 5.87 6.43 5.11 7.9 4.73 8.48 5.45 8.48 6.52 7.03 7.41 5.26 8.4 4 9.29 3.94 8.96 4.52 8.48"/><polygon class="cls-3" points="6.51 5.85 7.39 5.86 7.86 6.17 7.64 6.41 6.45 6.73 6.66 6.26 6.51 5.85"/><path class="cls-2" d="M8.56,12.31l2.38-.83s0-1.4,0-1.77a10.54,10.54,0,0,1,.38-1.62l-.12,0-.86,1.75-.65,1.27L8,12l-1.64.71-1.6.62s-1.09.74-1.22.79-1.48.29-1.48.29l-.42-.27,1-.36L4,13.37l.3-.62-.42-.07-.59.48-1.55.62-.86.11.23.13.85,1.08,1.53-.43L5.08,13.5l1.25.13,1.28,0Z"/><path class="cls-6" d="M50.25,38.48l.94,1.43,2.49,0,1.19-.43.22-.73-.35-1v0l-.13,0-2.44.42-1.49-1.29s-1.6-2-1.75-2.11S48.09,32,48.09,32L46,30.49l-2.75,2.05-4.6,1.06-4.89-.37-3.47-1-.49.3-.38,1a12.88,12.88,0,0,0-1.5,1,27,27,0,0,1-2.54,1.4l-3.23-.81-2.65-2.63-1.82-2.57L16.5,27l-.67-.29.31,1s1,3,1,3.17,2.87,4,2.87,4l2.29,1.52.23,1.22.48.45h1.76l1.61-.21,0-.44,2.86-1.22.06-1.55.4-.94,3.84.16,6.58.8,3.67-1.07,2.39,1,3,1.81Z"/><polygon class="cls-1" points="15.43 3.84 16.44 3.31 16.38 3.29 17.5 1.89 17.63 0.28 16.64 0.44 13.65 1.91 13.51 2.15 12.79 2.78 12.34 3.17 12.67 4.41 13.77 4.23 15.43 3.84"/><polygon class="cls-2" points="12.73 3.71 13.81 2.93 15.44 1.84 17.1 1.46 16.8 2.02 16.05 3.03 14.49 3.69 12.79 3.89 12.73 3.71"/><polygon class="cls-5" points="13.56 12.12 13.15 12.75 13.47 12.86 14.18 12.03 13.56 12.12"/><polygon class="cls-5" points="13.3 13.24 13.2 13.8 13.54 13.79 13.55 13.26 13.3 13.24"/><polygon class="cls-5" points="16.67 12.56 16.18 13.32 15.26 13.57 15.27 13.85 16.31 13.68 16.97 12.95 16.95 12.42 16.67 12.56"/><path class="cls-5" d="M16,12.15l0,.62s.27-.14.27-.23.1-.62.1-.62Z"/><path class="cls-5" d="M16.48,16.52l-.11,1,.27.67s.63.17.62.07-.05-1.42-.06-1.54.25-.94.25-.94Z"/><polygon class="cls-5" points="16.03 16.01 15.43 16.53 15.61 17.02 16.05 16.48 16.34 16 16.03 16.01"/><polygon class="cls-5" points="21.84 29.55 21.82 30.66 22.31 30.7 22.7 29.39 22.97 28.39 22.42 28.66 21.84 29.55"/><polygon class="cls-5" points="23.32 29.55 22.78 30.07 23.42 30.6 24.5 29.51 24.59 28.7 23.32 29.55"/><polygon class="cls-5" points="15.95 14.56 14.29 14.94 14.62 15.54 15.71 15.01 16.31 14.42 15.95 14.56"/><polygon class="cls-5" points="19.73 14.79 18.32 15.09 19.22 16.17 19.75 15.41 20.34 14.52 19.73 14.79"/><polygon class="cls-5" points="18.68 13.41 18.65 14.09 19.26 14 19.29 13.01 18.68 13.41"/><polygon class="cls-5" points="17.05 19.1 16.15 19.87 17.26 19.89 17.61 19.38 17.05 19.1"/><polygon class="cls-5" points="18.94 18.53 18.66 19.22 19.33 19.01 19.6 17.95 20 17.19 18.9 17.36 18.94 18.53"/><path class="cls-5" d="M24.36,22.84,24,24s1.42-.24,1.41-.42a6.18,6.18,0,0,1,.82-1.21L25.5,22Z"/><polygon class="cls-5" points="30.94 30 32.45 30.44 34.03 29.95 34.49 28.94 32.78 29.63 30.94 30"/><polygon class="cls-5" points="31.66 29.3 32.21 27.48 32.58 27.53 32.44 28.65 31.66 29.3"/><polygon class="cls-5" points="30.82 28.28 30.21 28.61 30.77 28.77 31.32 28.44 31.55 28.06 30.82 28.28"/><path class="cls-5" d="M35.37,27.79l-.71.65s.81.15.86,0a8.68,8.68,0,0,1,.7-1V27Z"/><path class="cls-5" d="M39.3,28.63,37,29.28l-.11.44s1.17-.23,1.35-.3l.91-.35.54-.57Z"/><polygon class="cls-5" points="33.75 12.95 31.85 13.4 32.56 14.17 34.02 13.56 34.67 12.67 33.75 12.95"/><polygon class="cls-5" points="26.11 23.14 25.52 23.84 26.68 23.61 27.45 22.72 26.11 23.14"/><polygon class="cls-5" points="26.78 21.38 26.8 22 27.58 21.35 27.92 20.47 26.78 21.38"/><polygon class="cls-5" points="24.08 20.37 23.61 20.95 25.02 20.71 25.24 20.02 24.08 20.37"/><polygon class="cls-5" points="23.94 18.15 23.08 18.49 24.64 18.68 24.98 17.86 23.94 18.15"/><polygon class="cls-5" points="28.94 11.59 28.73 12.65 29.15 12.2 29.67 11.32 28.94 11.59"/><polygon class="cls-5" points="34.19 11.39 32.72 11.88 33.35 11.98 34.39 11.75 34.56 11.31 34.19 11.39"/><polygon class="cls-5" points="24.85 27.52 26.02 27.23 26.48 26.52 25.47 25.95 25.5 26.69 24.34 27.04 24.85 27.52"/><polygon class="cls-5" points="25.81 28.34 25.2 28.43 25.58 28.85 26.13 28.7 25.81 28.34"/><polygon class="cls-5" points="37.99 26.58 37.94 27.02 38.49 26.81 38.84 26.24 37.99 26.58"/></g></g></svg>