<svg xmlns="http://www.w3.org/2000/svg" viewBox="0 0 82.68 155.75"><defs><style>.cls-1{fill:#b95c31;}.cls-2{fill:#ffa62e;}.cls-3{fill:#7a4b21;}.cls-4{fill:#e17b29;}.cls-5{fill:#efb484;}.cls-6{fill:#fcc695;}.cls-7{fill:#8c4000;}.cls-8{fill:#9e4233;}</style></defs><g id="Layer_2" data-name="Layer 2"><g id="Layer_1-2" data-name="Layer 1"><polygon class="cls-1" points="53.93 91.2 53.38 97.88 52.74 104.11 50.27 110.42 49.63 115.83 49.45 118.76 49.63 120.86 49.81 122.23 48.9 123.98 48.25 125.81 47.89 131.85 47.89 142.66 47.71 143.84 48.9 145.59 49.72 147.97 50.18 150.9 49.63 151.44 46.7 151.44 44.04 146.41 43.22 139.63 44.5 116.19 45.87 91.75 53.93 91.2"/><polygon class="cls-2" points="49.83 148.65 50.18 150.9 49.63 151.44 46.7 151.44 45.58 149.32 49.83 148.65"/><path class="cls-3" d="M59.61,8.38l-2.75,3.16-1.51,4.94-4.12,12L48.35,38.59,44.77,48.76l-2.47,4L40,54.66l-1.79,2.47,3-.55,4.4-3.29s4.94-10.85,4.94-11.68S58.1,16.07,58.1,16.07Z"/><polygon class="cls-2" points="4.76 83.23 3.75 85.89 2.66 90.92 2.47 99.71 3.21 107.04 3.94 114.27 3.67 118.94 3.21 120.68 3.75 121.41 4.95 116.47 4.85 111.25 4.12 104.66 3.57 99.16 4.49 91.65 4.76 83.23"/><polygon class="cls-1" points="2.47 119.58 3.94 119.21 4.58 120.59 4.03 123.79 3.11 127.36 1.92 131.3 1.83 136.24 2.38 138.72 0.92 136.79 0 130.66 0.46 126.35 1.65 121.78 2.47 119.58"/><polygon class="cls-1" points="23.9 106.76 22.62 115.73 19.96 123.06 18.68 127.09 19.32 130.2 22.25 142.66 23.26 147.51 24.27 148.79 25.55 151.63 24.54 152.36 21.34 152.36 19.78 151.9 19.78 149.89 19.05 148.52 18.5 147.69 19.23 145.5 18.77 141.28 16.12 133.77 13.64 128.37 11.81 122.05 15.57 105.94 23.9 106.76"/><polygon class="cls-4" points="68.03 6.23 67.94 3.02 67.94 1.37 68.77 0.73 68.4 0.09 65.01 0 64.92 0.73 65.65 1.1 65.47 5.86 68.03 6.23"/><polygon class="cls-2" points="82.68 16.07 82 18.13 81.58 19.5 80.35 19.36 75.27 18.68 72.79 18.95 69.08 18.95 67.44 18.4 64.83 20.88 62.77 31.18 61.94 42.99 59.06 53.29 55.9 64.55 55.76 75.68 56.73 82.54 55.21 90.1 51.92 94.35 50.41 101.91 48.21 108.23 46.97 114 46.7 119.77 47.66 121.96 47.66 123.61 46.01 125.12 45.6 129.52 44.91 145.45 46.7 148.6 48.07 151.49 48.35 153.41 45.6 154.1 42.03 153.55 40.66 153 40.66 151.9 41.34 149.57 39.83 148.74 38.87 147.09 40.1 143.39 41.07 132.54 41.48 125.53 40.38 124.02 40.93 120.31 39.56 109.05 37.91 104.11 34.2 106.86 24.86 109.05 21.7 108.09 17.72 107.54 16.07 116.74 14.29 124.16 13.19 125.67 12.78 128.56 11.4 131.99 11.95 139.54 12.91 147.78 13.46 149.57 14.97 151.9 15.8 154.92 12.91 155.34 9.34 155.75 8.52 154.37 9.21 151.35 7.83 150.39 7.83 146.68 7.97 141.19 7.42 133.77 6.18 128.28 7.69 124.02 7.55 113.31 4.67 102.87 3.57 91.47 4.4 83.23 9.62 79.25 14.7 77.74 21.29 74.3 29.67 68.81 32.83 66.89 35.02 62.63 36.81 57 42.03 54.66 45.05 51.78 49.99 38.59 54.25 23.9 57.14 14.83 59.61 8.38 62.35 6.46 62.54 5.31 60.98 2.29 60.25 2.38 59.61 1.56 61.26 0.09 63.36 0.18 63.45 0.82 63 1.56 64.09 3.57 65.1 5.13 67.58 5.86 69.77 5.77 70.96 6.68 72.43 8.97 74.72 9.89 78.01 11.72 81.4 14.28 82.68 16.07"/><polygon class="cls-2" points="62.08 8.7 60.71 8.15 58.24 6.41 56.31 5.58 55.58 6.04 56.04 8.61 58.97 10.9 61.72 10.35 62.08 8.7"/><polygon class="cls-5" points="69.5 9.52 67.85 9.52 67.02 9.06 67.85 8.24 69.77 8.7 69.5 9.52"/><polygon class="cls-3" points="69.68 9.84 68.35 10.9 66.84 10.67 66.84 9.75 66.7 9.29 67.89 8.93 69.18 9.15 69.68 9.84"/><polygon class="cls-5" points="81.38 16.22 80.86 14.78 79.63 14.17 78.81 14.47 81.38 16.22"/><polygon class="cls-3" points="80.8 16.39 80.52 15.02 79.43 14.82 78.61 15.5 80.8 16.39"/><polygon class="cls-4" points="49.99 93.67 51.09 87.9 51.09 81.72 49.45 76.36 48.76 69.22 52.88 61.12 55.49 50.68 59.88 32.27 63.45 20.33 63.73 17.3 64.14 16.62 67.3 17.58 70.87 18.27 74.17 17.99 75.23 18.68 72.79 18.95 69.08 18.95 67.44 18.4 64.83 20.88 62.77 31.18 61.94 42.99 59.06 53.29 55.9 64.55 55.76 75.68 56.73 82.54 55.21 90.1 51.92 94.35 50.41 101.91 50.13 97.24 49.99 93.67"/><path class="cls-4" d="M4.67,102.87l-1.1-11.4L4,86.74l1.32,4.18,1.78,6.73,3,4,3.57.69,2.2-.69s-.41-2.06-.55-2.61-1.23-5.21-1.23-5.21l.14-1.52.54.28,1.24,4.12,1.1,4.26,1.65,1.37,5.35-1s5.09-1.79,5.36-2.2,5.63-5.22,5.63-5.22l2.89-5.35.82,1-.82,4.39.82,5.63,2.75,11.54,1,6.46-.14,4.11v2.62L42.17,135l-.83,8.79L40,146.55l1.51,1.92-.76.76-.89-.49-1-1.65,1.24-3.7,1-10.85.41-7L40.38,124l.55-3.71-1.37-11.26-1.65-4.94-3.71,2.74-9.34,2.2-3.16-1-4-.55-1.65,9.2-1.78,7.42-1.1,1.51-.41,2.89L11.4,132l.55,7.55,1,8.24.55,1.79L15,151.9l.83,3-2.89.42-3.57.41-.82-1.38.69-3-1.38-1v-3.71L8,141.19l-.55-7.42-1.24-5.49L7.69,124l-.13-10.71Z"/><polygon class="cls-3" points="65.01 0 68.4 0.09 68.77 0.73 67.94 1.37 67.94 1.73 65.64 1.47 65.65 1.1 64.92 0.73 65.01 0"/><polygon class="cls-3" points="62.08 1.72 61.1 2.51 60.98 2.29 60.25 2.38 59.61 1.56 61.26 0.09 63.36 0.18 63.45 0.82 63 1.56 63.04 1.64 62.08 1.72"/><polygon class="cls-4" points="56.5 7.87 56.5 6.78 58.24 8.42 60.34 9.34 61.92 9.42 61.72 10.35 60.51 10.59 59.61 10.35 58.14 9.52 56.5 7.87"/><polygon class="cls-5" points="12.91 147.78 13.46 149.57 14.97 151.9 15.8 154.92 12.91 155.34 9.34 155.75 8.52 154.37 9.21 151.35 7.83 150.39 7.83 146.68 7.97 141.19 7.42 133.77 7.34 133.43 9.8 131.21 11.26 128.1 13.28 120.22 16.02 107.4 16.94 103.19 21.34 103.74 25.36 102.09 35.07 98.98 35.98 101.36 37.3 104.56 34.2 106.86 24.86 109.05 21.7 108.09 17.72 107.54 16.07 116.74 14.29 124.16 13.19 125.67 12.78 128.56 11.4 131.99 11.95 139.54 12.91 147.78"/><polygon class="cls-6" points="40.66 153 40.66 151.9 41.34 149.57 39.83 148.74 38.87 147.09 40.1 143.39 41.07 132.54 41.48 125.53 40.38 124.02 40.47 123.42 42.39 123.34 47.66 122.41 47.66 123.61 46.01 125.12 45.6 129.52 44.91 145.45 46.7 148.6 48.07 151.49 48.35 153.41 45.6 154.1 42.03 153.55 40.66 153"/><polygon class="cls-5" points="41.34 143.8 39.97 146.55 41.48 148.47 40.72 149.23 39.83 148.74 38.87 147.09 40.1 143.39 41.07 132.54 41.48 125.53 40.38 124.02 40.47 123.42 42.39 123.34 42.44 123.33 42.44 124.3 42.17 135.01 41.34 143.8"/><polygon class="cls-2" points="47.47 150.23 48.07 151.49 48.35 153.41 45.6 154.1 42.03 153.55 40.66 153 40.66 151.9 40.8 151.42 43.4 151.54 47.47 150.23"/><polygon class="cls-2" points="21.15 150.71 24.77 149.9 25.55 151.63 24.54 152.36 21.34 152.36 19.78 151.9 19.78 150.66 21.15 150.71"/><polygon class="cls-2" points="15 152 15.8 154.92 12.91 155.34 9.34 155.75 8.52 154.37 8.61 153.99 11.26 153.37 15 152"/><polygon class="cls-7" points="60.78 17.72 61.39 18.54 61.74 22.93 59.47 23.07 58.37 23 58.1 21.49 57.75 20.46 57.14 19.64 57.34 18.4 60.78 17.72"/><path class="cls-7" d="M59.4,26l2.54.62.21.47s.14.9-.07,1-2.82,1.1-2.82,1.1l-.82-.76Z"/><polygon class="cls-7" points="56.86 37.22 56.93 37.98 54.87 40.58 53.36 42.16 52.67 42.1 53.29 39.9 53.43 37.43 54.53 36.53 56.86 37.22"/><path class="cls-7" d="M50,42.58l1.79,1.1s.89,2.67.89,2.88-.2,2.27-.2,2.27l-2.27.89-.82-2.41L49,43.81Z"/><polygon class="cls-7" points="45.19 53.08 47.93 53.84 48.97 54.94 48.62 57.82 47.25 59.13 43.61 59.06 43.61 55.01 45.19 53.08"/><polygon class="cls-7" points="54.32 51.23 55.42 51.78 57.48 54.73 55.69 58.65 54.8 58.51 52.53 54.11 54.32 51.23"/><polygon class="cls-7" points="41.75 59.67 43.88 60.23 44.36 63.18 42.1 66.13 40.24 66.89 38.39 63.45 39.56 61.32 41.75 59.67"/><polygon class="cls-7" points="48.07 62.97 48.48 62.9 51.85 64.28 51.78 65.86 50.13 69.84 48.28 69.56 45.6 66.47 45.8 65.31 48.07 62.97"/><polygon class="cls-7" points="43.88 69.98 45.6 69.98 48.42 72.17 47.87 73.69 46.29 77.05 42.78 77.39 40.45 73.14 41.07 71.9 43.88 69.98"/><polygon class="cls-7" points="50.96 74.44 53.77 77.32 53.5 78.56 51.23 79.86 49.45 77.94 49.65 75.81 50.96 74.44"/><polygon class="cls-7" points="36.74 67.5 37.43 68.12 37.84 73.34 37.29 73.34 33.65 72.79 32.14 70.11 32.55 68.05 36.74 67.5"/><polygon class="cls-7" points="38.87 75.19 39.63 75.81 40.24 80.07 39.69 80.83 34.82 81.92 32.96 79.11 32.55 76.29 33.65 74.65 38.87 75.19"/><polygon class="cls-7" points="45.53 81.17 47.45 81.92 46.7 83.98 45.46 85.22 43.4 83.71 43.06 82.41 45.53 81.17"/><polygon class="cls-7" points="48.55 85.43 49.58 86.59 49.51 87.97 48.55 88.11 47.32 86.73 48.55 85.43"/><path class="cls-7" d="M42.17,86.32l1.44.55.48,1.79L42.78,90s-1.3.14-1.3-.07-1-2.41-1-2.41Z"/><polygon class="cls-7" points="43.88 95.66 45.94 97.45 46.35 99.5 45.39 100.19 42.99 99.64 42.17 96.14 43.88 95.66"/><polygon class="cls-7" points="32.69 84.74 33.65 85.7 34.47 90.1 31.52 91.75 29.67 89.96 28.57 89.14 29.53 86.46 31.18 85.08 32.69 84.74"/><polygon class="cls-7" points="28.43 76.02 29.25 77.19 29.94 81.86 29.39 82.41 25.34 80.76 23 79.25 23.76 78.01 26.23 77.05 28.43 76.02"/><path class="cls-7" d="M26,82.68l.75,1.24s-.34.68-.55.68-1.23-.07-1.44-.41S24,82.34,24,82.34Z"/><polygon class="cls-7" points="20.33 83.78 21.91 84.12 24.72 89.96 23 91.88 20.74 93.05 18.82 91.68 16.96 89.34 17.65 86.39 19.43 84.53 20.33 83.78"/><polygon class="cls-7" points="12.16 83.09 13.46 83.98 12.91 86.11 11.54 87.14 10.58 86.66 10.3 84.74 12.16 83.09"/><polygon class="cls-7" points="23.21 95.59 23.42 97.24 20.74 100.06 19.5 100.47 18.48 98.82 17.99 94.97 19.71 94.29 22.32 95.25 23.21 95.59"/><polygon class="cls-7" points="28.98 92.36 30.49 93.6 30.49 96.28 29.53 97.58 28.57 98.27 24.72 95.87 26.17 93.05 27.33 92.71 28.98 92.36"/><path class="cls-7" d="M53,28.16l1.23-4.26,0-.17,1.19.1L56.38,25l.48,2.47-.48,1.17s-1.58.27-1.79.27A10.15,10.15,0,0,1,53,28.16Z"/><polygon class="cls-7" points="51.48 33.45 52.27 30.76 54.59 31.66 54.73 33.17 51.78 33.58 51.48 33.45"/><polygon class="cls-7" points="58.85 37.49 57.41 35.02 57.48 32.96 59.27 31.18 60.71 32.27 61.39 33.3 62.62 33.26 62.2 39.27 58.85 37.49"/><polygon class="cls-7" points="54.66 44.43 55.76 43.54 57.62 42.16 58.78 41.61 60.37 42.78 61.74 43.7 60.47 48.25 54.66 45.19 54.66 44.43"/><polygon class="cls-8" points="58.7 37.23 59.88 32.27 60.04 31.76 60.71 32.27 61.39 33.3 62.62 33.26 62.34 37.23 62.2 39.27 58.85 37.49 58.7 37.23"/><polygon class="cls-8" points="57.5 42.25 57.62 42.16 58.78 41.61 60.37 42.78 61.74 43.7 60.47 48.25 56.56 46.19 57.5 42.25"/><path class="cls-8" d="M61.59,26.56l.35.09.21.47s.14.9-.07,1-.54.2-1.07.41Z"/><polygon class="cls-8" points="53.95 56.85 55.24 51.69 55.42 51.78 57.48 54.73 55.69 58.65 54.8 58.51 53.95 56.85"/><polygon class="cls-8" points="48.76 69.22 51.37 64.08 51.85 64.28 51.78 65.86 50.13 69.84 48.8 69.64 48.76 69.22"/><polygon class="cls-8" points="49.65 75.81 50.96 74.44 53.77 77.32 53.5 78.56 51.23 79.86 50.17 78.72 49.56 76.74 49.65 75.81"/><polygon class="cls-4" points="81.75 18.96 77.33 17.85 77.33 17.3 81.87 18.57 81.75 18.96"/></g></g></svg>