<svg xmlns="http://www.w3.org/2000/svg" viewBox="0 0 99.98 49.03"><defs><style>.cls-1{fill:#634e77;}.cls-2{fill:#936e99;}.cls-3{fill:#563e4e;}.cls-4{fill:#4b2d47;}</style></defs><g id="Layer_2" data-name="Layer 2"><g id="Layer_1-2" data-name="Layer 1"><polygon class="cls-1" points="11.82 12.69 9.41 11.89 8.17 9.41 8.79 8.17 10.28 8.54 12.63 10.83 11.82 12.69"/><path class="cls-2" d="M11.83,12.69l.22-.52-1.73-.69a9.71,9.71,0,0,1-1.2-1.25A12.22,12.22,0,0,0,8.36,9l-.19.38,1.24,2.48Z"/><polygon class="cls-3" points="31.94 27.55 32.13 33.49 32.13 36.71 33 40.74 28.6 42.72 27.18 44.57 27.18 45.13 29.41 45.75 33.18 46 37.64 43.34 35.84 28.91 31.94 27.55"/><polygon class="cls-3" points="79.92 32.94 80.6 35.91 82.21 38.45 81.04 40.8 80.48 42.35 77.63 42.78 77.01 43.71 77.01 44.7 81.35 45.19 84.87 44.33 85.62 36.77 82.46 32.19 79.92 32.94"/><polygon class="cls-4" points="92.37 8.91 95.77 11.82 98.74 14.55 99.67 16.1 99.98 18.2 98.93 18.88 96.51 17.46 92.37 8.91"/><polygon class="cls-1" points="7.74 18.39 4.52 21.98 0.99 25.13 0 27.49 0.68 30.4 4.27 34.98 8.85 35.78 11.52 35.84 11.82 35.54 12.51 35.97 13.93 35.66 15.91 33.99 16.47 31.82 18.32 31.14 20.37 30.09 21.05 27.12 22.91 27.12 25.63 27.73 26.81 25.88 27.92 27.55 30.27 28.91 31.26 28.6 33.8 30.02 34.85 31.45 35.23 37.76 36.46 42.78 33.62 44.45 31.64 45.44 30.77 47.48 34.23 49.03 39.93 48.04 41.54 45.87 43.02 44.45 43.52 43.21 43.65 38.26 44.33 35.84 45.38 35.29 48.29 35.6 54.6 36.96 65.06 37.64 73.98 36.59 79.43 35.16 81.78 33.31 82.65 33.93 83.64 36.22 84.44 37.45 84.26 39.81 83.14 43.09 80.67 44.26 79.36 45.26 79.3 46.86 81.22 47.48 87.78 46.56 89.52 45.81 89.89 44.08 91.5 42.35 92.37 40.98 91.99 39.5 92.92 34.42 93.48 33.37 95.77 29.84 98 23.59 97.44 15.85 90.76 5.51 81.53 1.86 75.9 0 69.58 1.49 63.08 3.16 52.06 3.16 40.43 2.91 37.64 2.35 34.85 2.48 33.74 1.98 32.31 2.1 31.39 2.79 30.03 2.6 26.99 2.66 25.14 3.47 22.23 4.09 19 5.57 14.12 8.36 10.77 11.58 10.77 13.68 8.42 14.3 7.49 14.67 7.24 16.53 8.05 17.15 7.92 17.95 7.74 18.39"/><polygon class="cls-4" points="93.76 20.95 93.29 19.56 89.58 18.36 87.26 15.2 86.52 14.09 84.84 13.81 82.43 13.25 77.88 10 76.11 8.23 76.49 9.16 79.09 12.69 80.94 18.17 80.2 21.51 77.42 23.83 70.54 24.58 62.47 24.58 57.17 27.36 52.81 27.55 48.26 26.25 45.28 23 41.48 19.56 36.19 17.24 32.84 15.38 32.75 13.53 33.12 10.93 33.21 8.88 31.91 6.01 32.01 7.03 32.1 10.28 31.36 12.69 31.36 15.76 30.98 19.01 30.06 25.41 28.43 27.85 30.27 28.91 31.26 28.6 33.8 30.02 34.56 31.06 35.53 28.85 37.76 29.04 42.96 32.75 44.63 34.14 45.24 35.36 45.38 35.29 48.29 35.6 54.6 36.96 65.06 37.64 73.98 36.59 79.43 35.16 81.78 33.31 81.94 33.42 85.87 29.5 93.39 22.44 93.76 20.95"/><polygon class="cls-4" points="93.48 33.37 95.77 29.84 98 23.59 97.51 16.83 96.55 20.77 94.87 23.83 92.36 25.97 88.47 28.94 86.52 31.73 84.56 34.51 86.14 36.46 86.89 38.69 86.89 40.74 86.42 43.15 87.35 44.63 89.66 45.15 89.89 44.08 91.5 42.35 92.37 40.98 91.99 39.5 92.92 34.42 93.48 33.37"/><polygon class="cls-4" points="87.78 46.56 88.8 46.12 88.19 45.56 85.49 44.73 84.87 44.33 83.45 45.38 83.1 47.22 87.78 46.56"/><polygon class="cls-4" points="43.71 35.91 42.87 36.65 42.03 35.91 40.73 34.14 41.11 39.06 40.73 41.66 39.53 43.34 38.78 44.63 41.38 45.38 41.76 45.66 43.02 44.45 43.52 43.21 43.65 38.26 44.19 36.33 43.71 35.91"/><polygon class="cls-4" points="44.33 35.84 44.37 35.82 43.24 34.42 40.73 32.94 41.57 34.14 42.78 35.53 43.95 37.18 44.33 35.84"/><polygon class="cls-4" points="36.19 30.43 34.85 31.45 34.85 31.45 34.93 32.7 36.74 32.28 38.69 32.47 39.62 32.38 37.67 30.89 36.19 30.43"/><polygon class="cls-4" points="42.5 44.36 41.48 45.01 40.36 46.12 38.23 47.42 34.51 47.98 31.7 47.9 34.23 49.03 39.93 48.04 41.54 45.87 42.64 44.82 42.5 44.36"/><polygon class="cls-4" points="16.78 13.43 19.66 13.62 22.72 15.48 23.46 15.2 21.23 12.69 18.45 12.04 16.78 13.43"/><polygon class="cls-4" points="27.92 20.77 25.97 24.11 24.11 25.41 19.75 25.04 20.49 26.81 21 27.32 21.05 27.12 22.91 27.12 25.63 27.73 26.81 25.88 27.21 26.49 28.11 23.55 27.92 20.77"/><polygon class="cls-4" points="20.12 24.95 19.56 23.55 19.1 20.21 19.38 17.06 19.38 15.66 18.45 18.54 18.63 22.81 19.56 26.25 20.9 27.77 21.05 27.12 21.45 27.12 20.12 24.95"/><polygon class="cls-4" points="26.85 25.94 27.75 27.3 28.2 26.16 29.22 23.83 29.41 21.05 28.76 17.43 28.66 14.27 28.85 12.04 27.83 11.76 27.55 12.97 26.81 13.71 25.14 12.78 24.86 11.67 24.11 11.67 24.11 13.34 26.25 16.41 27.45 20.95 27.27 24.67 26.85 25.94"/><polygon class="cls-4" points="22.07 27.12 21.61 26.06 20.21 26.34 18.73 28.39 16.31 30.06 15.66 30.24 15.2 31.54 14.27 32.84 12.06 35.69 12.51 35.97 13.93 35.66 15.91 33.99 16.47 31.82 18.32 31.14 20.37 30.09 21.05 27.12 22.07 27.12"/><path class="cls-2" d="M91.63,6.86l-.87-1.35L81.53,1.86,75.9,0,69.58,1.49l-6.5,1.67h-11L40.43,2.91l-2.79-.56-2.79.13L33.74,2l-1.42.13-.93.68L30,2.6l-3,.06-1.86.81-2.91.62L19,5.57,14.12,8.36l-.72.69,2.45-.73,4-2.13L23,4.71l4-.84,3.81-.19.93.84,1-.93,3.53-.09h3s5,1.11,5.29,1.11S55.41,5.82,55.41,5.82l9.1-.28,9.38-1.76,5.2-1L85,4.24l4.36,1.67Z"/><polygon class="cls-2" points="75.56 13.81 76.49 15.94 76.21 17.61 68.5 19.1 63.86 20.12 59.68 19.84 57.08 18.54 57.45 15.11 57.45 13.15 61.91 13.71 68.87 13.06 73.51 12.51 75.56 13.81"/><polygon class="cls-2" points="77.04 5.45 76.67 6.66 78.16 8.23 83.73 9.53 86.05 8.61 85.77 7.21 82.15 6.56 79.36 5.91 77.04 5.45"/><polygon class="cls-2" points="10.77 11.58 10.77 13.68 8.42 14.3 7.49 14.67 7.24 16.53 8.05 17.15 7.92 17.95 7.74 18.39 4.52 21.98 0.99 25.13 0 27.49 0.39 29.15 1.92 28.11 5.36 24.48 7.58 21.33 11.02 19.19 10.65 17.61 11.39 15.76 12.51 15.11 13.34 12.78 13.81 10.56 13.95 8.52 10.77 11.58"/><polygon class="cls-4" points="15.27 34.53 11.3 34.33 7.49 32.19 5.91 30.34 4.89 29.04 2.76 29.04 0.13 28.04 0.68 30.4 4.27 34.98 8.85 35.78 11.52 35.84 11.82 35.54 12.51 35.97 13.93 35.66 15.27 34.53"/><polygon class="cls-2" points="3.03 30.52 2.76 29.04 3.59 27.64 4.89 27.36 5.73 27.73 5.51 28.29 3.03 30.52"/><polygon class="cls-3" points="3.59 30.48 3.54 29.64 3.87 28.75 4.8 28.34 5.49 28.2 5.63 28.71 5.36 29.17 4.38 29.73 3.92 30.2 3.59 30.48"/><polygon class="cls-1" points="13.85 15.43 12.13 15.85 11.34 17.06 11.34 18.22 11.72 19.43 13.67 20.49 15.48 19.66 15.94 17.75 15.29 15.85 14.22 15.34 13.85 15.43"/><polygon class="cls-3" points="11.99 17.38 12.6 18.4 13.11 18.26 13.15 18.54 13.99 18.36 14.36 17.43 13.57 16.5 12.41 16.45 11.99 17.38"/><polygon class="cls-2" points="15.57 16.66 15.29 15.85 14.22 15.34 13.85 15.43 12.13 15.85 11.34 17.06 11.34 18.22 11.72 19.43 11.75 19.44 11.86 18.59 12.18 17.66 12.78 17.01 14.13 16.5 15.57 16.66"/><polygon class="cls-4" points="15.52 18.4 14.64 19.33 13.43 19.52 12.51 19.86 13.67 20.49 15.48 19.66 15.94 17.77 15.52 18.4"/><polygon class="cls-2" points="13.76 12.18 14.55 10.74 14.92 8.65 16.22 6.7 17.84 6.47 19 7.58 18.49 9.26 16.73 11.39 15.2 12.83 14.87 13.25 13.76 12.18"/><polygon class="cls-1" points="15.06 11.99 15.75 10.23 16.55 8.05 17.38 7.49 18.31 7.77 18.22 8.56 17.24 10.14 15.06 11.99"/><polygon class="cls-2" points="35.64 43.26 33.62 44.45 31.64 45.44 31.24 46.37 32.38 46.31 33.99 46.06 36.46 45.69 38.45 45.69 36.71 45.19 35.64 43.26"/></g></g></svg>