<svg xmlns="http://www.w3.org/2000/svg" viewBox="0 0 72.96 40.44"><defs><style>.cls-1{fill:#cc6060;}.cls-2{fill:#dd7772;}.cls-3{fill:#f9a4a0;}.cls-4{fill:#bc4d4d;}</style></defs><g id="Layer_2" data-name="Layer 2"><g id="Layer_1-2" data-name="Layer 1"><polygon class="cls-1" points="9.15 20.09 9.64 23.75 10.98 26.23 12.38 32.15 13.3 33.82 13.35 35.54 14.86 36.4 17.02 36.29 14 29.29 11.95 21.65 9.15 20.09"/><polygon class="cls-1" points="42.11 25.68 43.35 27.63 43.83 28.22 44.69 36.51 45.34 37.32 47.39 37.53 49.16 37.53 49.11 36.83 47.28 35.43 47.33 33.87 48.14 27.95 45.45 22.67 42.11 25.68"/><polygon class="cls-1" points="61.01 8.02 63.11 6.84 64.62 5.17 69.46 4.15 69.41 5.28 67.53 6.62 64.46 12.06 61.01 8.02"/><path class="cls-2" d="M57.67,3.88l2.59,2.64,2.42,2.1,3.5,2.74.7,2.05.38,2.21L69.52,18l1.83,1.62,1,1.35.59.21-.16.65-2.64,4.25-.43-.37-.16-.38-2.74.27-1.73.64-2.8.54-3.88-1.24-3.5-1.29-.91.7-.59,1.46.21,1.18L53,31.29l.54,3.76a4.23,4.23,0,0,1,.48.87c0,.16.54,1.88.54,1.88l1.83,2.05-.38.59L52.93,40l-1.67-.59.27-1-.91-1.77-.43-1.57L48.62,30.8l-1.07-1.13L46,27.09l-1-2.16L40.65,27,36.78,28.7l-4.36-.05-2.1-.81-4.69-1.45-2.8-1.3L21.48,27l-.43,1.08.27,2.69-.64.75-1.56,2.11.16,1.5.16,2.43,1.67,1.94v.37l-4.2.22.1-.81-.64-.86.16-1.78-.65-2.21-2.47-5.33-.92-3.77L11,22.89,8.29,20l-.7-4.85L6.46,10.66,8.78,6.57l4.9-3.23L22.88,0l8.57.21,3.77-.1,5.16,1.34H51.59Z"/><polygon class="cls-3" points="61.06 14.27 60.26 14.92 58.91 13.35 59.07 12.28 61.92 9.15 66.18 7.22 66.88 7.32 66.56 8.72 65.96 10.77 64.78 13.52 63.22 13.57 61.06 14.27"/><path class="cls-1" d="M7,11.36,5.76,13.3l-2.1-3L.32,12l1.51,3.67,1.29.64.7.11-1.07.92-1.51.32L0,17.45l.86,1.13,2.37-.65,1.83-1.78.81-.21,1.72-3.18ZM4.63,14.75l-1.29.38L2,13l.16-.76,1.19-.59,1.07,1L5,13.73Z"/><polygon class="cls-4" points="68.6 23.8 66.99 23.69 65.96 23.48 65.53 22.99 65.1 22.62 64.89 23.05 65.21 23.59 66.13 24.07 66.88 24.07 68.12 24.18 68.6 24.74 67.79 24.74 66.02 24.9 62.38 24.34 58.02 23.29 55.76 20.38 54.55 16.02 54.47 19.33 53.9 21.27 53.98 22.97 53.5 24.74 53.57 26.01 54.01 24.93 54.92 24.23 58.42 25.52 62.3 26.76 65.1 26.23 66.83 25.58 69.57 25.31 69.73 25.68 70.16 26.06 70.59 25.38 69.63 24.23 68.6 23.8"/><polygon class="cls-1" points="24.02 20.22 26.04 19.09 27.57 16.75 26.76 13.27 26.76 11.66 26.44 11.5 26.44 13.76 25.87 16.34 23.77 18.93 23.13 19.9 24.02 20.22"/><polygon class="cls-3" points="71.59 22.48 70.86 23.29 70.14 23.85 70.3 24.42 70.75 25.12 72.8 21.81 72.96 21.16 72.47 20.98 71.59 22.48"/><polygon class="cls-1" points="66.58 16.59 66.1 16.99 65.29 17.47 64.16 17.07 63.51 15.62 63.67 14.65 64.81 14.65 65.94 14.65 66.58 15.37 66.58 16.59"/><polygon class="cls-1" points="65.45 8.59 63.27 9.64 61.74 10.85 60.69 13.11 60.21 14.87 60.26 14.92 61.06 14.27 63.22 13.57 64.26 13.53 65.29 11.74 65.86 9.64 66.26 7.94 65.45 8.59"/><path class="cls-1" d="M24.1,19.9,27.89,21l4.77.72,6-.16,4.68-1.21-.4,3.15S35.16,26,34.92,26s-6.46-.33-6.71-.49l-4.36-2.91L23.21,21l-.08-1.13Z"/><polygon class="cls-1" points="44.69 18.04 44.61 20.46 46.87 23.85 49.38 27.09 51.16 31.04 52.2 33.95 53.18 38.07 52.28 38.64 51.64 36.94 50.02 33.14 49.46 30.88 48.01 29.18 46.39 26.84 45.5 24.9 44.21 23.45 42.27 22.56 42.75 19.65 44.69 18.04"/><polygon class="cls-1" points="17.56 1.93 13.68 3.34 8.78 6.57 7.74 8.41 7.86 11.9 8.75 16.83 10.93 21.27 12.06 23.77 13.35 26.52 15.29 29.91 16.26 33.79 16.83 36.78 16.91 38.48 18.68 37.83 18.12 36.05 18.2 31.53 18.04 27.57 15.05 24.26 11.58 17.31 10.61 10.93 12.46 5.2 17.56 1.93"/><polygon class="cls-4" points="8.78 6.57 6.46 10.66 7.59 15.13 8.29 19.98 10.98 22.89 12.49 25.36 13.41 29.13 15.88 34.46 16.53 36.67 16.37 38.45 17.02 39.31 16.91 40.12 17.04 40.11 17.88 38.72 19.01 37.91 18.68 37.59 17.39 38.15 17.23 37.18 16.99 35 16.42 32.17 16.75 30.64 16.34 29.43 14.97 27.73 14.32 26.52 14.4 25.63 13.27 24.26 12.46 23.45 10.69 19.57 9.64 16.67 8.26 11.98 8.78 6.57"/><polygon class="cls-4" points="42.59 19.09 41.95 21.11 40.82 22.4 38.15 23.61 34.19 24.1 29.51 23.53 26.28 22.08 24.26 21.19 23.13 20.79 23.37 22.16 23.37 23.13 22.93 25.14 25.63 26.39 30.32 27.84 32.42 28.65 36.78 28.7 40.65 27.03 44.91 24.98 44.69 24.42 43.64 22.89 43.56 20.06 44.69 18.04 45.58 15.54 44.29 17.72 42.59 19.09"/><polygon class="cls-4" points="52.93 39.95 53.92 40.11 52.69 38.88 54.23 38.15 54.06 37.75 52.28 38.07 51.96 36.45 50.99 33.79 50.43 31.45 48.89 29.83 46.63 26.6 45.1 23.37 43.4 21.92 43.92 25.46 45.02 24.93 45.99 27.09 47.55 29.67 48.62 30.8 50.19 35.05 50.62 36.62 51.53 38.39 51.26 39.36 52.93 39.95"/><polygon class="cls-4" points="66.34 16.02 65.77 15.62 64.4 15.62 63.84 15.46 64.24 16.18 65.37 16.18 66.02 16.18 66.34 16.02"/><path class="cls-3" d="M59.45,5.69,57.67,3.88,51.59,1.45H40.38L35.22.11l-3.77.1L22.88,0l-4.7,1.71,4.14-.47L26.76.91l6-.08,3.31.33,4.44,1.37h4.36l5.09-.73s2.59.49,2.83.57,4,1.7,4,1.7l2.34,1.45Z"/></g></g></svg>