<svg xmlns="http://www.w3.org/2000/svg" viewBox="0 0 98.4 120.79"><defs><style>.cls-1{fill:#ac7c53;}.cls-2{fill:#aa6f39;}.cls-3{fill:#965b2a;}.cls-4{fill:#cba15e;}.cls-5{fill:#604330;}.cls-6{fill:#815a3f;}.cls-7{fill:#b78558;}.cls-8{fill:#c6a271;}</style></defs><g id="Layer_2" data-name="Layer 2"><g id="Layer_1-2" data-name="Layer 1"><path class="cls-1" d="M6,65.39l.69,7.54,3.09,8.41-.69,7.72L6.17,93.51,5,95.74l.86,4.12-.51,10.29v2.23l1,.86L7,115.12l.52,1.38,3.77.85,2.92-.34V115l-3.09-1.54-.69-1.89-1-.85-.34-10.3L14.24,97l3.25-12s-1.71-14.24-2.4-14.41-3.94-7.37-3.94-7.37Z"/><path class="cls-1" d="M59.17,83.4l-.68,10.29-.18,5.14.52,2.4-.34,3.43-.69,6.69-.69,2.06,1,1.54.52,2.4,1.2.86,4.45.35.52-1-2.57-3.26-.86-.69.34-2.91L63.12,99S65,93,65,92.49s.35-13.21.35-13.21Z"/><polygon class="cls-2" points="0 64.96 2.83 64.44 6.69 61.74 16.08 53.25 21.1 50.68 24.05 50.81 34.86 52.22 46.18 52.74 49.78 52.35 55.18 50.94 59.69 50.94 63.67 50.81 66.5 48.88 69.33 44.25 74.22 35.12 77.05 31.13 81.3 30.49 85.8 32.29 90.43 35.5 91.2 37.17 96.22 40.13 98.4 41.68 98.4 43.09 96.99 44.63 95.96 45.41 95.32 46.56 91.33 46.44 88.63 47.59 88.37 49.91 90.94 52.74 90.04 59.81 86.57 67.15 81.3 73.06 77.31 80.27 75.25 83.35 72.93 85.28 71.78 94.29 70.88 99.82 70.1 101.62 70.88 113.58 71.26 115.38 73.06 117.44 73.06 118.21 75.12 119.63 75.38 120.79 70.49 120.66 69.72 119.24 69.2 117.95 68.05 117.95 67.66 116.41 68.05 114.1 66.12 101.62 64.44 99.05 62 89.66 60.97 84.51 54.41 85.03 46.69 83.61 38.46 82.71 34.34 82.32 30.87 83.22 29.33 88.63 25.21 93.39 20.07 98.15 19.04 100.72 19.55 104.32 22.9 114.35 23.32 115.47 26.07 117.18 26.75 119.93 20.92 119.24 20.07 117.35 20.07 115.81 18.86 115.64 18.35 114.1 18.69 111.87 16.29 106.38 11.84 98.32 12.01 96.09 13.55 94.03 14.75 85.45 11.84 79.45 9.26 71.56 8.92 67.28 5.32 68.3 2.06 66.93 0 64.96"/><path class="cls-3" d="M68.09,100.2S66.37,92,66.37,91.46s-1.54-6-1.54-6l-3.26-1.88-.68-3.78,1.71-3.25-.86-1.72-1.2,2.23-4.63,3.09-17.84.17-5.65-1.54-2.92.17,1.21,4.85.16-.57,3.47-.9,4.12.39,8.23.9L54.41,85,61,84.51l1,5.15,2.45,9.39,1.67,2.57L68,113.68l.8-.1-.52-6.86.69-3.94Z"/><polygon class="cls-3" points="12.01 96.09 11.84 98.32 16.29 106.38 18.69 111.87 18.35 114.1 18.86 115.64 20.07 115.81 20.07 117.35 20.92 119.24 26.75 119.93 26.07 117.18 23.32 115.47 22.9 114.35 19.55 104.32 19.04 100.72 20.07 98.15 24.25 94.28 20.41 94.37 19.21 91.46 19.04 85.97 15.09 80.65 12.01 73.62 10.63 64.36 10.8 61.44 8.92 63.16 4.97 66.42 1.12 66.03 2.06 66.93 5.32 68.3 8.92 67.28 9.26 71.56 11.84 79.45 14.75 85.45 13.55 94.03 12.01 96.09"/><polygon class="cls-3" points="24.52 62.13 25.55 61.27 33.27 69.85 33.79 73.96 31.73 76.19 29.84 76.19 28.81 71.56 26.75 66.07 24.52 62.13"/><path class="cls-4" d="M82.84,32.29,88,33.82,85.8,32.29l-4.51-1.8-4.24.64-2.83,4-4.89,9.13L66.5,48.88l-2.83,1.93-4,.13h-4.5l-5.4,1.41-3.6.39-11.32-.52L24.05,50.81l-2.95-.13-5,2.57-4,3.66,5.11-2.67,4.12-2.4L30,53.38l11,2.06,7.2.17,6.69-2.74,7.21.51,5.31,1.55,3.43,3.6,1-1-1.71-8.23s1.71-5.66,1.71-6.18,3.43-7,3.43-7l3.26-3.6Z"/><path class="cls-3" d="M90.94,52.74l-2.57-2.83.26-2.32.47-.2L87,47.72l-3.78-.86-3.09-4.8,3.09,6.52,1.89,4.12S83.7,58.53,83.7,59s-2.92,10.64-2.92,10.64l-2.06,4.8-2.4,5.14-2.23,2.75L74.5,84l.75-.63,2.06-3.08,4-7.21,5.28-5.91L90,59.81Z"/><path class="cls-3" d="M88.63,36.53l2.7,2.19c-.39.51-3.6-1.42-3.6-1.42Z"/><polygon class="cls-5" points="89.4 36.14 89.21 37.17 89.46 37.88 87.53 37.69 86.63 37.3 87.86 36.4 88.44 35.76 89.4 36.14"/><polygon class="cls-3" points="88.37 44.89 84.9 44.25 82.07 40.39 81.3 40.52 82.07 42.7 84 45.15 87.73 46.05 90.23 46.91 91.33 46.44 95.32 46.56 95.96 45.41 91.46 44.51 88.37 44.89"/><polygon class="cls-6" points="98.4 41.68 97.44 40.99 96.6 41.29 96.73 42.45 97.37 42.58 97.59 43.98 98.4 43.09 98.4 41.68"/><polygon class="cls-1" points="80.65 32.16 78.21 31 75.51 27.27 72.93 28.04 74.35 31.13 79.49 33.44 80.65 32.16"/><polygon class="cls-7" points="82.45 22.25 86.57 22.25 90.04 20.84 92.49 18.65 93.13 19.42 89.53 23.67 86.06 24.7 80.91 25.08 82.45 22.25"/><path class="cls-8" d="M49.78,16.08l-5,5.66L40.39,25l-1.8.65.51.9,4.12-1.67,4.25-3,3.85-2.19,4.51-1,7.46,1,10.54,2.19,3.86,2.83,1.93,4.63.78,1.8,2.57.38-.39-4-.38-2.19,1.28-1.29L85,19.81l3.34-4.76L89,13.12,88,13,86.7,15.18,84,17.75l-3.22,2.32-1.93.51-1.67-.77-.13-3,3-2.44,2.32-2.58,1-2.44L82.58,9l-1.8,2.32-3.86,3.22-2.18,1.54L71,17.49l-1.67-2-1.8-5.67-.64-3.85L66.5,4l-.9.25-.13,3.22.26,4.37v3L64.06,16l-3.22.77-2.57-1L56.21,14,53.13,9.26,50,5.14,48.62,0,47.34.64l.77,4.12s.9,2.83,1,3.21,1.41,3.48,1.41,3.48l.26,2.83Z"/><path class="cls-7" d="M60.84,16.72l-2.57-1L56.21,14,53.13,9.26,50,5.14,48.62,0l-.11.06c.2,1.32.54,3.41.54,3.41l2.4,6,4.89,5.83,2.74,1.45,2.32.43.84-.8Z"/><polygon class="cls-7" points="80.27 26.63 76.58 22.51 66.89 19.51 56.6 17.54 54.11 16.51 51.11 18.22 45.96 21.91 40.3 25.51 38.83 26.02 39.1 26.5 43.22 24.83 47.47 21.87 51.32 19.68 55.83 18.65 63.29 19.68 73.83 21.87 77.69 24.7 79.62 29.33 80.4 31.13 81.16 31.24 80.27 26.63"/><polygon class="cls-7" points="77.05 14.43 76.92 14.54 74.74 16.08 71 17.49 69.33 15.44 67.53 9.78 66.89 5.92 66.5 3.99 66.44 4.01 66.8 8.53 67.58 14.28 69.2 17.88 71.69 18.57 74.44 17.19 77.05 14.43"/></g></g></svg>