<svg xmlns="http://www.w3.org/2000/svg" viewBox="0 0 80.9 73.16"><defs><style>.cls-1{fill:#bc6e39;}.cls-2{fill:#dd7772;}.cls-3{fill:#cc6060;}.cls-4{fill:#d8ac6c;}.cls-5{fill:#e0b882;}.cls-6{fill:#ce8651;}.cls-7{fill:#b28056;}</style></defs><g id="Layer_2" data-name="Layer 2"><g id="Layer_1-2" data-name="Layer 1"><polygon class="cls-1" points="24.15 45.56 21.53 52.11 18.8 56.27 18.44 57.34 19.27 63.17 19.63 64.72 20.94 66.38 22.36 68.4 22.01 69.6 19.51 69.83 16.54 68.4 17.37 66.98 17.37 65.55 16.3 64.6 16.65 60.91 16.18 55.91 15.46 50.92 22.13 43.42 24.15 45.56"/><polygon class="cls-2" points="29.27 47.11 28.07 51.04 25.22 54.73 24.63 55.8 23.55 56.27 23.32 54.6 22.25 54.37 21.65 55.68 20.22 55.56 20.22 53.3 18.91 51.51 18.08 48.54 26.89 44.97 29.27 47.11"/><polygon class="cls-3" points="29.27 47.11 28.38 46.31 28 46.4 26.57 49.41 23.55 51.15 21.65 51.15 19.11 49.09 18.33 49.41 18.91 51.51 20.22 53.3 20.22 55.56 21.65 55.68 22.25 54.37 23.32 54.6 23.55 56.27 24.63 55.8 25.22 54.73 28.07 51.04 29.27 47.11"/><polygon class="cls-1" points="59.72 43.42 59.36 51.27 58.53 56.15 58.29 59.84 59.72 64.6 59.72 66.14 61.38 67.1 62.46 69.12 59.36 70.07 57.34 68.88 54.13 54.13 55.79 45.56 59.72 43.42"/><path class="cls-4" d="M69.24,22.29l2.06.16L75,22.37l-.48,1.5.32,3.49L76,29.5l.32,1.27.63-.47V28.79l1-3.49,1.27-2.93,1.11-.24.56-2.06-.24-2.62L79,16.58l-2.46-1.43-3.17-2.34L71.22,11.3,67.41,8.57l-3.33-.32-3.8,1.59-2.86,6L53.3,19.67l-3.22,2.46-4.4.71s-2.62,1.9-3,2-8.09,1.31-8.09,1.31l-9.4-1.54-4.4-1.43-5,.47-6.3,2L8.45,27.36,5,27.24,1.43,25,0,25.7l1.19,5,2.5,1.43,3.09-1.19,1,1.19L7.37,35l1.19,3.21,1.79,4.64-1.19,7L6.66,52l.12,1.19,1.78,4.16,1.08,8.21L9.4,67.1l1.66,1.19.12,1.19-.59,1.66,4.28,1.43,1.67-.48.11-1.31L15,68.29,13.56,67.1,13,62l.35-6.9,2.14-1.9,4.76-4,2-1.54,7.37.95,8.21,1.54,10-2.61,2.26-.84,1.07,2.15-.23,4.64-.48,2.49,1.31,2.74,1.19,1.07,1.66,8.8-.47,1.55,1.19.83L56,72.57l3.33.59,2.14-.23-.12-2.62-2.61-1.19-1-3-2-8.8.36-2.62,1.07-7.13,4.16-3.81,1.55-4.52.12-3.81,4.4-9.4Z"/><polygon class="cls-5" points="64 9.4 66.86 9.64 66.26 6.54 63.17 2.85 56.63 0 56.15 0.59 61.03 3.09 63.29 6.66 64 9.4"/><polygon class="cls-6" points="65.31 10.47 63.88 10.59 59.72 16.18 58.53 17.73 59.72 19.15 62.69 18.2 65.07 13.8 65.55 11.54 66.38 11.06 66.14 10.23 65.31 10.47"/><polygon class="cls-6" points="11.42 46.87 9.64 50.92 8.45 51.99 8.56 53.41 10.11 52.11 11.54 48.54 11.9 46.52 11.42 46.87"/><polygon class="cls-6" points="69.24 22.29 71.3 22.45 74.95 22.37 74.47 23.87 74.79 27.36 75.98 29.5 76.3 30.77 76.93 30.3 76.93 28.79 77.96 25.3 79.23 22.37 80.34 22.13 80.74 20.66 79.23 20.94 76.97 20.82 74.71 20.34 73.04 20.11 70.43 19.98 68.28 19.27 66.62 17.96 65.91 16.54 65.19 15.23 65.31 17.25 66.02 19.15 66.5 20.58 67.33 21.77 67.1 23.32 65.31 28.19 63.77 31.88 62.1 33.91 61.03 32.83 59.48 31.05 58.29 30.57 58.77 31.41 60.55 33.79 61.03 36.16 59.96 38.66 57.46 42.83 56.87 45.45 56.39 46.87 57.22 47.59 61.38 43.78 62.93 39.26 63.05 35.45 67.45 26.05 69.24 22.29"/><polygon class="cls-6" points="47.7 41.52 45.44 43.18 41.04 44.61 37.23 44.97 30.34 45.09 27.84 44.37 25.58 43.9 23.43 42.11 23.32 43.3 22.96 45.2 21.88 47.87 22.25 47.59 29.62 48.54 37.83 50.08 47.82 47.47 50.08 46.63 50.19 46.84 50.56 44.97 47.7 41.52"/><polygon class="cls-6" points="53.77 58.65 52.58 57.22 51.39 54.96 51.51 52.34 51.11 49.56 50.92 53.41 50.44 55.91 51.75 58.65 52.94 59.72 54.6 68.52 54.13 70.07 54.54 70.36 54.84 67.93 54.37 65.43 53.77 58.65"/><polygon class="cls-6" points="56.87 64.48 57.63 65.32 55.79 57.34 56.15 54.73 56.28 53.86 55.44 56.39 54.96 57.46 56.15 61.62 56.87 64.48"/><path class="cls-6" d="M13.6,67.13l-1.23.08-.83-.35-.36-1.43s-.59-3-.71-3.33-.24-3.57-.24-3.57l-.71-2.85L7,53.75l1.54,3.59,1.08,8.21L9.4,67.1l1.66,1.19.12,1.19-.59,1.66,4.28,1.43,1.67-.48.11-1.31L15,68.29Z"/><polygon class="cls-6" points="7.73 32.12 7.38 34.98 8.56 38.19 10.35 42.83 9.35 48.71 10.23 48.06 10.94 45.92 12.37 45.09 12.49 42.95 11.54 40.69 9.52 36.76 9.04 32.36 7.73 30.1 5.95 30.1 2.85 29.74 0.95 28.07 0.36 25.52 0 25.7 1.19 30.69 3.69 32.12 6.78 30.93 7.73 32.12"/><polygon class="cls-1" points="50.47 44.86 46.63 46.28 38.78 48.42 30.81 47.59 22.52 46.28 21.88 47.87 22.25 47.59 29.62 48.54 37.83 50.08 47.82 47.47 50.08 46.63 50.19 46.84 50.56 44.97 50.47 44.86"/><polygon class="cls-4" points="16.54 72.09 16.65 70.78 15.96 69.74 13.44 70.19 10.8 70.53 10.59 71.14 14.87 72.57 16.54 72.09"/><polygon class="cls-6" points="61.5 72.93 61.38 70.31 61.34 70.29 59.24 70.67 55.49 71.31 56.03 72.57 59.36 73.16 61.5 72.93"/><polygon class="cls-1" points="62.69 18.2 65.07 13.8 65.49 11.84 64.16 12.37 62.49 14.83 61.47 17.05 61.32 18.64 62.69 18.2"/><polygon class="cls-1" points="79.79 21.25 80.59 21.21 80.73 20.67 79.86 20.78 78.36 20.54 76.97 20.82 77.01 21.18 78.28 21.02 79.79 21.25"/><polygon class="cls-1" points="80.26 18.56 79.71 17.92 78.75 17.84 78.91 18.16 78.83 18.56 80.26 18.56"/><polygon class="cls-6" points="71.54 14.75 70.27 13.48 69.56 12.63 69.24 11.98 68.01 11.94 67.25 12.69 68.05 13.48 69.16 13.64 70.43 14.44 71.38 14.99 71.54 14.75"/><polygon class="cls-1" points="68.21 12.53 67.86 12.92 68.28 13.21 69.59 13.32 69.33 13.03 69.26 12.39 68.21 12.53"/><polygon class="cls-4" points="75.54 22.43 76.26 22.43 75.84 23.97 75.54 25.64 75.54 26.89 75.19 25.28 75.54 22.43"/><polygon class="cls-4" points="76.38 23.73 75.9 25.28 75.9 26.83 76.38 28.02 76.44 25.82 76.97 23.02 76.38 23.73"/><polygon class="cls-7" points="66.26 6.54 64.17 4.05 64.54 4.76 65.85 7.14 64.84 7.73 63.82 6.9 61.27 2.8 57.99 1.25 56.23 0.49 56.15 0.59 61.03 3.09 63.29 6.66 64 9.4 66.86 9.64 66.26 6.54"/></g></g></svg>