<svg xmlns="http://www.w3.org/2000/svg" viewBox="0 0 65.63 48.25"><defs><style>.cls-1{isolation:isolate;}.cls-2{fill:#d8650f;}.cls-3,.cls-4{fill:#d6c9c3;}.cls-4{mix-blend-mode:multiply;}.cls-5{fill:#66524a;}.cls-6{fill:#44352e;}.cls-7{fill:#ff7e27;}</style></defs><g class="cls-1"><g id="Layer_2" data-name="Layer 2"><g id="Layer_1-2" data-name="Layer 1"><path class="cls-2" d="M46.73,18.75l3.88,2.47,1.51,1.68.35.53,1.59,1.06.53.53.79.71s2.92,2.74,3,3a.4.4,0,0,1-.18.44s1.15,1.06,1.42,1.33,2.12,2.65,2.12,2.65L64,36.24l1.33,3.36.35,4.15-.35,1a15.6,15.6,0,0,1-2.3-.44c-.26-.18-4-.8-4-.8l-2.92-2.29s-3.53-3.8-3.62-4.07-1.5-1.59-1.59-1.85-1-.8-1-1.15-.18-3.18-.18-3.18l-.79-2.83a16.13,16.13,0,0,1-1.24-2.47C47.7,25.29,46.73,18.75,46.73,18.75Z"/><path class="cls-3" d="M59.36,42.33l-.53-.79,1.77-.35,1.06-1.95,1.41.09,1.24.62L65,39l.24.6.35,4.15-.35,1a15.6,15.6,0,0,1-2.3-.44c-.26-.18-4-.8-4-.8l-.76-.59Z"/><path class="cls-4" d="M47.53,24.27l1.76.57,1.5,5.48,1.94,3.18,3.1,3.71L58.48,40l2.12,1.24,2,1.23,2.91.29.09,1-.35,1a15.6,15.6,0,0,1-2.3-.44c-.26-.18-4-.8-4-.8l-2.92-2.29s-3.53-3.8-3.62-4.07-1.5-1.59-1.59-1.85-1-.8-1-1.15-.18-3.18-.18-3.18l-.79-2.83a16.13,16.13,0,0,1-1.24-2.47C47.7,25.54,47.63,25,47.53,24.27Z"/><path class="cls-5" d="M10.51,3.78c-.06-.2-1.32-2.52-1.32-2.52l-1-.33L8,1.66,7.93,2.92,7.86,4.64Z"/><polygon class="cls-2" points="35.07 29.44 34.89 33.23 35.95 35.97 37.63 37.83 39.13 39.06 39.4 40.04 39.13 41.8 37.98 44.28 37.63 44.63 36.66 44.9 35.77 45.95 35.95 46.66 38.25 46.66 39.75 46.57 39.93 45.34 40.37 44.81 40.46 43.92 41.43 42.07 42.84 39.51 42.49 38.27 40.99 37.48 40.01 34.12 39.13 27.76 35.07 29.44"/><polygon class="cls-6" points="37.63 44.63 37.98 44.28 39.13 41.8 39.4 40.04 39.23 39.41 39.84 39.15 40.63 39.68 41.87 39.42 42.76 39.23 42.84 39.51 41.43 42.07 40.46 43.92 40.37 44.81 39.93 45.34 39.75 46.57 38.25 46.66 35.95 46.66 35.77 45.95 36.66 44.9 37.63 44.63"/><polygon class="cls-2" points="14.84 28.73 15.28 34.21 15.63 38.27 15.72 40.48 15.1 42.77 13.96 43.22 13.16 44.19 13.25 45.07 15.55 44.98 16.7 43.84 17.75 39.77 17.75 29.61 14.84 28.73"/><polygon class="cls-5" points="13.16 44.19 13.96 43.22 15.1 42.77 15.72 40.48 15.63 38.27 15.28 34.21 15.16 32.68 16.61 32.26 17.75 33.07 17.75 39.77 16.7 43.84 15.55 44.98 13.25 45.07 13.16 44.19"/><path class="cls-2" d="M0,10.71.53,12.3l1.41,1.06,2.83-.26H7l1.68,1.32,1.85,5.83,1.33,4.95,1.76,2.91,2,2.47,1.15.8L17.14,38l.17,4.25.18,1.14-.62,2-1.15.26-.79,1.5.44.36,3.45-.36.88-3.36.15-2,.2-2L20.67,38l.88-6.88,1.15-.89,2.65.62,4.77-.09,6.1-.88,1.67,2.47,1,2.56,2.29,2,4,2,1.06,1-.62,5.48-1.06.35-1,.79-.27,1.59.89.09h2.2L47.79,47l.62-.53.17-3.36,1.33-4.68L47.79,35.8l-.27-2.39,1.24-4.24,1.06-4.06s-.62-3.18-.71-3.45-2.29-3.35-2.29-3.35l-4.77-2-8.31-.71-7.06-.71-1.77-1-2.65-.27L20.85,13l-2.3-3.45L15,5.06l-3.1-1.68-3.18.26L5.3,6.21l-.79,1.5L3.18,8.86Z"/><polygon class="cls-6" points="15.72 45.69 16.87 45.43 17.49 43.39 17.31 42.25 17.14 38.01 16.83 32.29 18.02 32 18.37 31.2 20.41 30.5 21.48 31.69 20.67 38.01 20.05 39.82 19.85 41.8 19.7 43.84 18.82 47.19 15.37 47.55 14.93 47.19 15.72 45.69"/><polygon class="cls-6" points="41.16 36.95 40.63 36.48 41.43 36.5 45.49 37.21 47.26 36.86 47.77 35.61 47.79 35.8 49.91 38.45 48.58 43.13 48.41 46.48 47.79 47.02 46.37 48.25 44.17 48.25 43.28 48.16 43.55 46.57 44.52 45.78 45.58 45.43 46.2 39.95 45.14 38.98 41.16 36.95"/><polygon class="cls-3" points="21.29 29.52 21.73 28.73 26.06 29.17 31.18 29.17 35.07 28.91 36.48 28.82 36.22 29.88 30.12 30.76 25.35 30.85 22.7 30.23 21.85 30.89 21.29 29.52"/><polygon class="cls-3" points="2.38 11.33 4.42 10.36 6.01 9.65 8.39 10 11.39 11.24 13.34 11.86 13.78 12.92 13.25 15.3 12.81 19.9 13.25 23.16 15.28 27.32 16.16 29.61 16.29 31.04 15.63 30.59 13.6 28.11 11.84 25.2 10.51 20.25 8.66 14.42 6.98 13.1 4.77 13.1 1.94 13.36 0.53 12.3 0.35 11.76 2.38 11.33"/><polygon class="cls-4" points="18.37 46.31 18.99 43.39 19.08 40.04 19.79 37.39 19.79 29.97 19.43 27.94 21.02 26.88 26.94 28.11 33.13 27.76 37.54 26.08 38.69 26.61 38.07 28.64 40.46 33.59 43.99 36.77 46.9 39.77 46.29 43.75 45.71 44.23 46.2 39.95 45.14 38.98 41.16 36.95 38.87 34.91 37.89 32.35 36.22 29.88 30.12 30.76 25.35 30.85 22.7 30.23 21.55 31.12 20.67 38.01 20.05 39.82 19.85 41.8 19.7 43.84 18.82 47.19 18.16 47.26 18.37 46.31"/><path class="cls-7" d="M10.87,4.26,9.27,4,8.9,3.63l3-.25L15,5.06l3.53,4.5L20.85,13l1.41.61,2.65.27,1.77,1,7.06.71,8.31.71,3.54,1.51-2-.19L36,16.45l-7-.35-3.18.44-3.35-.44-2.12-1L18.9,12.65s-3.27-4.5-3.35-4.77-2.12-2.73-2.12-2.73Z"/><polygon class="cls-5" points="6.47 7.41 5.05 8.16 4.12 8.69 4.68 8.07 5.91 7.29 6.47 7.41"/><polygon class="cls-7" points="11.84 0 12.83 0.46 14.49 4.7 14.15 5.5 12.1 6.83 11.7 5.96 10.98 5.17 10.31 5.1 10.38 3.25 11.84 0"/><polygon class="cls-2" points="12.17 0.86 11.69 0.34 11.84 0 12.83 0.46 14.49 4.7 14.15 5.5 12.1 6.83 11.89 6.36 12.17 4.77 12.17 2.52 12.17 0.86"/><polygon class="cls-4" points="10.84 3.78 10.91 2.65 11.7 1.26 11.77 2.25 11.7 4.11 11.49 5.73 10.98 5.17 10.75 5.15 10.71 5.04 10.84 3.78"/><polygon class="cls-6" points="11.84 0 12.83 0.46 13.81 2.98 12.89 2.58 12.17 2.86 12.17 2.52 12.17 0.86 11.69 0.34 11.84 0"/><polygon class="cls-5" points="1.15 12.77 1.9 12.69 3.09 12.49 4.95 11.96 6.67 12.12 6.67 12.32 5.74 12.26 4.88 12.22 3.49 12.59 2.3 12.89 1.49 13.02 1.15 12.77"/><polygon class="cls-5" points="0.64 11.33 0.37 11.81 0 10.71 0.37 10.49 0.91 10.6 0.91 11 0.47 11.06 0.47 11.33 0.64 11.33"/><polygon class="cls-6" points="5.71 6.92 5.78 7.16 5.71 7.49 5.51 7.72 6.24 7.62 6.9 7.58 6.4 7.19 5.71 6.92"/></g></g></g></svg>