<svg xmlns="http://www.w3.org/2000/svg" viewBox="0 0 93.99 58.32"><defs><style>.cls-1{fill:#c94a03;}.cls-2{fill:#6d5652;}.cls-3{fill:#cead97;}.cls-4{fill:#f4852a;}.cls-5{fill:#f25800;}.cls-6{fill:#172b2a;}.cls-7{fill:#f4d7c3;}.cls-8{fill:#261c1b;}</style></defs><g id="Layer_2" data-name="Layer 2"><g id="Layer_1-2" data-name="Layer 1"><polygon class="cls-1" points="26.61 11.63 21.84 14.32 17.5 22.33 15.2 30.78 13.28 37.8 10.2 40.71 6.97 41.2 3.67 40 2.03 36.81 0.49 36.43 0 37.8 2.08 42.74 6.36 44.17 10.09 44.39 13.33 42.69 18.38 36.65 20.41 27.98 21.29 20.24 23.7 15.09 26.61 11.63"/><polygon class="cls-2" points="18.39 20.69 18.86 19.82 20.44 20.77 19.78 21.26 18.39 20.69"/><polygon class="cls-2" points="16.94 24.38 17.19 23.48 18.57 23.89 20 24.06 20.05 24.77 18.02 24.72 16.94 24.38"/><polygon class="cls-2" points="16.2 27.11 16.62 25.56 17.75 26.47 19.51 26.96 19.78 27.79 18.08 28.01 16.2 27.11"/><path class="cls-2" d="M15.72,29.38a.48.48,0,0,0-.12-.08l.27-1,1.17,1H19.4l.22.5-1.76.33S15.89,29.49,15.72,29.38Z"/><path class="cls-2" d="M15,31.68l2.23,1.41,2,.25,0,.17-.93,1.06A9.93,9.93,0,0,1,16,34.34c-.1-.1-.85-.68-1.46-1.17Z"/><path class="cls-2" d="M13.28,37.8l.14-.54.71,1.34,2.11.61-.73.87-1.33-.22s-1-1-1.49-1.5Z"/><polygon class="cls-3" points="37.91 32.04 36.71 36.49 33.58 41.7 30.67 44.39 29.3 45.48 29.3 46.36 32.15 49.93 34.24 51.74 36.93 52.29 38.19 52.56 39.23 54.37 39.39 55.47 38.52 55.69 37.75 55.69 37.47 56.4 34.67 56.4 32.26 56.24 31.55 55.85 31.49 55.2 30.29 53.6 29.52 53.33 27.71 50.59 24.91 47.24 22.88 45.37 22.77 43.95 24.14 42.41 24.96 37.69 30.61 28.36 37.91 32.04"/><path class="cls-2" d="M30.61,39.07a22.93,22.93,0,0,1,2.36.32l1.52.78-.91,1.53h0l-1.46-.84c-.5-.27-1.38-.87-1.38-.87l-2.52.22.06-.61S30.45,39.12,30.61,39.07Z"/><path class="cls-2" d="M33.25,36.05c.16.11,1.64.66,1.81.71s.83,0,1.45.05l-.95,1.58a5.52,5.52,0,0,1-1.21-.26,12.32,12.32,0,0,1-1.65-1.21,8.61,8.61,0,0,0-1.43-.71l-2.74.17-.11-.66s2.53-.11,3.29-.11A3,3,0,0,1,33.25,36.05Z"/><polygon class="cls-3" points="74.13 32.31 72.37 38.85 71.44 48.28 71.27 49.98 71.49 51.08 72.86 52.07 74.45 53.88 74.45 54.65 73.58 55.2 73.08 55.47 69.57 55.8 66.22 53.82 69.41 32.97 74.13 32.31"/><polygon class="cls-2" points="67.98 43.51 69.46 43.4 72 42.55 71.9 43.63 68.47 44.55 67.98 43.51"/><path class="cls-2" d="M68.18,41l1.5-.27a13.21,13.21,0,0,0,2-.77c.19-.11.39-.25.59-.39l-.08.78-.12.16s-2.31,1.1-2.47,1.1-1.19.28-1.6.39Z"/><polygon class="cls-4" points="85.92 3.18 85.7 1.32 84.61 0 83.29 0.49 82.25 1.97 85.92 3.18"/><path class="cls-5" d="M93.11,11.85,94,10.7l-.17-.83L89.71,6.8l-.83-1.86-.16-.82L85.59,2.69,82.3,1.75l-2.47.39L76.59,3.35,74.18,6.14l-2.8,1.27L66.17,9.05l-2,.71-1.32,1L54,10.81,46.31,11l-6.64.38-8-1.26-5.32,1-3.73,3.46L19.09,22.5l-.16,7.84-1.26,5.1L15,40.33l-2.91,2-.27,1.37L13,45.1l2.36,9.27,1,.94L17.5,57l2.8.22,2.52-.11.17-.44,1.64-.38-.27-1.65-1.26-.82L20.41,53l-.71-2.8L18.82,45l1.32-1.21,5.54-4.61s4.44-4.33,4.55-4.49,2.64-2.58,2.64-2.58l3.23.49,5.27,2.58,5.27.93,6.42-1.32,4.39-.87,4,.87L62.82,36l.44,4.88L63,49.27l-.82,1.86L63,52.51l-.33,2.19.55.93,1.7,1,.44,1.15,3.12.49,2.91-.38.28-.55.87-.06.22-1.48-2.19-2-1.76-.77-.33-1.53,1.32-10,.88-6.09,2.91-1.37,1.75-2.31,1-4.55,1.87-2.64,2.58-3.18,1.15-4,1.59-1.76,3.13-.49,2.47,1.2,1.26.06.38-.6.33-1.21,1-.93.66-1Z"/><path class="cls-1" d="M20.25,52.37l-1.87.25L17,50.09l-.87-3.62,1.42-4.94,4.39-4.28,2-4.61.54-5.81,1.1-4.06,2-1.32,1.86,2.64,4.5,2,6.48-.22,8.45-.22,10,2.85,3.84.66,4.5-4.06,2.75-6,3.62-3.18,3-3.63L74.89,9.38,71.83,7.21l2.35-1.07.18-.21,1.52.49,2.74-.11L78.29,8l-.1,3,.21,3,4.06,1.76.55.66-1,1.15-1.15,4-2.58,3.18-1.87,2.64-1,4.55-1.75,2.31L70.67,35.5l0,.28-2.76-.06-2.09,1-1.86,6.14-.76,2,.1-4L62.82,36l-1.37-1.21-4-.87-4.39.87L46.64,36.1l-5.27-.93L36.1,32.59l-3.23-.49s-2.53,2.41-2.64,2.58-4.55,4.49-4.55,4.49l-5.54,4.61L18.82,45l.88,5.21Z"/><polygon class="cls-4" points="85.89 6.8 86.02 7.38 86.68 7.58 87.5 7.58 87.99 7.67 87.99 7.3 87.05 6.8 85.89 6.8"/><polygon class="cls-6" points="86.92 6.39 85.61 6.47 85.77 6.97 86.59 7.21 87.17 6.97 87.99 7.3 86.92 6.39"/><polygon class="cls-1" points="86.89 6.5 86.84 5.87 86.46 5.62 85.83 6.06 85.8 6.5 86.89 6.5"/><polygon class="cls-7" points="75.33 31.82 73.58 34.13 70.9 35.39 69.65 33.49 70.31 31.93 71.55 30.2 72.62 24.77 75.42 22.47 77.31 19.75 79.17 17.5 80.55 15.2 78.84 14.32 77.86 13.99 77.47 13.06 77.8 12.23 77.91 9.33 77.91 7.68 79.72 7.24 83.13 7.13 84.99 8.5 86.2 9 86.58 10.75 88.34 11.08 90.2 11.3 92.4 10.53 93.61 11.19 93.11 11.85 92.78 12.73 92.12 13.72 91.13 14.65 90.81 15.86 90.42 16.46 89.16 16.4 86.69 15.2 83.56 15.69 81.97 17.45 80.82 21.45 78.24 24.63 76.38 27.27 75.33 31.82"/><polygon class="cls-6" points="92.07 10.75 92.18 10.15 93.39 10.48 93.93 10.41 93.99 10.7 93.11 11.85 93.08 11.91 92.62 11.3 92.07 10.75"/><path class="cls-7" d="M30.48,33.66c.08-.25,1.89-2.88,2-3.21s2.39-.66,2.39-.66l2,1,3,.82,6.91.82,13-1,2.64.16,1.4,2.06.74,5.51-.33,8-.91,3.45-.42,1.58-.59-1.06L63,49.27l.22-8.4L62.82,36l-1.37-1.21-4-.87-4.39.87L46.64,36.1l-5.27-.93L36.1,32.59l-3.23-.49s-2.53,2.41-2.64,2.58L30,35C30.21,34.34,30.44,33.77,30.48,33.66Z"/><path class="cls-3" d="M20.14,43.78,18.82,45l.84,5c-.43-.38-.79-.68-.87-.77-.25-.24-.41-1.64-.57-1.89A11.73,11.73,0,0,1,18,45.1L19.2,43s2.47-1.56,2.72-1.81,2-1,3.5-1.77Z"/><path class="cls-1" d="M22.38,57.08l-.21-1.36-.91-.83-.37-.33s.45,0,.58,0a4.41,4.41,0,0,1,.78.49l.53,1.11.16.54-.12.31Z"/><polygon class="cls-1" points="70.8 58.02 70.97 57.4 70.97 56.46 69.94 55.51 70.02 55.27 71.01 55.84 71.59 56.99 71.49 57.73 71.38 57.94 70.8 58.02"/><polygon class="cls-6" points="87.29 5.81 87.07 4.99 86.03 4.66 85.26 4.88 85.05 5.6 85.43 5.54 86.09 5.16 86.75 5.27 87.29 5.81"/><polygon class="cls-6" points="85.7 3.79 84.88 4.22 84.5 4.94 84.44 5.48 83.84 5.48 84.06 4.5 84.77 3.73 85.48 3.51 85.7 3.79"/><polygon class="cls-3" points="90.69 11.58 90.81 12.73 90.04 13.28 88.01 13.72 86.85 13.99 86.31 13.82 86.47 11.9 87.68 11.47 90.69 11.58"/><polygon class="cls-6" points="84.61 6.69 85.48 7.19 85.43 7.79 85.65 8.56 86.58 8.89 87.29 8.78 87.73 9.22 87.46 9.44 86.97 9.16 85.7 9.16 85.1 8.72 84.55 7.68 84.17 7.19 84.61 6.69"/><polygon class="cls-2" points="88.44 9.82 87.02 10.15 85.59 10.37 84.5 10.48 83.29 9.66 82.74 8.39 82.85 7.24 83.01 6.25 82.19 5.98 81.86 5.71 81.86 5.98 82.25 6.42 82.41 7.02 82.19 8.28 82.41 9.44 83.34 10.59 84.39 10.92 85.37 10.86 86.47 10.64 88.5 9.98 88.44 9.82"/><path class="cls-2" d="M85.21,14.65l-.55-1.43-.16-.82L82.85,12l-1.76-.5-.6-1.43-.11-1,.06-1.43s-.17-.76-.33-.82-1-.44-1-.44L79,6.8l.71.44.22.93L80,9.44l.16,1.31.6,1.1s.72.66.88.66,1.81.38,1.81.38l.77.61.44,1.2Z"/><path class="cls-2" d="M81.48,13.88l-1.54-.6-.55-1-.22-1-.44-.11.33,1.2s.44.88.55,1.05a4.48,4.48,0,0,0,.83.55l1,.38Z"/><path class="cls-6" d="M79.34,5.54l1.15-.77.44-1.15.66-1.15.55,0-.22.83s-.61,1-.72,1.2-.76,1-.93,1a5,5,0,0,0-.77.21Z"/><polygon class="cls-6" points="82.58 3.84 83.34 3.02 84.44 2.63 84.28 3.18 83.18 3.9 82.19 4.99 81.81 4.99 82.58 3.84"/><polygon class="cls-6" points="87.07 3.95 87.62 3.61 88.72 4.12 88.79 4.47 88.61 4.5 87.29 4.44 86.2 4.06 87.07 3.95"/><path class="cls-6" d="M74.51,27.27a7.74,7.74,0,0,0,.27-1c0-.16.33-2.25.33-2.25l-.49-1.81-.93-1.7S73,18.38,73,18.21s-.27-2.57-.27-3,.27-2.14.27-2.14l-.33-1.42L72.1,10l-.28.05.66,2.14s-.11,2-.17,2.2-.32,3-.32,3l.49,2.31,1.43,2.85.21,1.59s-.1,1.92-.1,2.14-.11,1.43-.11,1.43l.82.82.6.27v-.33Z"/><path class="cls-6" d="M70.56,34.4l-.55.71-1.43-.82L67.05,32.1l-.93-2.64L65.73,27v-2.3c0-.22-.11-1.76-.11-1.76l-.11-1.1h.22l.16,1.71.44,4.55.83,2.31,1.26,2.24L69,34Z"/><path class="cls-6" d="M63.65,30c0,.17.21,1.7.21,1.7s.22.88.39,1a4.58,4.58,0,0,1,.55.88l-.11.66-.88-1.54A7,7,0,0,1,63,31.38c0-.22.17-1.53.17-1.53Z"/><path class="cls-6" d="M56.57,20.79l.66.44s.22,3.13.22,3.3-.11,2-.11,2.24a5.43,5.43,0,0,0,0,1.6,10.46,10.46,0,0,1,.66,1.7c.05.27.44,1.75.44,1.75l-.33.17-.55-1.76-1-1.76s-.16-2-.27-2.41a34.57,34.57,0,0,1-.61-3.9A5.74,5.74,0,0,1,56.57,20.79Z"/><path class="cls-6" d="M23.65,18.11s-.33,1.37-.39,1.64-.66,1.92-.66,1.92a6.41,6.41,0,0,1-.65.77,2.89,2.89,0,0,1-.83.27s.39-.71.5-.88a7.71,7.71,0,0,0,.93-1.42c0-.22.27-1.48.27-1.48l.11-.88Z"/><polygon class="cls-6" points="64.14 9.77 64.19 9.75 63.32 14.04 63.32 16.95 63.92 19.53 64.25 21.45 64.58 22.5 64.85 23.43 64.85 24.91 64.85 26 64.47 26.23 64.36 24.74 63.87 22.33 62.88 19.48 62.44 16.46 62.38 12.4 62.45 10.76 62.82 10.75 64.14 9.77"/><path class="cls-6" d="M59.91,13.44l.44,2.42s.28,3.34.28,3.51,0,2.25,0,2.25l.44,2s.55,1.15.61,1.31.54,1.21.54,1.37-.05,1.1-.05,1.1l-.38.11-.22-1.37-.88-2.91s-.6-2.36-.66-2.69-.82-3.29-.82-3.73S59.2,13,59.2,12.78s.29-1.28.46-2h.88Z"/><path class="cls-6" d="M55.85,17.67c0,.16-.43,1.7-.43,1.7L55,19.31s.05-2.14,0-2.58-.61-2.79-.66-3.18a24.62,24.62,0,0,1,.3-2.75h1.7l-.41,2.27V15C55.91,15.2,55.85,17.5,55.85,17.67Z"/><path class="cls-6" d="M52.18,12.45s-.88,3.62-.88,3.79.05,1.81.05,2,.17,1.32.17,1.65-.11,2.41-.11,2.41l-.77,2-.38,1.2L50,25.29l.22-1.86a24.05,24.05,0,0,0-.44-2.75c-.16-.38-.11-4.77-.11-4.77L50,11.63l.22-.72,2.21-.06Z"/><path class="cls-6" d="M46.31,13,46.65,11l1.65,0-.57,1.26s-.38,2.14-.38,2.42,0,2.08,0,2.36v1.53l-.49,1.32-.44-.38s.22-1.43.22-1.65.06-1.81,0-2.14S46.31,13,46.31,13Z"/><path class="cls-6" d="M39.14,11.33l-.24,1.84s-.6,1.53-.71,1.75a7.71,7.71,0,0,0-.33,1.54c0,.22.16,1.26.16,1.26h-.44s-.16-1.86-.16-2.25,1-2.74,1-3.18a10.33,10.33,0,0,0-.13-1.09Z"/><path class="cls-6" d="M39.56,19.64c.16-.55.88-2.58,1.1-3.18S41.92,13,42,12.62c0-.14.06-.72.09-1.35l1.69-.09L43,13.93s-.55,1.76-.66,2.14-1,2.25-1.27,2.69a17.38,17.38,0,0,1-1.15,2.14,5.38,5.38,0,0,0-1.09,1.65c0,.33-.17,1.32-.17,1.32l-.38-.06s.38-2,.44-2.14S39.39,20.19,39.56,19.64Z"/><path class="cls-6" d="M66.17,9.05l.5-.16-.12.55L66.28,12l.66,3.29.27.82.17,2.36H67.1s0-1.09,0-1.37a4.91,4.91,0,0,0-.17-1c0-.16-.71-1.92-.71-1.92L66,13l.16-2.42,0-1.47Z"/><path class="cls-6" d="M72.7,31.55l-.22-1s-1.65-1.54-1.87-1.7a12.57,12.57,0,0,1-.93-1.81s-.33-2.52-.38-2.85-.5-2.69-.5-2.86-.11-2-.11-2l-.6-1.42-.55-1.43s.39-3.79.39-4,.32-2.14.32-2.31.28-1.53.28-1.53V8.31l.58-.19,0,.27-.49,1.92s-.5,3.3-.5,3.46,0,2.14,0,2.14l1,2.36.06,2.36.38,3.46.71,3.18,1.43,1.31,1.21.72.27,1.86v1.21l-.27-.22Z"/><polygon class="cls-6" points="70.17 9.27 69.85 11.63 70.06 13.22 69.79 13.77 69.52 12.4 69.35 9.98 69.85 7.89 70.5 7.68 70.17 9.27"/><polygon class="cls-2" points="79.94 17.89 81.26 18.38 81.59 18.76 81.35 19.61 81.09 19.15 79.89 18.21 79.28 17.34 78.95 16.4 79.28 16.62 79.94 17.89"/><path class="cls-6" d="M75.44,8.45l.44.44.17,2.47.32,2.3s.61,1.81.77,2,1.65,2,1.65,2l1,1.65.27,1.7.17,1.12-.68.84-.81-1.14s-.6-2.25-.65-2.58-.88-2.41-.88-2.41S76,15.42,75.94,15.25s-.06-2.25-.11-2.52-.28-3.13-.28-3.13l-.27-1.15Z"/><polygon class="cls-6" points="63.87 38.68 65.24 39.23 65.73 40.44 65.51 40.93 65.18 40.38 64.47 39.56 63.43 39.34 63.12 39.31 62.98 37.77 63.87 38.68"/><polygon class="cls-6" points="63.2 43.24 63.24 41.73 64.52 42.08 65.51 43.13 66.11 43.73 66.11 44.11 65.02 43.51 63.2 43.24"/><path class="cls-6" d="M32.37,26s.17-.82.22-1.15.11-1.53.11-1.81.17-1.92.11-2.19-.16-2.75-.16-3,.43-1.76.49-2,.6-1.59.66-1.81.77-3,.77-3l.06-.36,1.48.24c-.28,1-.86,3-.94,3.14a14.75,14.75,0,0,0-1.48,2,23,23,0,0,0-.55,3.4,23.31,23.31,0,0,0,.11,3,4.6,4.6,0,0,1,0,1.92c-.11.44-.55,1.59-.55,1.59Z"/><path class="cls-6" d="M29,13.11c-.06.17-1.1,3.57-1.1,4S28,21.07,28,21.4s-.11,2.25-.11,2.58-.22,2.47-.22,2.47l-.38,1-.39-.55.33-2.63s-.27-2.91-.27-3.08-.17-4-.17-4.33.55-3,.61-3.35.81-2.27,1-2.75L30,10.49Z"/><path class="cls-6" d="M36.82,22.33,37,20.57l.44.22s-.33,2.47-.38,2.64-.83,2.19-.88,2.41a15.18,15.18,0,0,0,.05,2.25c.06.17.17,1.48.22,1.92s1.37,2.25,1.26,2.8c0,.15-.06.34-.09.52l-1.31-.65a4.28,4.28,0,0,1-.41-1.13c0-.39-.77-3.95-.77-4.23A32.56,32.56,0,0,1,35.17,24C35.28,23.81,36.82,22.33,36.82,22.33Z"/><path class="cls-6" d="M30.89,30.34A22.31,22.31,0,0,0,32,32.75l0,.16L30.87,34l-.42-1.28-.6-2.9s-.39-2.53-.39-2.75.17-2.08.22-2.63.94-3.24.94-3.24L30.67,20l.49.17s-.49,2.08-.49,2.3-.27,1.7-.27,2.3a11.44,11.44,0,0,0,0,2.75C30.62,28.37,30.72,29.68,30.89,30.34Z"/><path class="cls-6" d="M24.85,30c0-.27-.16-2-.16-2.3s-.22-1.87-.22-1.87l.22-.38.38.82s.44,2,.44,2.25a27.08,27.08,0,0,0,.33,3.18c.17.55,1.32,3,1.48,3.57.12.38.39,1.18.55,1.75l-.8.78a5,5,0,0,0-.13-1c-.11-.22-1.15-3.23-1.32-3.51A24.1,24.1,0,0,1,24.85,30Z"/><path class="cls-6" d="M22.49,41s.44-3,.44-3.18.06-3,.06-3.24-.11-2.14-.17-2.35a4.37,4.37,0,0,1,.11-1l.33.82.33,1.87s.06,1.48.11,2.14.11,2.36.11,3.12a13.15,13.15,0,0,1-.16,1.69l-1.28,1.06C22.43,41.43,22.49,41,22.49,41Z"/><path class="cls-6" d="M17.45,40.49l.44.17s1.64,1.2,1.81,1.42.59.94.84,1.37l-.4.33L20,44l-.36-.66L18,41.42l-.72-.49Z"/><path class="cls-6" d="M15.31,45.59l1.59-.49.44.71a22.85,22.85,0,0,1-2.47.94c-.2,0-.81.08-1.42.12L13,45.13Z"/><polygon class="cls-4" points="19.86 53.33 20.48 53.02 22.44 53.58 22.25 53.66 19.7 54.48 17.56 54.32 18.38 53.74 19.86 53.33"/><path class="cls-6" d="M17.53,35.7l.91-.15,1.7-.6.93-.6.16.38A3.45,3.45,0,0,1,20,36c-.58.31-2.33,1.07-3.41,1.5Z"/><path class="cls-6" d="M22.06,29a4.54,4.54,0,0,1-1.38,1.92C20,31.44,19,32,18.82,32.15a1.7,1.7,0,0,1-.37.12l.44-1.77.75-.32a14.79,14.79,0,0,0,1.87-1.81c0-.28.55-1.32.71-1.71a8.18,8.18,0,0,1,1-1.26h.49s-.71,1.21-.77,1.43S22.22,28.47,22.06,29Z"/><polygon class="cls-4" points="82.06 3.29 81.34 4.63 80.62 6.11 79.04 5.98 78.32 4.43 79.04 2.95 80.12 2.55 82.06 3.29"/><polygon class="cls-1" points="80.79 3.59 81.68 3.99 81.34 4.63 80.78 5.78 79.37 5.07 79.26 4.36 80.08 3.64 80.79 3.59"/><polygon class="cls-4" points="66.03 54.89 66.11 54.15 67.76 53.58 68.79 53.03 68.8 53.11 70.56 53.88 71.25 54.5 68.5 54.98 66.03 54.89"/><path class="cls-6" d="M53.11,28.47V25.68c0-.39.39-2.69.39-2.69l.32-1.92-.11-1.48.39.27-.06,1s.17,1.65.17,1.92S54,25.24,54,25.57s.61,2.85.61,3.4.44,2,.44,2.25,1.31,1.32,1.53,1.48,1.7,1,1.7,1l.19.4-1.06-.23L55,34.39l-1-1.47s-.82-1.15-.88-1.32A13.69,13.69,0,0,1,52.84,30C52.84,29.68,53.11,28.64,53.11,28.47Z"/><path class="cls-8" d="M54,32.92s-.82-1.15-.88-1.32A13.69,13.69,0,0,1,52.84,30c0-.28.27-1.32.27-1.49V26.86l1.26.36A15.33,15.33,0,0,1,54.65,29c0,.55.44,2,.44,2.25s1.31,1.32,1.53,1.48,1.7,1,1.7,1l.19.4-1.06-.23L55,34.39Z"/><path class="cls-2" d="M54,32.92s-.43-.6-.69-1l2.23-.17c.4.39,1,.85,1.09,1s1.7,1,1.7,1l.19.4-1.06-.23L55,34.39Z"/><path class="cls-6" d="M46.91,23.7c0-.16-.22-2.19-.22-2.19l.39.11s.27,1.64.27,1.81-.06,2.08-.06,2.41-.32,2.8-.38,3.07a15.23,15.23,0,0,0,1.15,2.91c.22.39,1.48,1.92,1.65,2.14s.71.76,1.18,1.27l-3,.62-.13-.19a25.77,25.77,0,0,1-1.2-2.41,10.07,10.07,0,0,1-.61-2.8,32.62,32.62,0,0,1,.44-3.62C46.47,26.23,46.91,23.87,46.91,23.7Z"/><path class="cls-8" d="M47.29,25.84c0,.33-.32,2.8-.38,3.07a15.23,15.23,0,0,0,1.15,2.91c.22.39,1.48,1.92,1.65,2.14s.71.76,1.18,1.27l-3,.62-.13-.19a25.77,25.77,0,0,1-1.2-2.41,10.07,10.07,0,0,1-.61-2.8,32.62,32.62,0,0,1,.44-3.62l.21-1.15.73,0C47.3,25.74,47.29,25.8,47.29,25.84Z"/><path class="cls-2" d="M46.25,32.37l.44.05,1.71-.12c.45.6,1.19,1.5,1.31,1.66s.71.76,1.18,1.27l-3,.62-.13-.19a25.77,25.77,0,0,1-1.2-2.41C46.45,33.05,46.35,32.73,46.25,32.37Z"/><path class="cls-8" d="M56.57,27.85l.75.21a.79.79,0,0,0,.07.31,10.46,10.46,0,0,1,.66,1.7c.05.27.44,1.75.44,1.75l-.33.17-.55-1.76-1-1.76S56.6,28.21,56.57,27.85Z"/><path class="cls-6" d="M43.23,25.13s-.87,1.92-.93,2.14-.6,1.75-.66,2.25a7.92,7.92,0,0,0,.61,2.41c.22.49,1.1,1.76,1.21,2a2.71,2.71,0,0,1,.1.77l-.21,0s-.77-1-.94-1.32A20.36,20.36,0,0,0,41,31.71a5.91,5.91,0,0,1-.93-1.86,10,10,0,0,1,.66-1.76s1.15-1.37,1.31-1.59.94-1.92.94-1.92Z"/><path class="cls-8" d="M42.08,26.5a6.81,6.81,0,0,0,.38-.71l.48,0c-.26.58-.6,1.36-.64,1.5s-.6,1.75-.66,2.25a7.92,7.92,0,0,0,.61,2.41c.22.49,1.1,1.76,1.21,2a2.71,2.71,0,0,1,.1.77l-.21,0s-.77-1-.94-1.32A20.36,20.36,0,0,0,41,31.71a5.91,5.91,0,0,1-.93-1.86,10,10,0,0,1,.66-1.76S41.92,26.72,42.08,26.5Z"/><path class="cls-2" d="M42.23,31.89l0,0c.22.49,1.1,1.76,1.21,2a2.71,2.71,0,0,1,.1.77l-.21,0s-.77-1-.94-1.32a17.83,17.83,0,0,0-1.33-1.65Z"/><path class="cls-8" d="M65.73,26.31l.4-.36.2,2.14.83,2.31,1.26,2.24L69,34l1.54.38-.55.71-1.43-.82L67.05,32.1l-.93-2.64L65.73,27Z"/><path class="cls-8" d="M69.18,20.49v.14l.38,3.46.71,3.18,1.43,1.31,1.21.72.27,1.86v1.21l-.27-.22-.22-.6-.22-1s-1.65-1.54-1.87-1.7a12.57,12.57,0,0,1-.93-1.81s-.33-2.52-.38-2.85-.5-2.69-.5-2.86h0Z"/><path class="cls-2" d="M72.7,31.55l-.22-1-.85-.79.22-1.1,1.07.63.27,1.86v1.21l-.27-.22Z"/><path class="cls-8" d="M73,18.21c.06.17.72,2.31.72,2.31l.93,1.7L75.11,24s-.33,2.09-.33,2.25a7.74,7.74,0,0,1-.27,1l.82,1.2v.33l-.6-.27-.82-.82S74,26.5,74,26.28s.1-2.14.1-2.14l-.21-1.59L72.48,19.7,72,17.39s0-.1,0-.26l.77-.67C72.85,17.24,72.94,18.12,73,18.21Z"/><path class="cls-2" d="M74.82,23,75.11,24s-.33,2.09-.33,2.25a7.74,7.74,0,0,1-.27,1l.82,1.2v.33l-.6-.27-.82-.82S74,26.5,74,26.28s.1-2.14.1-2.14l-.07-.55Z"/><path class="cls-8" d="M75.85,13l.36-.45.16,1.16s.61,1.81.77,2,1.65,2,1.65,2l1,1.65.27,1.7.17,1.12-.68.84-.81-1.14s-.6-2.25-.65-2.58-.88-2.41-.88-2.41S76,15.42,75.94,15.25,75.88,13.56,75.85,13Z"/><path class="cls-8" d="M76.05,11.36l0,.22-.44-.8c0-.64-.09-1.18-.09-1.18l-.27-1.15h.16l.44.44Z"/><path class="cls-2" d="M78,19l.9-1.09.91,1.51.27,1.7.17,1.12-.68.84-.81-1.14s-.6-2.25-.65-2.58C78.06,19.25,78,19.12,78,19Z"/><polygon class="cls-6" points="86.36 14.21 86.47 13.88 87.24 13.82 88.5 13.99 90.31 14.27 91.45 14.35 91.21 14.57 90.92 14.54 89.82 14.43 88.67 14.21 87.79 14.21 86.69 14.43 86.36 14.21"/></g></g></svg>