<svg xmlns="http://www.w3.org/2000/svg" viewBox="0 0 107.55 54.68"><defs><style>.cls-1{fill:#5e4d4f;}.cls-2{fill:#47383b;}.cls-3{fill:#6d5b5d;}.cls-4{fill:#aa8984;}.cls-5{fill:#c4b3ab;}</style></defs><g id="Layer_2" data-name="Layer 2"><g id="Layer_1-2" data-name="Layer 1"><polygon class="cls-1" points="1.52 26.3 2.04 31.19 3.08 34.41 2.67 37.42 1.21 42 1.21 43.97 2.98 44.8 4.44 48.03 4.12 50.83 4.44 51.66 13.69 52.39 14.93 51.56 15.14 50.83 14.41 49.69 12.86 48.96 10.67 47.61 10.15 45.74 11.19 41.48 12.13 34.93 1.52 26.3"/><polygon class="cls-2" points="14.93 51.56 15.14 50.83 14.41 49.69 12.86 48.96 10.67 47.61 10.15 45.74 11.19 41.48 12.13 34.93 1.52 26.3 2.04 31.19 3.08 34.41 2.67 37.42 1.21 42 1.21 43.97 2.63 44.64 2.56 42.31 4.33 39.92 7.14 40.85 9.01 45.12 9.32 47.72 11.61 48.75 13.17 50.21 13.8 52.32 14.93 51.56"/><polygon class="cls-1" points="5.68 49.69 5.37 47.82 3.95 46.95 4.44 48.03 4.12 50.83 4.44 51.66 5.58 51.76 5.68 49.69"/><polygon class="cls-1" points="77.55 32.64 76.51 37.11 75.57 41.89 75.36 44.7 76.19 47.82 77.65 48.65 78.48 49.9 78.59 50.94 74.22 51.04 71.72 49.48 72.35 43.04 76.51 29.73 77.55 32.64"/><polygon class="cls-3" points="81.01 30.43 81.7 30.43 84.69 33.06 87.25 33.41 87.87 33.54 88.7 34.58 90.3 37.7 94.25 40.82 95.7 40.89 99.72 39.43 100.62 37.84 101.25 37.01 100.07 35.27 100.07 34.17 101.94 33.13 104.78 32.44 106.24 29.8 107.55 27.31 107.55 26.61 106.79 27.1 104.5 29.25 102.63 29.66 99.31 29.31 97.71 28.83 97.44 28 98.13 26.48 98.89 24.74 98.48 24.12 96.05 24.05 94.04 23.49 93.63 22.18 92.24 14.97 91.41 12.96 85.52 10.26 80.56 6.55 75.05 2.39 71.93 0.63 67.15 0 62.99 0.63 58.52 1.98 52.91 3.22 44.59 3.74 33.26 2.29 26.3 0 24.74 0.1 16.63 3.22 9.77 3.12 7.9 4.58 1.25 13.62 0 18.19 0.1 26.3 3.12 33.16 8.73 38.67 11.43 40.13 12.68 42.52 12.99 46.57 13.31 47.92 14.76 48.55 16.84 49.38 17.88 50.31 18.4 53.23 19.54 53.85 22.77 54.37 28.69 54.68 29.83 53.95 29.83 52.81 28.07 50.73 24.12 49.07 22.45 45.64 20.38 39.61 20.16 38.26 20.16 37.01 22.97 34.3 23.7 32.23 24.84 32.44 33.68 37.32 38.98 39.5 50 39.4 58.31 38.78 61.33 36.28 62.99 35.97 64.34 38.36 65.28 39.61 64.76 44.7 64.86 47.4 65.49 49.17 64.66 50.94 64.66 52.08 67.57 53.64 71.72 53.85 75.26 53.33 75.26 51.25 73.49 50.11 72.25 48.03 72.35 45.32 73.8 40.44 75.05 34.51 76.09 34.83 76.92 33.68 77.34 31.71 78.48 31.29 79.83 31.81 80.67 31.5 81.01 30.43"/><polygon class="cls-1" points="81.23 30.43 81.08 29.21 81.7 27.34 83.68 24.01 85.97 21.41 88.98 20.38 88.88 16.53 89.6 14.35 88.46 14.97 86.07 16.53 83.58 19.23 80.56 18.92 77.86 16.01 75.99 12.89 75.26 9.77 74.01 9.25 73.7 10.5 73.7 13.69 74.81 19.79 76.26 24.15 74.84 25.78 71 30.04 70.48 29.21 68.92 28.69 65.38 29.63 63.93 30.25 63.41 26.82 63.83 24.33 62.99 24.22 61.54 25.78 59.15 27.44 52.29 28.38 42.41 29.94 26.82 26.4 21 25.05 17.25 20.58 16.11 17.36 16.42 14.66 15.8 14.66 15.49 16.01 15.7 19.86 18.71 23.91 23.07 28.07 23.91 30.67 23.91 32.26 24.84 32.44 33.68 37.32 38.98 39.5 50 39.4 58.31 38.78 61.33 36.28 62.99 35.97 64.34 38.36 65.28 39.61 64.76 44.7 64.86 47.4 65.49 49.17 64.84 50.54 66.42 49.9 68.5 49.27 69.75 48.96 69.44 47.61 70.27 42.52 71 38.36 73.6 35.66 74.82 35.6 75.05 34.51 76.09 34.83 76.92 33.68 77.34 31.71 78.48 31.29 79.83 31.81 80.67 31.5 81.01 30.43 81.23 30.43"/><polygon class="cls-4" points="82.85 10.29 86.9 11.96 90.35 12.48 85.52 10.26 80.56 6.55 75.05 2.39 71.93 0.63 67.15 0 62.99 0.63 58.52 1.98 52.91 3.22 44.59 3.74 33.26 2.29 26.3 0 24.74 0.1 16.63 3.22 9.77 3.12 7.9 4.58 1.25 13.62 0.87 14.99 3.85 10.71 7.79 5.61 9.98 4.16 13.83 4.37 18.19 4.47 22.87 3.22 28.48 3.22 35.34 5.2 45.32 6.45 52.91 6.34 58.11 5.3 64.76 3.85 69.54 3.22 75.26 4.89 79.31 7.49 82.85 10.29"/><polygon class="cls-4" points="94.33 23.57 94.87 24.95 95.98 26.61 96.95 27.58 97.48 27.91 98.13 26.48 98.89 24.74 98.48 24.12 96.05 24.05 94.33 23.57"/><polygon class="cls-5" points="98.64 24.36 98.48 24.12 96.05 24.05 94.33 23.57 94.74 24.61 96.53 24.95 98.64 24.36"/><polygon class="cls-3" points="96.46 27.09 96.95 27.58 97.48 27.91 98.13 26.48 98.27 26.15 96.46 27.09"/><polygon class="cls-3" points="92.26 23.6 90.8 23.13 89.45 23.75 89.19 25.26 89.26 26.13 89.97 27.18 92.26 27.29 93.29 25.99 93.03 24.38 92.26 23.6"/><polygon class="cls-2" points="90.8 24.12 90.38 24.9 90.69 25.73 92.05 25.94 92.1 25.47 92.31 24.59 90.8 24.12"/><polygon class="cls-4" points="93.03 24.38 92.26 23.6 90.8 23.13 89.45 23.75 89.37 24.21 90.28 24.17 91.58 24.59 93.29 25.98 93.03 24.38"/><polygon class="cls-1" points="92.66 26.79 91.84 26.82 90.17 26.61 89.24 25.82 89.26 26.13 89.97 27.18 92.26 27.29 92.66 26.79"/><polygon class="cls-1" points="95.11 40.39 94.23 39.45 92.57 37.63 92.41 36.28 91.11 33.73 88.98 32.23 86.02 31.76 82.69 29.99 81.46 26.16 80.2 31.24 80.39 31.6 80.67 31.5 81.01 30.43 81.7 30.43 84.69 33.06 87.25 33.41 87.87 33.54 88.7 34.58 90.3 37.7 94.25 40.82 95.7 40.89 96.21 40.7 95.11 40.39"/><polygon class="cls-1" points="100.07 35.27 100.07 34.17 100.69 33.82 100 33.47 99.53 34.51 99.74 35.66 100.1 37.01 99.22 38.52 97.5 40.24 99.72 39.43 100.62 37.84 101.25 37.01 100.07 35.27"/><polygon class="cls-4" points="98.51 37.85 98.88 36.56 98.51 35.31 97.99 35.15 97.47 35.31 97.58 36.4 97.99 37.55 98.51 37.85"/><polygon class="cls-2" points="97.26 35.55 98.03 35.73 98.34 36.45 98.34 37.15 98.09 37.94 97.68 37.32 97.44 36.52 97.26 35.55"/><polygon class="cls-4" points="73.2 49.62 71.66 50.18 67.5 50.59 66.94 51.14 69.02 50.94 72.49 51.22 75.26 51.32 75.26 51.25 73.49 50.11 73.2 49.62"/><polygon class="cls-1" points="24.01 29.11 22.45 32.95 19.33 35.76 18.71 38.67 19.64 42.31 21.31 45.22 23.25 47.28 22.45 45.64 20.38 39.61 20.16 38.26 20.16 37.01 22.97 34.3 23.7 32.23 24.84 32.44 25.65 32.88 26.61 30.36 24.01 29.11"/><polygon class="cls-1" points="17.78 48.55 18.85 45.43 21.03 44.39 19.16 39.61 13.62 38.78 10.6 37.01 5.51 32.85 1.46 24.64 0.77 15.37 0 18.19 0.1 26.3 3.12 33.16 8.73 38.67 11.43 40.13 12.68 42.52 12.99 46.57 13.31 47.92 14.76 48.55 16.84 49.38 17.88 50.31 18.4 53.23 18.51 53.28 19.33 52.5 18.61 50.63 17.78 48.55"/><polygon class="cls-1" points="6.44 31.29 9.25 34.62 12.47 36.07 13.82 36.49 13.72 35.93 9.7 33.92 6.89 30.87 6.44 31.29"/><polygon class="cls-4" points="28.07 50.73 25 49.44 22.87 51.14 21.2 51.77 22.97 51.87 27.13 51.14 28.07 50.74 28.07 50.73"/><polygon class="cls-4" points="107.55 26.61 106.79 27.1 104.5 29.25 102.63 29.66 99.31 29.31 98.39 29.04 98.33 30.08 98.75 32.09 99.17 33.27 100.17 34.11 101.94 33.13 104.78 32.44 106.24 29.8 107.55 27.31 107.55 26.61"/><polygon class="cls-5" points="104.02 30.08 106.17 28.62 107.34 26.74 106.79 27.1 104.5 29.25 102.63 29.66 99.31 29.31 98.39 29.04 98.33 30.08 98.37 30.24 101.66 30.49 104.02 30.08"/><polygon class="cls-3" points="104.44 31.6 101.18 32.5 98.96 32.67 99.17 33.27 100.17 34.11 101.94 33.13 104.78 32.44 105.62 30.92 104.44 31.6"/><polygon class="cls-3" points="87.84 13.31 89.29 12.68 91.48 11.33 96.98 10.81 98.33 10.81 98.33 11.33 96.26 13 93.76 14.35 92.2 13.83 90.02 14.76 89.29 15.49 87.84 13.31"/><polygon class="cls-1" points="90.02 14.76 92.2 13.83 93.76 14.35 96.26 13 96.81 12.55 95.53 12.68 93.03 13 91.48 13.52 90.02 14.24 89.96 14.82 90.02 14.76"/><polygon class="cls-2" points="55.23 36.59 48.06 37.11 36.83 35.14 27.27 31.08 23.25 28.62 23.91 30.67 23.91 32.26 24.84 32.44 33.68 37.32 38.98 39.5 50 39.4 58.31 38.78 61.33 36.28 62.28 36.1 55.23 36.59"/><polygon class="cls-2" points="79.82 31.45 78.98 29.89 78.41 28.12 78.2 24.01 77.52 23.28 77.47 23.32 77.27 25.36 77.16 28.9 75.5 30.72 71.24 32.64 72.8 32.9 75.61 33.52 76.59 34.14 76.92 33.68 77.34 31.71 78.48 31.29 79.83 31.81 79.91 31.78 79.82 31.45"/><polygon class="cls-3" points="74.01 10.74 74.26 12.41 74.87 15.6 75.97 19.48 77.07 22.73 77.81 25.3 77.93 27.44 78.42 30.49 79.03 30.63 79.28 29.52 78.85 26.48 78.67 24.19 78.24 22.52 76.65 18.23 75.11 13.1 74.38 10.81 74.01 10.74"/><polygon class="cls-2" points="75.29 34.41 76.16 34.73 76.49 34.27 76.23 33.99 74.62 33.37 72.59 33.32 69.94 33.47 66.51 34.15 64.43 34.77 63.34 35.5 63.02 36.03 63.73 37.28 64.27 36.9 65.31 36.18 66.61 35.6 68.69 35.4 73.06 34.56 75.29 34.41"/><polygon class="cls-3" points="70.27 33.54 73.73 33.47 75.95 34.1 76.35 34.47 76.83 33.81 75.95 33.2 72.97 32.37 69.72 32.57 65.49 33.13 63.55 34.23 62.28 36.1 62.99 35.97 63.06 36.09 64.31 35 66.94 34.23 70.27 33.54"/><polygon class="cls-2" points="64.97 35.86 63.65 36.21 63.34 36.58 64.34 38.36 65.28 39.61 64.76 44.7 64.86 47.4 65.35 48.78 65.66 45.84 66.15 41.13 66.08 38.84 64.97 35.86"/><polygon class="cls-1" points="71.72 53.85 75.26 53.33 75.26 52.96 73.56 53.12 70.23 52.98 67.25 52.77 64.66 51.56 64.66 52.08 67.57 53.64 71.72 53.85"/><polygon class="cls-1" points="28.69 54.68 29.83 53.95 29.83 53.86 28.31 54.23 23.87 54.02 20.89 53.74 19.16 53.4 18.93 53.51 19.54 53.85 22.77 54.37 28.69 54.68"/><path class="cls-2" d="M11.61,51.8l-2.08-.55L6.82,50.7s-1.6-.58-2.58-.9l-.12,1,.32.83,7.56.6Z"/><polygon class="cls-4" points="92.27 11.82 95.53 11.61 97.08 10.81 96.98 10.81 91.48 11.33 89.29 12.68 89.05 12.79 89.92 12.79 92.27 11.82"/></g></g></svg>