<svg xmlns="http://www.w3.org/2000/svg" viewBox="0 0 80.85 36.14"><defs><style>.cls-1{isolation:isolate;}.cls-2{fill:#5e4f41;}.cls-3{fill:#9a8a73;}.cls-4{fill:#81715f;}.cls-5{fill:#c0b198;}.cls-6{fill:#332921;}.cls-7{fill:#bcb4aa;mix-blend-mode:multiply;}.cls-8{fill:#a79782;}</style></defs><g class="cls-1"><g id="Layer_2" data-name="Layer 2"><g id="Layer_1-2" data-name="Layer 1"><polygon class="cls-2" points="73.07 5.82 74.64 3.93 75.67 4.87 75.59 5.97 74.41 6.68 73.07 5.82"/><polygon class="cls-2" points="37.01 28.68 40.15 30.88 42.27 32.53 43.45 32.92 43.77 33.94 47.93 34.41 48.24 33.63 46.99 32.06 43.84 30.88 41.72 27.97 43.84 26.64 45.89 25.07 46.52 23.02 41.88 22.86 37.01 28.68"/><path class="cls-3" d="M48.24,33.63,47,32.06l-3.15-1.18-.51-.71h0s-1.49.32-1.57.55l-.35,1.11.9.7,1.18.39.31,1,4.17.47Z"/><polygon class="cls-2" points="65.06 22.94 66.47 25.22 69.38 27.82 70.8 28.99 70.64 30.57 68.75 32.53 67.34 32.69 67.02 31.98 68.28 30.25 67.81 29.31 63.17 27.11 65.06 22.94"/><polygon class="cls-3" points="70.8 28.99 69.38 27.82 69.19 27.65 68.99 27.74 67.57 27.97 67.52 29.17 67.81 29.31 68.28 30.25 67.02 31.98 67.34 32.69 68.75 32.53 70.64 30.57 70.8 28.99"/><path class="cls-4" d="M76.69,9.74l.7,1,3.46,2.13-.31,1.8-1.49.87-5.35.23-2.36.47-2.67,2.2-2.12,3.7L64.74,25,64,26.32l-.39,4.17.07,2.12.63,1,1.81.78,1.26,1v.7L63,35.91l-.48-.79-1-.47-.39-1.89-1.41-3.61-3-2.91-.86-.78-2.28.31-6.21-1.18-2.59-1-2,.79-3.93,4.4L36.3,30.49l-.63.39,3.14,1.81,3.7,1,2,.86.16,1.1-3.38-.08h-2.2l-.55-.78-1.41-.4-4.64-1.8-1.88-1.18.54-1.89L32.84,28l-2.59-1.49s-4.48-5.11-4.4-5.34-1-6.52-1-6.52l1.41-4.25,3.7-3.85L40.46,1.18,47.38,0l3.46.47,5.1,2.59L61.68,5l4,.31,4.48-.94,2.67.94L75.2,6.68Z"/><polygon class="cls-4" points="26.79 10.69 22.79 14.38 17.91 17.91 10.37 21.37 5.34 23.49 1.81 25.93 0 28.29 0.24 32.21 1.49 33.16 6.29 33.31 15.09 29.54 20.98 25.38 24.12 22.55 26.56 19.02 26.79 10.69"/><polygon class="cls-5" points="77.47 11.31 76.22 10.14 75.82 8.96 74.72 6.76 73.15 6.84 70.64 7.78 68.28 9.66 66.31 11.94 65.69 15.01 66.39 17.21 68.08 19.5 68.67 18.46 71.34 16.26 73.7 15.79 79.05 15.56 79.95 15.04 80.3 13.67 79.36 12.49 77.47 11.31"/><polygon class="cls-2" points="72.88 15.96 72.6 14.77 74.25 13.52 76.14 12.89 76.53 11.39 77.19 10.46 76.69 9.74 75.78 7.88 73.62 8.49 71.19 10.21 69.38 13.12 69.46 15.48 70.48 16.98 71.34 16.26 72.88 15.96"/><polygon class="cls-6" points="79.83 13.52 80.3 13.67 80.67 13.94 80.85 12.89 80.52 12.68 79.75 12.89 79.83 13.52"/><polygon class="cls-7" points="79.97 15.02 77.71 15.09 74.56 15.01 72.36 15.32 68.91 16.97 67.26 19.64 66 22.24 64.74 23.65 64.82 24.87 66.55 22.16 68.67 18.46 71.34 16.26 73.7 15.79 79.05 15.56 79.97 15.02"/><path class="cls-5" d="M44.63,35.67l-.16-1.1-2-.86-3.7-1-1.63-.95a7.49,7.49,0,0,0-1.19.95c-.24.31,0,.86.15,1.1,0,.06.17.2.33.38l.62.24,1.41.4.55.78h2.2Z"/><path class="cls-5" d="M64.27,33.63l-.63-1,0-1.13-.35-.13L61.84,31l-.93,1.25.22.55.39,1.89,1,.47.48.79,4.32.23v-.7l-1.26-1Z"/><path class="cls-7" d="M42.9,35.2l-.79-.94H41L40,35l-2.75-1.33-4.32-2.05-.63-1.33,1.18-1.18,1.26-1,.08-2-1.42-2.51-4.55-3-2.05-4.55-1.35-3.33-.61,1.84s1.1,6.28,1,6.52,4.4,5.34,4.4,5.34L32.84,28l-1.73,1.57-.54,1.89,1.88,1.18,4.64,1.8,1.41.4.55.78h2.2l1.68,0Z"/><path class="cls-7" d="M66.24,35l-1.42-.23L63.57,35l-1-.86-.78-2-1-2.75-2-2.13-1.18-1.8.95-2.2.78-2.75L57,19.88l-5.42-.32-5.73-1.41-2.36-2.28L42,17l.86,3.54-1.26,1.8a24.35,24.35,0,0,0-.78,2.52c0,.31-1.89,2.51-2,2.83A13.36,13.36,0,0,1,38,29.34l.85-.58,3.93-4.4,2-.79,2.59,1,6.21,1.18,2.28-.31.86.78,3,2.91,1.41,3.61.39,1.89,1,.47.48.79,3.55.19Z"/><path class="cls-4" d="M74.75,10.42l2.15,1.36c.15-.15-1.57-1.88-1.57-1.88Z"/><polygon class="cls-6" points="75.64 9.01 75.59 9.48 75.64 10.27 74.75 10.42 73.75 9.79 74.75 9.53 75.64 9.01"/><path class="cls-8" d="M71.2,4.69l-1-.37-4.48.94-4-.31L55.94,3.06,50.84.47,47.38,0,40.46,1.18,29.94,6.52,26.86,9.73l3.55-2.19,6.52-3.06,7.86-3L49.66,2,53,3.93S60.58,6.6,61,6.6a38.15,38.15,0,0,0,4.32-.08c.24-.16,2.68-.39,2.91-.63s2-.78,2.28-.94A5.15,5.15,0,0,1,71.2,4.69Z"/><polygon class="cls-2" points="68.52 7.46 71.11 6.37 71.58 5.11 71.34 2.99 70.17 2.12 68.75 3.14 68.28 4.95 68.52 7.46"/><polygon class="cls-5" points="70.17 2.12 68.75 3.14 68.28 4.95 68.52 7.46 69.79 6.92 69.38 4.48 69.93 3.06 70.64 3.3 70.95 4.32 70.72 5.97 70.67 6.55 71.11 6.37 71.58 5.11 71.34 2.99 70.17 2.12"/><polygon class="cls-2" points="9.9 30.96 8.25 28.99 6.6 25.85 7.21 22.71 5.34 23.49 5.21 23.59 4.56 29.15 6.99 31.74 8.19 32.5 10.5 31.51 9.9 30.96"/><path class="cls-2" d="M6.1,33.31,4.87,32s-1.41-1.73-1.49-2-.79-2.12-.79-2.12l.19-2.63-1,.67L0,28.29l.24,3.92,1.25.95Z"/><path class="cls-2" d="M12.49,28.36c-.23-.23-1.1-2.12-1.33-2.35a5.88,5.88,0,0,1-.47-1.65l.81-3.5-1.13.51-.33.14-.93,2.3s.16,3.22.24,3.45,1.49,3.15,1.49,3.15l.79.61,2.14-.91C13.33,29.48,12.65,28.52,12.49,28.36Z"/><path class="cls-2" d="M17.34,28l-.45-.45-1.41-2.75-.94-2.67.26-2.74L13,20.15a19.3,19.3,0,0,0-.16,2.48c.08.47,1.18,3.77,1.34,4.16s.78,1.56,1.26,2.48Z"/><path class="cls-2" d="M21.19,25.19l-.13-.05-1.34-1s-1.1-1.18-1.41-1.57a22.1,22.1,0,0,1-1.18-2l-.22-2.13-1.07.48c0,.92-.1,2.52-.05,2.75s1,2.36,1,2.36l2,1.8.95.49L21,25.38Z"/><path class="cls-2" d="M22.94,21.92l-1.18-1-1.33-2.12-.58-2.27-1.19.86a3,3,0,0,0,.2.94c.23.39.94,2.43,1.1,2.75s1.41,2,1.49,2.2a3.79,3.79,0,0,0,1.32.51l1.32-1.19Z"/><path class="cls-2" d="M25.42,20.67l-1.69-1.81L22.16,17l-.47-1.8-.8.59.17,1.45,1.81,2A14.93,14.93,0,0,0,25.17,21Z"/><polygon class="cls-7" points="20.98 25.38 24.12 22.55 26.56 19.02 26.65 15.62 25.61 16.19 22.71 21.37 17.76 24.51 8.64 29.46 3.3 30.64 0.86 29.7 0.07 29.47 0.24 32.21 1.49 33.16 6.29 33.31 15.09 29.54 20.98 25.38"/></g></g></g></svg>