<svg xmlns="http://www.w3.org/2000/svg" viewBox="0 0 32.36 32.36"><defs><style>.cls-1{fill:#7f5741;}.cls-2{fill:#684838;}.cls-3{fill:#a16b50;}.cls-4{fill:#c79473;}.cls-5{fill:#c49a77;}.cls-6{fill:#6d5341;}</style></defs><g id="Layer_2" data-name="Layer 2"><g id="Layer_1-2" data-name="Layer 1"><polygon class="cls-1" points="27.12 10.28 27.37 9.56 26.35 5.95 26.05 3.87 27.32 0.36 27.42 0 27.83 0 29.25 2.54 29.3 4.93 28.74 9.46 29.05 12.16 27.37 11.24 27.12 10.28"/><polygon class="cls-2" points="24.06 28.03 26 28.64 27.57 29.5 27.83 29.91 27.47 30.22 27.47 30.83 25.89 30.83 23.56 30.73 21.67 30.02 21.47 28.79 24.06 28.03"/><polygon class="cls-3" points="17.6 3.05 16.64 4.22 17.35 6.05 19.79 7.78 23.4 11.14 23.66 11.75 23.25 12.82 22.08 14.24 20.76 14.09 19.33 14.09 12.56 12.57 7.94 13.58 2.9 15.26 0.56 21.62 0 27.27 2.29 29.41 3.21 29.91 2.95 30.93 5.04 31.14 7.07 31.49 11.45 32.36 12.67 32.36 12.77 31.85 13.18 31.85 13.18 30.78 14.91 30.22 16.79 29.5 16.84 29.86 18.82 30.52 19.64 31.29 21.88 31.59 24.16 32.05 25.08 31.59 24.93 30.88 24.11 29.91 22.13 29.66 24.62 28.44 26.1 26.66 27.63 24.42 27.98 22.49 28.74 21.98 28.79 21.27 30.73 21.27 31.95 19.99 32.36 18.62 31.49 16.89 29.76 12.72 28.44 11.04 25.95 9.26 23.81 6.56 20.66 4.43 18.11 3.31 17.6 3.05"/><polygon class="cls-4" points="31.94 18.68 32.32 18.55 32.36 18.62 31.98 19.9 31.48 19.9 31.33 19.48 31.67 19.03 31.94 18.68"/><polygon class="cls-1" points="28.23 19.71 28.58 20.48 29.11 20.82 29.72 20.78 30.1 20.63 30.98 20.25 31.48 19.9 31.14 20.48 30.33 20.9 30.46 21.27 28.98 21.27 28.66 21.01 27.97 20.32 27.82 19.18 28.2 19.18 28.23 19.71"/><path class="cls-1" d="M21.16,28.54l.82-.46,3.2-3,1.33-2.29L27.57,22l.72-.61.56-.46.17.3h-.23l-.05.72-.76.51-.35,1.93L26.1,26.66l-1.48,1.78-2.49,1.22-1.22-.56-.56-.3-.51-.51V28l.36,0Z"/><polygon class="cls-1" points="9.21 27.27 9.21 25.74 8.85 24.22 9.26 24.93 10.18 26.51 11.6 27.17 14.4 27.37 16.48 27.17 17.09 27.17 17.09 28.08 16.79 29 16.6 29.58 14.91 30.22 13.18 30.78 13.03 30.32 11.96 29.66 10.13 29.46 8.29 29.3 6.62 29.15 6.36 28.85 7.68 28.44 9.21 27.27"/><polygon class="cls-1" points="0 27.27 0.56 21.62 2.9 15.26 5.62 14.35 5.5 14.65 4.38 15.21 3.36 16.15 1.91 20.96 1.5 23.22 1.6 25.26 1.04 26.86 2.44 27.07 3.77 27.52 4.88 27.73 4.88 28.23 3.56 29.3 4.88 29.96 5.29 30.52 8.19 30.52 10.69 30.88 12.01 31.44 12.05 32.36 11.45 32.36 7.07 31.49 5.04 31.14 2.95 30.93 3.21 29.91 2.29 29.41 0 27.27"/><polygon class="cls-2" points="13.12 31.85 12.77 31.85 12.67 32.36 12.5 32.36 12.46 31.75 12.01 30.88 12.67 31.14 13.12 31.85"/><polygon class="cls-1" points="17.3 29.1 18.47 29.71 19.79 30.12 20.76 30.57 21.37 30.17 22.18 29.96 22.89 29.96 23.5 30.12 22.28 30.32 22.03 30.78 22.38 31.09 24.27 31.95 24.3 31.98 24.16 32.05 21.88 31.59 19.64 31.29 18.82 30.52 16.84 29.86 16.79 29.5 16.68 29.55 16.74 29.3 16.74 28.59 17.3 29.1"/><polygon class="cls-4" points="23.91 9.92 23 9.52 21.47 8.34 19.64 6.97 17.91 5.7 17.6 4.43 17.7 3.97 19.74 5.54 22.03 6.72 23 8.24 23.91 9.92"/><polygon class="cls-1" points="22.08 14.24 23.25 12.82 23.66 11.75 23.61 11.65 23.61 11.65 23.4 11.14 22.29 10.1 23.3 10.07 24.38 11.31 23.98 14.51 23.71 15.62 24.47 17.45 25.03 18.62 25.79 19.33 26.71 19.94 27.73 20.55 27.68 20.91 25.95 20.09 24.57 18.72 22.95 16.84 22.43 15.97 21.84 14.22 22.08 14.24"/><polygon class="cls-1" points="26.41 9.59 25.64 10.53 25.29 11.45 25.13 10.73 25.03 9.82 25.48 8.67 25.95 9.26 26.41 9.59"/><polygon class="cls-5" points="24.48 7.42 23.66 6.82 20.8 5.1 19.38 4.38 17.74 3.65 17.09 3.67 17.6 3.05 18.11 3.31 20.66 4.43 23.81 6.56 24.48 7.42"/><path class="cls-5" d="M23.7,29.86l.41.05.82,1,.15.71-.19.1c-.22-.31-.57-.76-.57-.76l-.66-.41Z"/><polygon class="cls-5" points="6.91 14.14 6.6 14.03 7.94 13.58 12.56 12.57 19.33 14.09 19.98 14.09 18.85 14.56 17.17 14.14 13.62 13.49 9.08 14.07 6.91 14.14"/><polygon class="cls-5" points="26.97 9.99 28.44 11.04 29.76 12.72 31.49 16.89 31.94 17.79 31.63 17.73 31.06 16.85 30.26 14.45 29.11 13.19 28.09 12.97 27 12.6 27.4 11.49 27.32 10.86 26.97 9.99"/><polygon class="cls-1" points="29.38 15.44 29.15 15.59 28.73 15.14 28.05 14.91 27.47 14.37 27.32 13.84 27.01 13.19 27.66 12.96 28.27 13.15 28.85 13.72 29.04 14.37 29.19 14.98 29.38 15.44"/><polygon class="cls-4" points="28.77 14.68 28.62 14.1 28.43 13.69 27.89 13.49 27.66 13.72 27.66 14.1 28.12 14.26 28.77 14.68"/><polygon class="cls-1" points="27.96 13.59 28.36 13.74 28.44 13.93 28.39 14.16 28.22 14.21 27.88 14.12 27.74 13.91 27.74 13.75 27.96 13.59"/><polygon class="cls-6" points="28.02 13.77 28.2 13.81 28.21 13.95 28.07 13.99 27.96 13.94 27.93 13.83 28.02 13.77"/><polygon class="cls-1" points="30.24 19.6 30.37 19.81 30.2 19.94 29.97 19.83 29.99 19.54 30.24 19.6"/><polygon class="cls-1" points="29.76 19.89 29.8 20.11 29.65 20.23 29.49 20.09 29.48 19.9 29.76 19.89"/><polygon class="cls-1" points="29.82 19.31 29.76 19.47 29.53 19.43 29.53 19.22 29.74 19.08 29.82 19.31"/><polygon class="cls-1" points="29.27 19.56 29.3 19.64 29.19 19.73 29.13 19.6 29.17 19.47 29.27 19.56"/><polygon class="cls-1" points="30.22 19.14 30.2 19.27 30.1 19.29 30.03 19.16 30.03 19.05 30.14 19.01 30.22 19.14"/><polygon class="cls-1" points="29.27 18.89 29.3 19.1 29.15 19.12 29.04 18.97 29.04 18.87 29.27 18.89"/></g></g></svg>